<svg width="1380" height="874" viewBox="0 0 1380 874" fill="none" xmlns="http://www.w3.org/2000/svg">
  <g clip-path="url(#clip0_425_4105)">
    <rect width="1380" height="874" rx="50" fill="white" fill-opacity="0.4" />
    <path d="M272.757 -45.7574C275.101 -48.1005 278.899 -48.1005 281.243 -45.7574L338.757 11.7574C341.101 14.1005 341.101 17.8995 338.757 20.2426L281.243 77.7574C278.899 80.1005 275.101 80.1005 272.757 77.7574L215.243 20.2426C212.899 17.8995 212.899 14.1005 215.243 11.7574L272.757 -45.7574Z" fill="#FF2600" fill-opacity="0.1" />
    <path d="M74.8431 -81.3431C77.9673 -84.4673 83.0327 -84.4673 86.1569 -81.3431L227.343 59.8431C230.467 62.9673 230.467 68.0327 227.343 71.1569L86.1569 212.343C83.0327 215.467 77.9673 215.467 74.8431 212.343L-66.3431 71.1569C-69.4673 68.0327 -69.4673 62.9673 -66.3431 59.8431L74.8431 -81.3431Z" fill="#FF2600" fill-opacity="0.1" />
    <path d="M1179.34 652.657C1182.47 649.533 1187.53 649.533 1190.66 652.657L1322.34 784.343C1325.47 787.467 1325.47 792.533 1322.34 795.657L1190.66 927.343C1187.53 930.467 1182.47 930.467 1179.34 927.343L1047.66 795.657C1044.53 792.533 1044.53 787.467 1047.66 784.343L1179.34 652.657Z" fill="#FF2600" fill-opacity="0.1" />
    <path d="M1102.84 -61.3431C1105.97 -64.4673 1111.03 -64.4673 1114.16 -61.3431L1228.34 52.8431C1231.47 55.9673 1231.47 61.0327 1228.34 64.1569L1114.16 178.343C1111.03 181.467 1105.97 181.467 1102.84 178.343L988.657 64.1568C985.533 61.0327 985.533 55.9673 988.657 52.8431L1102.84 -61.3431Z" fill="#FF2600" fill-opacity="0.1" />
    <path d="M1249.84 74.6568C1252.97 71.5327 1258.03 71.5327 1261.16 74.6569L1430.34 243.843C1433.47 246.967 1433.47 252.033 1430.34 255.157L1261.16 424.343C1258.03 427.467 1252.97 427.467 1249.84 424.343L1080.66 255.157C1077.53 252.033 1077.53 246.967 1080.66 243.843L1249.84 74.6568Z" fill="#FF2600" fill-opacity="0.1" />
    <path d="M1011.17 807.828C1012.73 806.266 1015.27 806.266 1016.83 807.828L1088.17 879.172C1089.73 880.734 1089.73 883.266 1088.17 884.828L1016.83 956.172C1015.27 957.734 1012.73 957.734 1011.17 956.172L939.828 884.828C938.266 883.266 938.266 880.734 939.828 879.172L1011.17 807.828Z" fill="#FF2600" fill-opacity="0.1" />
    <path d="M237.343 87.6569C240.467 84.5327 245.533 84.5327 248.657 87.6569L321.343 160.343C324.467 163.467 324.467 168.533 321.343 171.657L248.657 244.343C245.533 247.467 240.467 247.467 237.343 244.343L164.657 171.657C161.533 168.533 161.533 163.467 164.657 160.343L237.343 87.6569Z" fill="#FF2600" fill-opacity="0.1" />
    <path d="M132.858 198.142C140.668 190.332 153.332 190.332 161.142 198.142L385.858 422.858C393.668 430.668 393.668 443.332 385.858 451.142L161.142 675.858C153.332 683.668 140.668 683.668 132.858 675.858L-91.8579 451.142C-99.6683 443.332 -99.6683 430.668 -91.8579 422.858L132.858 198.142Z" fill="#FF2600" fill-opacity="0.1" />
  </g>
  <defs>
    <clipPath id="clip0_425_4105">
      <rect width="1380" height="874" rx="50" fill="white" />
    </clipPath>
  </defs>
</svg>