<svg width="1440" height="48" viewBox="0 0 1440 48" fill="none" xmlns="http://www.w3.org/2000/svg">
<path d="M60 38C40 24.6667 20 24.6667 0 38V0H1800V38C1780 51.3333 1760 51.3333 1740 38C1720 24.6667 1700 24.6667 1680 38C1660 51.3333 1640 51.3333 1620 38C1600 24.6667 1580 24.6667 1560 38C1540 51.3333 1520 51.3333 1500 38C1480 24.6667 1460 24.6667 1440 38C1420 51.3333 1400 51.3333 1380 38C1360 24.6667 1340 24.6667 1320 38C1300 51.3333 1280 51.3333 1260 38C1240 24.6667 1220 24.6667 1200 38C1180 51.3333 1160 51.3333 1140 38C1120 24.6667 1100 24.6667 1080 38C1060 51.3333 1040 51.3333 1020 38C1000 24.6667 980 24.6667 960 38C940 51.3333 920 51.3333 900 38C880 24.6667 860 24.6667 840 38C820 51.3333 800 51.3333 780 38C760 24.6667 740 24.6667 720 38C700 51.3333 680 51.3333 660 38C640 24.6667 620 24.6667 600 38C580 51.3333 560 51.3333 540 38C520 24.6667 500 24.6667 480 38C460 51.3333 440 51.3333 420 38C400 24.6667 380 24.6667 360 38C340 51.3333 320 51.3333 300 38C280 24.6667 260 24.6667 240 38C220 51.3333 200 51.3333 180 38C160 24.6667 140 24.6667 120 38C100 51.3333 80 51.3333 60 38Z" fill="#E1CAC6"/>
</svg>
