<svg width="138" height="143" viewBox="0 0 138 143" fill="none" xmlns="http://www.w3.org/2000/svg">
  <path d="M37.555 115.513C32.1079 123.971 34.5344 135.506 44.0978 138.628C52.6165 141.41 61.6378 142.571 70.6901 141.989C85.8477 141.014 100.293 135.204 111.905 125.413C123.516 115.622 131.682 102.365 135.202 87.5892C138.722 72.8139 137.411 57.2991 131.461 43.324C125.512 29.3488 115.238 17.65 102.148 9.94588C89.0576 2.2418 73.8419 -1.06142 58.7358 0.521471C43.6296 2.10436 29.4293 8.48991 18.2206 18.7401C11.5266 24.8617 6.11037 32.1689 2.21053 40.2371C-2.16754 49.2947 4.46534 59.0394 14.3374 60.9756C24.2096 62.9119 33.5217 55.8838 40.16 48.3246C40.9891 47.3805 41.8721 46.4789 42.8062 45.6247C48.2635 40.634 55.1775 37.525 62.5324 36.7543C69.8874 35.9836 77.2956 37.5919 83.669 41.3429C90.0423 45.0939 95.0447 50.7899 97.9414 57.5942C100.838 64.3985 101.476 71.9523 99.7626 79.1462C98.0488 86.3401 94.0731 92.7948 88.4196 97.5621C82.7661 102.329 75.7328 105.158 68.3528 105.632C67.0896 105.714 65.8277 105.725 64.5725 105.668C54.5226 105.214 43.002 107.055 37.555 115.513Z" fill="white" />
</svg>