<svg width="1440" height="1168" viewBox="0 0 1440 1168" fill="none" xmlns="http://www.w3.org/2000/svg">
    <path d="M228.343 576.657C231.467 573.533 236.533 573.533 239.657 576.657L498.343 835.343C501.467 838.467 501.467 843.533 498.343 846.657L239.657 1105.34C236.533 1108.47 231.467 1108.47 228.343 1105.34L-30.3432 846.657C-33.4674 843.533 -33.4673 838.467 -30.3431 835.343L228.343 576.657Z" fill="#0051DE" fill-opacity="0.1" />
    <path d="M39.8431 5.65686C42.9673 2.53266 48.0327 2.53266 51.1569 5.65685L195.343 149.843C198.467 152.967 198.467 158.033 195.343 161.157L51.1569 305.343C48.0327 308.467 42.9673 308.467 39.8431 305.343L-104.343 161.157C-107.467 158.033 -107.467 152.967 -104.343 149.843L39.8431 5.65686Z" fill="#0051DE" fill-opacity="0.1" />
    <path d="M502.843 21.6569C505.967 18.5327 511.033 18.5327 514.157 21.6569L619.343 126.843C622.467 129.967 622.467 135.033 619.343 138.157L514.157 243.343C511.033 246.467 505.967 246.467 502.843 243.343L397.657 138.157C394.533 135.033 394.533 129.967 397.657 126.843L502.843 21.6569Z" fill="#0051DE" fill-opacity="0.1" />
    <path d="M612.343 181.657C615.467 178.533 620.533 178.533 623.657 181.657L700.343 258.343C703.467 261.467 703.467 266.533 700.343 269.657L623.657 346.343C620.533 349.467 615.467 349.467 612.343 346.343L535.657 269.657C532.533 266.533 532.533 261.467 535.657 258.343L612.343 181.657Z" fill="#0051DE" fill-opacity="0.1" />
    <path d="M1411.34 114.657C1414.47 111.533 1419.53 111.533 1422.66 114.657L1482.34 174.343C1485.47 177.467 1485.47 182.533 1482.34 185.657L1422.66 245.343C1419.53 248.467 1414.47 248.467 1411.34 245.343L1351.66 185.657C1348.53 182.533 1348.53 177.467 1351.66 174.343L1411.34 114.657Z" fill="#0051DE" fill-opacity="0.1" />
    <path d="M1295.34 81.6568C1298.47 78.5327 1303.53 78.5327 1306.66 81.6569L1359.34 134.343C1362.47 137.467 1362.47 142.533 1359.34 145.657L1306.66 198.343C1303.53 201.467 1298.47 201.467 1295.34 198.343L1242.66 145.657C1239.53 142.533 1239.53 137.467 1242.66 134.343L1295.34 81.6568Z" fill="#0051DE" fill-opacity="0.1" />
    <path d="M1354.34 723.657C1357.47 720.533 1362.53 720.533 1365.66 723.657L1579.34 937.343C1582.47 940.467 1582.47 945.533 1579.34 948.657L1365.66 1162.34C1362.53 1165.47 1357.47 1165.47 1354.34 1162.34L1140.66 948.657C1137.53 945.533 1137.53 940.467 1140.66 937.343L1354.34 723.657Z" fill="#0051DE" fill-opacity="0.1" />
  </svg>