<svg width="384" height="384" viewBox="0 0 384 384" fill="none" xmlns="http://www.w3.org/2000/svg">
  <rect width="384" height="384" rx="70" fill="white" />
  <path d="M299.508 191.407L297.721 192.104L295.968 198.985L304.239 193.99L309.433 202.26L312.708 194.188C307.216 195.113 302.816 194.186 299.508 191.407Z" fill="#30DDD4" />
  <path d="M173.36 255.392C172.707 256.165 171.895 256.785 170.978 257.211C170.878 259.494 170.25 265.482 165.916 266.078H180.572C178.962 262.04 176.502 258.395 173.36 255.392Z" fill="#30DDD4" />
  <path d="M279.823 255.425C280.253 257.29 280.92 259.09 281.808 260.784L300.401 261.777C293.372 260.254 286.487 258.129 279.823 255.425Z" fill="#30DDD4" />
  <path d="M307.149 124.38C300.4 114.587 308.174 101.744 320.945 101.883C329.844 101.979 336.99 108.632 336.924 116.771C336.858 124.909 329.546 131.397 320.647 131.328C317.325 131.313 314.081 130.324 311.317 128.482L304.502 131.129L307.149 124.38Z" fill="#30DDD4" />
  <path d="M75.5623 216.725C75.6345 218.527 74.9889 220.285 73.7671 221.612C72.5454 222.939 70.8471 223.728 69.0448 223.805C67.2689 223.656 65.6136 222.846 64.4068 221.535C63.2 220.224 62.5298 218.507 62.5291 216.725C62.5286 214.943 63.1984 213.225 64.4054 211.914C65.6125 210.602 67.2685 209.792 69.0448 209.645C70.8471 209.722 72.5454 210.51 73.7671 211.838C74.9889 213.165 75.6345 214.922 75.5623 216.725Z" fill="#30DDD4" />
  <path d="M72.9853 206.659C71.9486 207.436 70.6711 207.823 69.3774 207.751C69.505 206.461 70.0783 205.256 70.9985 204.343C72.0373 203.572 73.3123 203.186 74.6047 203.251C74.4776 204.541 73.9049 205.746 72.9853 206.659Z" fill="#30DDD4" />
  <path d="M223.151 204.343C224.187 203.567 225.464 203.18 226.757 203.252C226.74 203.9 226.587 204.539 226.309 205.125C226.03 205.712 225.632 206.233 225.141 206.657C224.649 207.081 224.074 207.397 223.452 207.585C222.831 207.774 222.178 207.83 221.533 207.751C221.671 206.465 222.242 205.263 223.151 204.343Z" fill="#30DDD4" />
  <path d="M221.232 223.764C219.807 223.883 218.379 223.568 217.135 222.862C215.892 222.155 214.891 221.09 214.263 219.804C213.634 218.52 213.407 217.075 213.613 215.66C213.819 214.245 214.448 212.924 215.418 211.873C216.141 211.086 217.033 210.472 218.027 210.078C219.022 209.683 220.092 209.518 221.158 209.596C222.225 209.673 223.26 209.99 224.187 210.523C225.114 211.057 225.908 211.792 226.511 212.676C227.317 213.856 227.749 215.254 227.749 216.684C227.82 218.486 227.174 220.243 225.953 221.57C224.731 222.897 223.034 223.686 221.232 223.764Z" fill="#30DDD4" />
  <path d="M250.511 308.127C250.603 308.353 250.64 308.597 250.62 308.84C250.599 309.083 250.52 309.318 250.391 309.524C250.262 309.731 250.086 309.904 249.876 310.029C249.667 310.155 249.431 310.228 249.188 310.244C239.978 311.857 230.58 312.102 221.298 310.972C220.983 310.993 220.669 310.915 220.4 310.75C220.13 310.584 219.919 310.34 219.794 310.049C219.67 309.758 219.64 309.436 219.708 309.127C219.777 308.818 219.939 308.538 220.173 308.326L242.113 291.354C242.382 291.105 242.732 290.962 243.098 290.952C243.464 290.942 243.821 291.065 244.103 291.298C244.29 291.453 244.436 291.652 244.528 291.876L246.555 296.793C242.045 300.269 237.312 303.445 232.386 306.301C237.832 304.947 243.121 303.029 248.167 300.577L250.511 308.127Z" fill="#30DDD4" />
  <path d="M145.238 166.131C141.698 165.271 138.284 168.182 136.532 171.755C136.613 172.318 136.85 172.847 137.215 173.283C137.581 173.719 138.06 174.044 138.6 174.223C139.14 174.401 139.719 174.426 140.272 174.294C140.825 174.162 141.33 173.879 141.731 173.476C141.87 173.88 142.087 174.252 142.371 174.571C142.654 174.89 142.998 175.15 143.383 175.334C143.768 175.519 144.186 175.626 144.612 175.647C145.039 175.669 145.465 175.605 145.867 175.461C146.619 174.094 148.266 172.431 149.771 172.781L151.226 173.145C151.154 171.475 150.525 169.878 149.44 168.607C148.355 167.336 146.876 166.464 145.238 166.131Z" fill="#6153BD" />
  <path d="M137.178 171.662C137.15 171.494 137.057 171.343 136.919 171.242C136.781 171.142 136.609 171.099 136.44 171.124C136.271 171.149 136.119 171.238 136.015 171.374C135.912 171.51 135.865 171.681 135.886 171.85L137.178 171.662ZM141.732 173.476L142.35 173.266C142.314 173.161 142.252 173.067 142.17 172.992C142.087 172.918 141.988 172.866 141.88 172.841C141.772 172.816 141.659 172.818 141.552 172.849C141.446 172.879 141.349 172.936 141.27 173.015L141.732 173.476ZM145.867 175.461L146.088 176.076C146.238 176.022 146.363 175.916 146.44 175.776L145.867 175.461ZM149.771 172.782L149.929 172.148L149.919 172.146L149.771 172.782ZM151.068 173.779C151.151 173.8 151.238 173.804 151.323 173.792C151.408 173.779 151.489 173.75 151.563 173.706C151.636 173.662 151.701 173.603 151.752 173.534C151.803 173.465 151.84 173.387 151.86 173.304C151.881 173.221 151.885 173.134 151.873 173.049C151.86 172.964 151.831 172.883 151.787 172.809C151.743 172.736 151.685 172.672 151.616 172.621C151.547 172.569 151.468 172.532 151.385 172.512L151.068 173.779ZM135.884 171.85C135.985 172.533 136.273 173.173 136.715 173.703L137.716 172.863C137.429 172.521 137.243 172.105 137.178 171.662L135.886 171.85H135.884ZM136.715 173.703C137.159 174.232 137.741 174.626 138.395 174.843L138.805 173.603C138.38 173.463 138.003 173.206 137.716 172.863L136.715 173.703ZM138.395 174.843C139.05 175.059 139.754 175.09 140.424 174.93L140.121 173.659C139.686 173.764 139.229 173.744 138.805 173.603L138.395 174.843ZM140.424 174.93C141.094 174.77 141.707 174.425 142.195 173.938L141.268 173.015C140.953 173.332 140.555 173.556 140.119 173.659L140.424 174.93ZM141.113 173.687C141.281 174.175 141.542 174.622 141.883 175.005L142.858 174.138C142.632 173.883 142.46 173.586 142.35 173.264L141.113 173.687ZM141.883 175.005C142.224 175.388 142.637 175.702 143.102 175.925L143.666 174.746C143.359 174.599 143.085 174.392 142.858 174.138L141.883 175.005ZM143.102 175.925C143.563 176.146 144.067 176.273 144.58 176.301L144.646 174.995C144.306 174.978 143.973 174.893 143.666 174.746L143.1 175.925H143.102ZM144.58 176.301C145.092 176.327 145.606 176.248 146.088 176.074L145.646 174.847C145.326 174.962 144.986 175.013 144.646 174.996L144.58 176.301ZM146.44 175.776C146.778 175.158 147.325 174.474 147.939 173.992C148.57 173.499 149.155 173.309 149.623 173.417L149.919 172.146C148.883 171.904 147.892 172.372 147.133 172.964C146.385 173.566 145.76 174.307 145.294 175.146L146.438 175.776H146.44ZM149.613 173.415L151.068 173.779L151.385 172.512L149.929 172.148L149.613 173.415Z" fill="#120071" />
  <path d="M184.343 171.657C185.368 171.081 186.197 170.212 186.725 169.161C187.252 168.111 187.454 166.927 187.304 165.761C187.155 164.595 186.66 163.501 185.885 162.618C185.109 161.735 184.087 161.104 182.95 160.805C182.419 160.676 181.875 160.609 181.329 160.607C182.143 159.588 182.596 158.328 182.619 157.025C182.642 155.721 182.233 154.446 181.456 153.399C180.679 152.352 179.577 151.592 178.323 151.236C177.069 150.881 175.732 150.95 174.521 151.434C174.981 150.156 174.986 148.759 174.536 147.478C174.085 146.197 173.206 145.111 172.047 144.404C170.889 143.696 169.521 143.41 168.176 143.593C166.831 143.777 165.59 144.42 164.664 145.412C164.772 144.03 164.39 142.653 163.584 141.524C162.778 140.396 161.601 139.587 160.258 139.24L159.861 139.14C158.475 138.779 157.004 138.936 155.725 139.582C154.446 140.227 153.446 141.317 152.914 142.647C152.538 141.341 151.721 140.204 150.603 139.43C149.485 138.657 148.134 138.294 146.778 138.403C145.423 138.512 144.147 139.086 143.167 140.029C142.187 140.971 141.563 142.224 141.4 143.574C140.691 142.773 139.777 142.181 138.756 141.861C137.736 141.54 136.647 141.504 135.607 141.755C134.567 142.006 133.616 142.535 132.854 143.286C132.092 144.037 131.548 144.981 131.282 146.017C131.063 146.894 131.04 147.809 131.216 148.696C130.244 148.164 129.142 147.918 128.036 147.986C126.93 148.055 125.866 148.434 124.967 149.082C124.069 149.729 123.371 150.618 122.956 151.645C122.541 152.673 122.426 153.796 122.623 154.887C122.764 155.714 123.076 156.501 123.54 157.199C122.169 156.924 120.745 157.147 119.523 157.827C118.301 158.506 117.361 159.599 116.872 160.909C116.382 162.219 116.375 163.66 116.851 164.975C117.327 166.289 118.256 167.391 119.471 168.084C118.076 168.166 116.755 168.742 115.745 169.708C114.734 170.673 114.099 171.966 113.953 173.356C113.807 174.747 114.158 176.143 114.946 177.298C115.733 178.453 116.905 179.291 118.252 179.663C117.237 180.25 116.418 181.125 115.901 182.178C115.384 183.231 115.191 184.413 115.347 185.576C115.503 186.739 116 187.829 116.777 188.708C117.553 189.587 118.574 190.216 119.708 190.514C120.25 190.643 120.805 190.709 121.362 190.713C120.623 191.654 120.186 192.797 120.11 193.992C120.033 195.186 120.32 196.376 120.932 197.404C121.338 198.087 121.879 198.679 122.52 199.149C124.413 198.242 126.332 197.392 128.277 196.602C131.784 195.179 136.983 195.383 138.724 194.948C139.365 194.763 139.953 194.431 140.442 193.977C140.93 193.523 141.305 192.961 141.536 192.336C143.088 191.035 144.379 189.452 145.341 187.671C136.751 191.834 132.781 189.959 133.857 182.146C133.746 182.123 131.172 181.543 132.306 175.298C132.435 174.13 132.892 173.022 133.624 172.103C134.355 171.184 135.332 170.491 136.441 170.103C138.531 166.861 141.966 164.479 145.44 165.339C147.29 165.728 148.954 166.731 150.161 168.185C151.368 169.639 152.048 171.459 152.09 173.349L154.005 173.812C155.825 174.242 156.617 177.385 155.792 180.76C154.965 184.167 152.814 186.551 150.995 186.119L147.885 185.383C147.422 192.033 148.017 197.789 158.174 200.767C161.447 201.726 164.691 204.241 167.04 209.402C168.479 209.007 169.715 208.08 170.495 206.808C171.275 205.536 171.542 204.015 171.242 202.553C172.401 203.188 173.74 203.415 175.043 203.196C176.346 202.977 177.538 202.327 178.426 201.348C179.316 200.372 179.851 199.124 179.945 197.807C180.04 196.489 179.689 195.178 178.949 194.084C179.972 194.292 181.033 194.224 182.021 193.888C183.01 193.552 183.892 192.959 184.577 192.171C185.261 191.382 185.724 190.426 185.918 189.4C186.112 188.373 186.03 187.314 185.68 186.33C185.214 185.012 184.294 183.903 183.086 183.199C184.479 183.123 185.8 182.554 186.812 181.595C187.825 180.635 188.464 179.347 188.615 177.96C188.766 176.573 188.419 175.177 187.637 174.022C186.854 172.867 185.687 172.027 184.343 171.653V171.657Z" fill="#6153BD" />
  <path d="M354.46 266.077H29.6438C29.2398 266.063 28.8372 266.131 28.46 266.276C28.0827 266.421 27.7385 266.641 27.4479 266.922C27.1572 267.202 26.9261 267.539 26.7683 267.911C26.6104 268.283 26.5291 268.683 26.5291 269.088C26.5291 269.492 26.6104 269.892 26.7683 270.264C26.9261 270.636 27.1572 270.973 27.4479 271.254C27.7385 271.534 28.0827 271.754 28.46 271.899C28.8372 272.044 29.2398 272.112 29.6438 272.098H354.46C355.258 272.097 356.024 271.78 356.588 271.215C357.152 270.651 357.47 269.886 357.471 269.088C357.47 268.289 357.152 267.524 356.588 266.96C356.024 266.395 355.258 266.078 354.46 266.077Z" fill="#6153BD" />
  <path d="M317.274 170.697C317.411 169.05 317.012 167.403 316.137 166.001C315.259 164.6 313.952 163.52 312.411 162.922C311.091 162.244 309.564 162.089 308.135 162.488C306.706 162.886 305.48 163.81 304.702 165.073C304.537 165.404 304.305 165.834 304.371 165.735C307.909 166.776 311.318 168.215 314.533 170.023C315.461 169.82 316.159 170.258 317.274 170.697Z" fill="#6153BD" />
  <path d="M324.42 169.638C324.056 169.596 323.689 169.607 323.328 169.671C323.665 169.344 323.927 168.949 324.099 168.512C324.271 168.075 324.348 167.607 324.325 167.138C324.301 166.67 324.179 166.211 323.964 165.794C323.75 165.376 323.45 165.009 323.083 164.717C322.592 164.326 322 164.082 321.376 164.013C320.707 163.92 320.025 164.036 319.424 164.344C319.757 163.912 319.962 163.397 320.02 162.856C320.113 161.974 319.853 161.091 319.296 160.4C319.019 160.059 318.677 159.776 318.291 159.567C317.904 159.358 317.48 159.227 317.042 159.183C316.348 159.098 315.645 159.225 315.024 159.547C315.452 158.824 315.59 157.965 315.41 157.143C315.23 156.322 314.746 155.599 314.054 155.121C313.595 154.805 313.064 154.609 312.51 154.552C311.928 154.487 311.339 154.569 310.797 154.788C310.254 155.008 309.774 155.358 309.4 155.809L306.059 162.425C307.062 161.844 308.192 161.517 309.351 161.47C310.509 161.424 311.662 161.661 312.708 162.161C314.429 162.86 315.876 164.1 316.831 165.693C317.785 167.287 318.196 169.147 318.002 170.994L319.656 171.656C321.079 172.218 321.571 174.442 320.979 176.982C322.161 176.631 323.366 176.366 324.585 176.188C325.299 176.088 325.959 175.755 326.463 175.24C326.967 174.726 327.287 174.058 327.371 173.343C327.426 172.905 327.392 172.461 327.272 172.036C327.152 171.612 326.949 171.215 326.673 170.871C326.398 170.526 326.057 170.24 325.67 170.028C325.283 169.817 324.859 169.684 324.42 169.638Z" fill="#6153BD" />
  <path d="M301.228 180.357C301.116 180.639 301.09 180.947 301.154 181.243C301.218 181.539 301.369 181.81 301.587 182.02C301.749 182.179 301.945 182.3 302.16 182.374C302.375 182.448 302.604 182.474 302.83 182.448C303.056 182.423 303.273 182.348 303.467 182.228C303.66 182.108 303.824 181.947 303.947 181.756C304.071 181.565 304.15 181.348 304.179 181.123C304.208 180.897 304.187 180.668 304.117 180.452C304.046 180.236 303.929 180.038 303.773 179.873C303.616 179.707 303.425 179.579 303.213 179.497C302.835 179.354 302.417 179.363 302.046 179.524C301.675 179.685 301.382 179.983 301.228 180.357Z" fill="#6153BD" />
  <path d="M312.444 118.458C312.944 118.458 313.423 118.259 313.777 117.906C314.131 117.552 314.329 117.072 314.329 116.572C314.329 116.072 314.131 115.593 313.777 115.239C313.423 114.885 312.944 114.687 312.444 114.687C311.943 114.687 311.464 114.885 311.11 115.239C310.757 115.593 310.558 116.072 310.558 116.572C310.558 117.072 310.757 117.552 311.11 117.906C311.464 118.259 311.943 118.458 312.444 118.458Z" fill="#6153BD" />
  <path d="M320.715 118.458C321.215 118.458 321.695 118.259 322.048 117.906C322.402 117.552 322.601 117.072 322.601 116.572C322.601 116.072 322.402 115.593 322.048 115.239C321.695 114.885 321.215 114.687 320.715 114.687C320.215 114.687 319.735 114.885 319.381 115.239C319.028 115.593 318.829 116.072 318.829 116.572C318.829 117.072 319.028 117.552 319.381 117.906C319.735 118.259 320.215 118.458 320.715 118.458Z" fill="#6153BD" />
  <path d="M328.985 118.458C329.486 118.458 329.965 118.259 330.319 117.906C330.672 117.552 330.871 117.072 330.871 116.572C330.871 116.072 330.672 115.593 330.319 115.239C329.965 114.885 329.486 114.687 328.985 114.687C328.485 114.687 328.006 114.885 327.652 115.239C327.298 115.593 327.1 116.072 327.1 116.572C327.1 117.072 327.298 117.552 327.652 117.906C328.006 118.259 328.485 118.458 328.985 118.458Z" fill="#6153BD" />
  <path d="M143.948 215.955C143.782 216.103 143.575 216.198 143.354 216.228C143.133 216.258 142.908 216.221 142.708 216.122C142.575 216.058 142.456 215.968 142.358 215.857C142.261 215.746 142.186 215.616 142.139 215.476C142.073 215.284 142.061 215.077 142.103 214.877C142.146 214.678 142.241 214.494 142.38 214.345C142.519 214.196 142.696 214.088 142.891 214.031C143.087 213.975 143.294 213.973 143.491 214.025C143.688 214.077 143.867 214.181 144.009 214.327C144.151 214.473 144.251 214.655 144.298 214.853C144.345 215.051 144.337 215.258 144.275 215.452C144.214 215.646 144.101 215.82 143.948 215.955Z" fill="#6153BD" />
  <path d="M285.282 250.892C285.115 251.041 284.908 251.136 284.687 251.166C284.466 251.195 284.242 251.158 284.042 251.059C283.909 250.995 283.79 250.905 283.692 250.794C283.594 250.683 283.519 250.553 283.472 250.413C283.424 250.273 283.404 250.125 283.413 249.978C283.422 249.83 283.461 249.686 283.526 249.553C283.591 249.42 283.681 249.301 283.792 249.203C283.903 249.105 284.032 249.03 284.172 248.984C284.312 248.935 284.46 248.915 284.607 248.925C284.754 248.934 284.898 248.972 285.031 249.038C285.164 249.102 285.283 249.192 285.381 249.304C285.529 249.47 285.625 249.677 285.654 249.898C285.684 250.119 285.647 250.344 285.548 250.544C285.483 250.676 285.392 250.794 285.282 250.892Z" fill="#6153BD" />
  <path d="M254.017 143.039C253.793 143.235 253.5 143.335 253.203 143.317C252.943 143.301 252.698 143.195 252.508 143.017C252.318 142.84 252.196 142.602 252.161 142.345C252.127 142.087 252.183 141.826 252.32 141.605C252.456 141.384 252.665 141.218 252.911 141.134C253.157 141.05 253.424 141.053 253.668 141.144C253.911 141.235 254.115 141.408 254.246 141.632C254.376 141.857 254.425 142.12 254.383 142.376C254.341 142.633 254.212 142.867 254.017 143.039Z" fill="#6153BD" />
  <path d="M131.079 227.369C130.912 227.517 130.705 227.612 130.484 227.642C130.263 227.672 130.039 227.635 129.839 227.536C129.706 227.472 129.586 227.382 129.489 227.271C129.391 227.16 129.316 227.03 129.269 226.89C129.204 226.697 129.192 226.491 129.234 226.292C129.277 226.093 129.373 225.909 129.511 225.76C129.65 225.611 129.827 225.503 130.022 225.446C130.218 225.39 130.425 225.388 130.622 225.44C130.818 225.492 130.997 225.596 131.139 225.742C131.281 225.888 131.381 226.069 131.428 226.267C131.475 226.465 131.468 226.672 131.407 226.866C131.345 227.06 131.233 227.234 131.08 227.369H131.079Z" fill="#6153BD" />
  <path d="M143.123 239.776C142.956 239.924 142.749 240.019 142.528 240.049C142.307 240.079 142.083 240.042 141.883 239.943C141.75 239.879 141.631 239.788 141.533 239.677C141.435 239.566 141.361 239.437 141.314 239.297C141.248 239.104 141.236 238.897 141.278 238.698C141.321 238.499 141.417 238.316 141.556 238.167C141.694 238.018 141.871 237.91 142.066 237.853C142.262 237.797 142.469 237.794 142.666 237.846C142.863 237.898 143.042 238.003 143.184 238.149C143.326 238.294 143.426 238.476 143.473 238.674C143.52 238.872 143.512 239.079 143.451 239.273C143.39 239.467 143.277 239.641 143.124 239.776H143.123Z" fill="#6153BD" />
  <path d="M124.363 213.144L118.341 224.822L122.841 223.069C122.52 219.685 123.043 216.275 124.363 213.144Z" fill="#6153BD" />
  <path d="M270.234 213.573C273.411 214.607 276.648 215.447 279.928 216.087C280.357 213.787 280.988 211.528 281.813 209.338L270.234 213.573Z" fill="#6153BD" />
  <path d="M136.471 185.154C136.42 185.353 136.408 185.561 136.438 185.764C136.467 185.968 136.537 186.163 136.643 186.339C136.749 186.516 136.888 186.669 137.054 186.791C137.22 186.912 137.408 187 137.608 187.048C137.807 187.097 138.015 187.105 138.218 187.072C138.421 187.039 138.615 186.967 138.79 186.858C138.964 186.75 139.116 186.607 139.235 186.44C139.354 186.272 139.438 186.083 139.483 185.882C139.573 185.485 139.503 185.069 139.288 184.724C139.073 184.378 138.731 184.131 138.336 184.036C137.94 183.94 137.523 184.004 137.174 184.213C136.825 184.422 136.573 184.761 136.471 185.154Z" fill="#6153BD" />
  <path d="M103.751 187.438H101.469C103.065 187.438 104.597 188.072 105.726 189.201C106.855 190.33 107.49 191.862 107.49 193.459V237.063C107.49 237.854 107.334 238.637 107.032 239.368C106.729 240.098 106.286 240.762 105.727 241.321C105.168 241.88 104.504 242.324 103.773 242.627C103.042 242.929 102.259 243.085 101.469 243.084H103.751C104.542 243.085 105.325 242.929 106.056 242.627C106.787 242.325 107.451 241.881 108.01 241.322C108.569 240.763 109.013 240.099 109.315 239.368C109.618 238.637 109.773 237.854 109.773 237.063V193.459C109.773 191.862 109.138 190.33 108.009 189.201C106.88 188.072 105.348 187.437 103.751 187.438Z" fill="#6153BD" />
  <path d="M87.9373 264.125H83.471C82.7566 264.129 82.0665 263.866 81.5346 263.39C81.0027 262.913 80.667 262.255 80.5927 261.545L78.6773 243.087H76.4329L78.9472 266.081H89.8997C89.8933 265.563 89.6843 265.068 89.3175 264.703C88.9506 264.337 88.4552 264.13 87.9373 264.125Z" fill="#6153BD" />
  <path d="M242.075 266.077H231.124L228.618 243.083H230.868L232.783 261.541C232.858 262.251 233.193 262.909 233.725 263.386C234.257 263.863 234.947 264.125 235.662 264.121H240.128C240.643 264.129 241.135 264.338 241.499 264.703C241.863 265.068 242.069 265.561 242.075 266.077Z" fill="#6153BD" />
  <path d="M256.367 242.456C255.532 242.866 254.616 243.081 253.687 243.085C255.235 243.229 256.797 243.072 258.285 242.621L256.367 242.456Z" fill="#6153BD" />
  <path d="M255.936 187.438H253.654C254.445 187.435 255.229 187.589 255.961 187.89C256.693 188.192 257.358 188.635 257.917 189.195C258.477 189.755 258.92 190.42 259.222 191.151C259.524 191.883 259.678 192.667 259.675 193.459V231.472C260.371 231.373 261.13 231.34 261.958 231.274V193.459C261.958 192.668 261.803 191.885 261.5 191.154C261.198 190.423 260.754 189.759 260.195 189.2C259.636 188.641 258.972 188.197 258.241 187.895C257.51 187.593 256.727 187.437 255.936 187.438Z" fill="#6153BD" />
  <path d="M306.29 184.889L302.419 188.72C303.035 187.631 303.461 186.445 303.676 185.213C304.556 185.193 305.432 185.084 306.29 184.889Z" fill="#6153BD" />
  <path d="M198.437 81.8343C198.43 82.3294 198.229 82.8019 197.875 83.1489C197.522 83.4959 197.046 83.6893 196.551 83.687C196.305 83.6901 196.061 83.6446 195.833 83.5532C195.605 83.4618 195.397 83.3261 195.221 83.1542C195.045 82.9825 194.905 82.7772 194.809 82.5505C194.714 82.3238 194.665 82.0803 194.665 81.8343C194.672 81.3392 194.874 80.8667 195.227 80.5197C195.58 80.1727 196.056 79.9793 196.551 79.9816C196.797 79.9785 197.041 80.024 197.269 80.1154C197.498 80.2068 197.706 80.3424 197.881 80.5144C198.057 80.6866 198.196 80.892 198.292 81.1186C198.387 81.3452 198.436 81.5885 198.437 81.8343Z" fill="#6153BD" />
  <path d="M259.698 234.038V235.058L263.629 234.837C262.866 234.581 262.082 234.391 261.286 234.269C260.751 234.236 260.22 234.158 259.698 234.038Z" fill="#6153BD" />
  <path d="M259.524 238.306L259.163 239.652L264.349 238.886L259.524 238.306Z" fill="#6153BD" />
  <path d="M114.305 265.284C110.534 264.631 106.717 264.277 102.891 264.225C96.3403 264.187 98.4193 263.288 100.542 262.24C102.333 261.484 104.077 260.622 105.766 259.659C96.4604 253.739 92.9727 251.536 91.9698 250.826C87.2109 247.457 88.2261 246.393 92.9797 248.103C99.6138 250.816 106.677 252.332 113.84 252.579" stroke="#120071" stroke-width="0.769171" stroke-linecap="round" stroke-linejoin="round" />
  <path d="M324.42 169.638C324.056 169.596 323.689 169.607 323.328 169.671C323.665 169.344 323.927 168.949 324.099 168.512C324.271 168.076 324.348 167.608 324.325 167.139C324.301 166.67 324.179 166.212 323.964 165.794C323.75 165.377 323.45 165.01 323.083 164.717C322.592 164.326 322 164.082 321.376 164.014C320.707 163.92 320.025 164.036 319.424 164.345C319.757 163.913 319.962 163.398 320.02 162.856C320.113 161.974 319.853 161.091 319.296 160.401C319.019 160.059 318.677 159.776 318.291 159.567C317.904 159.358 317.48 159.228 317.042 159.184C316.348 159.098 315.645 159.225 315.024 159.548C315.452 158.824 315.59 157.965 315.41 157.144C315.23 156.322 314.746 155.6 314.054 155.121C313.595 154.805 313.064 154.609 312.51 154.552C311.928 154.488 311.339 154.569 310.797 154.789C310.254 155.008 309.774 155.359 309.4 155.809L306.059 162.426C307.062 161.845 308.192 161.517 309.351 161.471C310.509 161.425 311.662 161.662 312.708 162.161C314.429 162.861 315.876 164.101 316.831 165.694C317.785 167.287 318.196 169.147 318.002 170.995L319.656 171.656C321.079 172.219 321.571 174.442 320.979 176.983C322.161 176.632 323.366 176.367 324.585 176.189C325.299 176.089 325.959 175.755 326.463 175.241C326.967 174.726 327.287 174.059 327.371 173.344C327.426 172.906 327.392 172.461 327.272 172.037C327.152 171.612 326.949 171.216 326.673 170.871C326.398 170.527 326.057 170.24 325.67 170.029C325.283 169.817 324.859 169.684 324.42 169.638Z" stroke="#120071" stroke-width="0.769171" stroke-linejoin="round" />
  <path d="M107.523 260.818C106.941 260.428 106.356 260.042 105.769 259.66" stroke="#120071" stroke-width="0.769171" stroke-linecap="round" stroke-linejoin="round" />
  <path d="M99.3841 255.623C97.0352 255.226 92.245 254.54 89.6575 254.3C85.8511 253.952 86.3143 253.005 86.9115 252.778C89.0511 252.155 91.2668 251.832 93.4952 251.819" stroke="#120071" stroke-width="0.769171" stroke-linecap="round" stroke-linejoin="round" />
  <path d="M193.276 243.118L188.609 266.078" stroke="#120071" stroke-width="0.769171" stroke-linecap="round" stroke-linejoin="round" />
  <path d="M154.436 199.381L187.982 201.234" stroke="#120071" stroke-width="0.769171" stroke-linecap="round" stroke-linejoin="round" />
  <path d="M188.346 239.511L171.375 238.188" stroke="#120071" stroke-width="0.769171" stroke-linecap="round" stroke-linejoin="round" />
  <path d="M322.832 200.771L339.539 201.598" stroke="#120071" stroke-width="0.769171" stroke-linecap="round" stroke-linejoin="round" />
  <path d="M339.536 201.597C340.871 201.663 342.149 202.162 343.175 203.018C344.202 203.875 344.922 205.042 345.226 206.344C345.427 207.209 345.439 208.106 345.259 208.975" stroke="#120071" stroke-width="0.769171" stroke-linecap="round" stroke-linejoin="round" />
  <path d="M345.263 208.975L340.267 233.391" stroke="#120071" stroke-width="0.769171" stroke-linecap="round" stroke-linejoin="round" />
  <path d="M137.497 170.234C135.76 174.111 134.515 178.19 133.791 182.376C132.966 188.916 135.806 191.168 142.029 189.043C142.038 189.796 141.975 190.549 141.839 191.29C141.758 192.108 141.438 192.885 140.918 193.524C140.399 194.162 139.704 194.635 138.919 194.882C141.009 196.999 145.702 197.595 151.524 197.528C147.819 194.419 147.951 190.25 148.282 185.514" stroke="#120071" stroke-width="0.769171" stroke-linecap="round" stroke-linejoin="round" />
  <path d="M137.497 170.234L136.67 170.036C135.214 169.672 133.067 172.089 132.236 175.495C131.446 178.739 132.137 181.747 133.791 182.376" stroke="#120071" stroke-width="0.769171" stroke-linecap="round" stroke-linejoin="round" />
  <path d="M144.916 183.375C143.283 184.361 141.468 185.012 139.581 185.29" stroke="#120071" stroke-width="0.769171" stroke-linecap="round" stroke-linejoin="round" />
  <path d="M136.471 185.155C136.42 185.354 136.408 185.561 136.438 185.765C136.467 185.968 136.537 186.164 136.643 186.34C136.749 186.516 136.888 186.67 137.054 186.791C137.22 186.913 137.408 187 137.608 187.049C137.807 187.097 138.015 187.105 138.218 187.072C138.421 187.04 138.615 186.967 138.79 186.859C138.964 186.75 139.116 186.608 139.235 186.44C139.354 186.273 139.438 186.083 139.483 185.883C139.573 185.486 139.503 185.07 139.288 184.724C139.073 184.379 138.731 184.132 138.336 184.036C137.94 183.94 137.523 184.004 137.174 184.214C136.825 184.423 136.573 184.761 136.471 185.155Z" stroke="#120071" stroke-width="0.769171" stroke-linecap="round" stroke-linejoin="round" />
  <path d="M149.01 179.167C148.421 181.583 148.538 185.599 150.796 186.147C152.613 186.59 154.768 184.195 155.594 180.788C156.812 175.728 154.387 171.874 151.359 174.733C150.181 175.965 149.368 177.5 149.01 179.167Z" stroke="#120071" stroke-width="0.769171" stroke-linecap="round" stroke-linejoin="round" />
  <path d="M153.807 173.807L149.605 172.782C147.786 172.352 145.635 174.734 144.808 178.141C143.981 181.549 144.775 184.659 146.595 185.089L150.829 186.114" stroke="#120071" stroke-width="0.769171" stroke-linecap="round" stroke-linejoin="round" />
  <path d="M61.2056 114.125V129.475" stroke="#120071" stroke-width="0.769171" stroke-linecap="round" stroke-linejoin="round" />
  <path d="M68.8811 121.799H53.5303" stroke="#120071" stroke-width="0.769171" stroke-linecap="round" stroke-linejoin="round" />
  <path d="M108.646 306.704C108.781 307.278 108.743 307.879 108.537 308.431C108.33 308.983 107.965 309.461 107.486 309.805C107.008 310.149 106.438 310.344 105.849 310.364C105.261 310.384 104.679 310.229 104.178 309.918C103.677 309.607 103.28 309.155 103.037 308.619C102.793 308.082 102.714 307.485 102.81 306.904C102.906 306.322 103.172 305.782 103.575 305.352C103.977 304.922 104.499 304.621 105.073 304.488C105.646 304.347 106.248 304.381 106.802 304.587C107.355 304.792 107.834 305.159 108.176 305.641C108.402 305.959 108.562 306.321 108.646 306.704Z" stroke="#120071" stroke-width="0.769171" stroke-linecap="round" stroke-linejoin="round" />
  <path d="M101.469 243.085C102.259 243.085 103.043 242.93 103.773 242.627C104.504 242.325 105.168 241.882 105.727 241.322C106.287 240.763 106.73 240.099 107.032 239.368C107.335 238.638 107.49 237.854 107.49 237.064V193.459C107.49 191.862 106.856 190.331 105.726 189.202C104.597 188.072 103.066 187.438 101.469 187.438H41.8169C40.22 187.438 38.6884 188.072 37.5592 189.202C36.43 190.331 35.7957 191.862 35.7957 193.459V237.064C35.7954 237.854 35.951 238.637 36.2535 239.368C36.556 240.099 36.9996 240.763 37.5587 241.322C38.1179 241.881 38.7818 242.324 39.5124 242.627C40.243 242.93 41.0261 243.085 41.8169 243.085H101.467H101.469Z" stroke="#120071" stroke-width="0.769171" stroke-linecap="round" stroke-linejoin="round" />
  <path d="M78.9715 266.078H61.2056L63.4222 243.084H76.4572L78.9715 266.078Z" stroke="#120071" stroke-width="0.769171" stroke-linecap="round" stroke-linejoin="round" />
  <path d="M75.5623 216.725C75.6345 218.528 74.9889 220.285 73.7671 221.613C72.5454 222.94 70.8471 223.728 69.0448 223.805C67.2689 223.657 65.6136 222.847 64.4068 221.536C63.2 220.224 62.5298 218.507 62.5291 216.725C62.5286 214.943 63.1984 213.226 64.4054 211.914C65.6125 210.603 67.2685 209.793 69.0448 209.646C70.8471 209.722 72.5454 210.511 73.7671 211.838C74.9889 213.165 75.6345 214.923 75.5623 216.725Z" stroke="#120071" stroke-width="0.769171" stroke-linecap="round" stroke-linejoin="round" />
  <path d="M72.9851 206.659C71.9484 207.437 70.6708 207.823 69.3772 207.751C69.5048 206.461 70.078 205.256 70.9983 204.344C72.0371 203.572 73.3121 203.186 74.6044 203.252C74.4773 204.541 73.9047 205.746 72.9851 206.659Z" stroke="#120071" stroke-width="0.769171" stroke-linecap="round" stroke-linejoin="round" />
  <path d="M231.124 266.078H213.391L215.608 243.084H228.61L231.124 266.078Z" stroke="#120071" stroke-width="0.769171" stroke-linecap="round" stroke-linejoin="round" />
  <path d="M259.675 235.011V234.086" stroke="#120071" stroke-width="0.769171" stroke-linecap="round" stroke-linejoin="round" />
  <path d="M256.367 242.456C255.532 242.866 254.616 243.081 253.687 243.085H194.004C193.213 243.085 192.43 242.93 191.699 242.627C190.968 242.325 190.304 241.882 189.745 241.322C189.186 240.763 188.742 240.099 188.44 239.368C188.137 238.638 187.982 237.854 187.982 237.064V193.459C187.982 191.862 188.617 190.331 189.746 189.202C190.875 188.072 192.407 187.438 194.004 187.438H253.654C254.444 187.438 255.228 187.593 255.958 187.896C256.689 188.198 257.353 188.642 257.912 189.201C258.471 189.76 258.915 190.424 259.217 191.155C259.52 191.885 259.675 192.668 259.675 193.459V231.472" stroke="#120071" stroke-width="0.769171" stroke-linejoin="round" />
  <path d="M223.151 204.344C224.187 203.567 225.464 203.181 226.757 203.252C226.739 203.901 226.587 204.539 226.308 205.126C226.03 205.712 225.632 206.234 225.14 206.657C224.648 207.081 224.073 207.397 223.452 207.586C222.831 207.774 222.177 207.831 221.533 207.751C221.671 206.465 222.241 205.264 223.151 204.344Z" stroke="#120071" stroke-width="0.769171" stroke-linecap="round" stroke-linejoin="round" />
  <path d="M221.232 223.763C219.807 223.882 218.379 223.568 217.135 222.861C215.892 222.155 214.891 221.089 214.263 219.804C213.634 218.52 213.407 217.075 213.613 215.659C213.819 214.244 214.448 212.924 215.418 211.872C216.141 211.085 217.033 210.471 218.027 210.077C219.022 209.683 220.092 209.518 221.158 209.595C222.225 209.672 223.26 209.989 224.187 210.523C225.114 211.056 225.908 211.792 226.511 212.675C227.317 213.856 227.749 215.254 227.749 216.683C227.82 218.486 227.174 220.242 225.953 221.569C224.731 222.896 223.034 223.685 221.232 223.763Z" stroke="#120071" stroke-width="0.769171" stroke-linecap="round" stroke-linejoin="round" />
  <path d="M354.46 272.098C355.241 272.071 355.981 271.742 356.524 271.181C357.067 270.619 357.37 269.868 357.37 269.087C357.37 268.306 357.067 267.555 356.524 266.994C355.981 266.432 355.241 266.103 354.46 266.076H29.6438C29.2398 266.063 28.8372 266.13 28.46 266.276C28.0827 266.421 27.7385 266.64 27.4479 266.921C27.1572 267.202 26.9261 267.539 26.7683 267.911C26.6104 268.283 26.5291 268.683 26.5291 269.087C26.5291 269.491 26.6104 269.891 26.7683 270.263C26.9261 270.636 27.1572 270.972 27.4479 271.253C27.7385 271.534 28.0827 271.754 28.46 271.899C28.8372 272.044 29.2398 272.111 29.6438 272.098H354.46Z" stroke="#120071" stroke-width="0.769171" stroke-linecap="round" stroke-linejoin="round" />
  <path d="M75.0937 177.767C73.6084 176.722 71.8829 175.608 71.0314 175.131C68.5897 173.755 66.1073 172.454 63.5875 171.227C61.35 170.142 51.2125 165.244 48.9976 164.643C42.9398 163.003 42.9955 164.577 47.9389 167.522C51.3189 169.492 54.4606 171.845 57.3016 174.535C59.4394 176.682 61.418 178.982 63.2219 181.417" stroke="#120071" stroke-width="0.769171" stroke-linecap="round" stroke-linejoin="round" />
  <path d="M75.994 177.548C73.2481 174.041 73.053 173.841 70.9984 170.898C69.1492 168.25 68.4335 166.938 66.9622 164.612C63.3055 158.849 63.551 161.568 63.8279 164.017C64.0229 165.803 66.6731 172.188 63.5632 171.262" stroke="#120071" stroke-width="0.769171" stroke-linecap="round" stroke-linejoin="round" />
  <path d="M63.2897 181.483C60.7753 178.737 54.7575 175.529 51.9715 173.906C49.8211 172.651 46.3995 171.27 43.9322 169.936C43.3732 169.633 43.3071 168.467 47.2406 169.275C48.6649 169.567 51.2106 170.069 52.4016 170.433" stroke="#120071" stroke-width="0.769171" stroke-linecap="round" stroke-linejoin="round" />
  <path d="M62.6282 180.821C60.4018 179.487 58.0532 178.368 55.6144 177.48C53.4309 176.651 49.4313 175.717 47.0127 174.899C46.4172 174.699 46.1838 173.642 50.1469 173.708C50.4447 173.708 51.0402 173.741 51.7019 173.774" stroke="#120071" stroke-width="0.769171" stroke-linecap="round" stroke-linejoin="round" />
  <path d="M109.772 228.196L122.84 223.068" stroke="#120071" stroke-width="0.769171" stroke-linecap="round" stroke-linejoin="round" />
  <path d="M60.1139 187.438L59.1945 184.89C58.498 182.74 79.144 175.428 79.8718 177.577L83.572 187.438" stroke="#120071" stroke-width="0.769171" stroke-linecap="round" stroke-linejoin="round" />
  <path d="M151.193 226.51L151.921 246.89" stroke="#120071" stroke-width="0.769171" stroke-linecap="round" stroke-linejoin="round" />
  <path d="M165.916 266.078C169.896 265.531 170.896 260.38 170.977 256.351C171.674 222.651 170.739 204.204 157.744 200.605C155.472 200.042 153.35 198.993 151.524 197.528" stroke="#120071" stroke-width="0.769171" stroke-linecap="round" stroke-linejoin="round" />
  <path d="M114.835 266.078C113.247 266.078 113.313 248.643 114.934 248.643C114.934 248.643 146.694 247.716 158.538 246.261" stroke="#120071" stroke-width="0.769171" stroke-linecap="round" stroke-linejoin="round" />
  <path d="M130.317 248.08C124.223 235.178 122.626 225.444 122.774 220.422C122.873 217.925 123.399 215.463 124.329 213.144" stroke="#120071" stroke-width="0.769171" stroke-linecap="round" stroke-linejoin="round" />
  <path d="M170.983 257.211C171.9 256.785 172.713 256.164 173.365 255.392C176.502 258.406 178.97 262.047 180.609 266.078" stroke="#120071" stroke-width="0.769171" stroke-linecap="round" stroke-linejoin="round" />
  <path d="M173.36 255.391C172.201 250.856 171.536 246.208 171.375 241.529" stroke="#120071" stroke-width="0.769171" stroke-linecap="round" stroke-linejoin="round" />
  <path d="M311.914 182.012C307.845 193.492 315.156 196.569 318.663 198.686C320.086 199.547 326.964 201.734 331.334 208.512C335.731 215.331 343.135 240.605 343.939 253.969C344.331 260.487 341.522 264.547 335.073 265.681C328.355 266.863 297.853 263.497 277.805 254.565C274.86 253.605 281.907 232.002 284.852 232.961L326.306 242.919" stroke="#120071" stroke-width="0.769171" stroke-linecap="round" stroke-linejoin="round" />
  <path d="M304.284 165.841L303.511 165.47C302.154 164.948 299.706 166.992 298.449 170.171C297.221 173.259 297.524 176.28 299.06 177.095" stroke="#120071" stroke-width="0.769171" stroke-linecap="round" stroke-linejoin="round" />
  <path d="M309.679 179.778L309.4 179.895C307.586 180.634 305.633 180.971 303.677 180.881" stroke="#120071" stroke-width="0.769171" stroke-linecap="round" stroke-linejoin="round" />
  <path d="M314.462 182.84C312.386 180.78 313.999 174.503 317.175 172.218C319.987 170.2 321.932 172.812 321.005 176.982C320.55 179.079 319.474 180.991 317.918 182.469C316.846 183.393 315.47 183.839 314.462 182.84Z" stroke="#120071" stroke-width="0.769171" stroke-linecap="round" stroke-linejoin="round" />
  <path d="M314.984 183.22L311.089 181.681C309.369 180.984 308.989 177.838 310.262 174.634C311.275 172.083 313.636 169.275 315.66 170.069L319.597 171.624" stroke="#120071" stroke-width="0.769171" stroke-linecap="round" stroke-linejoin="round" />
  <path d="M304.284 165.841C296.642 178.918 296.623 185.477 303.71 185.226C303.213 188.709 300.635 193.744 290.906 192.268C283.861 191.2 270.394 187.603 252.695 178.869" stroke="#120071" stroke-width="0.769171" stroke-linecap="round" stroke-linejoin="round" />
  <path d="M250.384 182.945C258.787 168.058 263.058 159.921 271.789 147.876C273.335 145.743 253.868 131.995 252.303 134.121C240.57 149.994 223.743 174.935 223.812 186.776" stroke="#120071" stroke-width="0.769171" stroke-linecap="round" stroke-linejoin="round" />
  <path d="M261.428 210.266C267.362 212.835 273.548 214.776 279.886 216.055" stroke="#120071" stroke-width="0.769171" stroke-linecap="round" stroke-linejoin="round" />
  <path d="M277.904 233.789C278.268 223.732 279.856 214.303 281.808 209.34" stroke="#120071" stroke-width="0.769171" stroke-linecap="round" stroke-linejoin="round" />
  <path d="M314.991 223.764L319.49 241.265" stroke="#120071" stroke-width="0.769171" stroke-linecap="round" stroke-linejoin="round" />
  <path d="M263.617 234.813C262.984 234.586 262.33 234.42 261.665 234.317C251.688 233.199 256.206 231.165 264.277 231.24C268.688 231.364 273.058 232.134 277.246 233.523C278.916 234.178 280.549 234.918 282.142 235.74" stroke="#120071" stroke-width="0.769171" stroke-linecap="round" stroke-linejoin="round" />
  <path d="M277.242 250.826C271.884 248.9 266.341 247.537 260.701 246.757C257.161 246.436 257.065 245.284 260.998 244.375C264.55 243.553 268.172 243.065 271.817 242.919" stroke="#120071" stroke-width="0.769171" stroke-linecap="round" stroke-linejoin="round" />
  <path d="M268.442 243.118C264.538 242.622 258.782 242.791 256.73 242.523C253.223 242.065 253.587 240.931 257.557 240.041C261.427 239.196 265.375 238.764 269.335 238.751" stroke="#120071" stroke-width="0.769171" stroke-linecap="round" stroke-linejoin="round" />
  <path d="M264.935 238.949C261.131 238.252 257.1 238.426 255.043 238.155C251.537 237.697 251.603 236.171 255.606 235.543C259.685 234.897 263.823 234.697 267.946 234.947" stroke="#120071" stroke-width="0.769171" stroke-linecap="round" stroke-linejoin="round" />
  <path d="M267.417 231.439C265.564 229.653 264.174 228.131 265.501 227.337C266.659 226.64 272.217 232.167 275.493 232.961" stroke="#120071" stroke-width="0.769171" stroke-linecap="round" stroke-linejoin="round" />
  <path d="M264.836 120.675C265.329 120.021 266.029 119.555 266.821 119.351C268.643 119.161 270.631 123.158 269.104 127.754C268.28 130.238 266.358 131.03 265.928 126.96" stroke="#120071" stroke-width="0.769171" stroke-linecap="round" stroke-linejoin="round" />
  <path d="M268.538 120.389C270.976 118.688 273.798 122.411 272.381 127.485C271.685 129.933 270.13 130.17 269.369 126.828" stroke="#120071" stroke-width="0.769171" stroke-linecap="round" stroke-linejoin="round" />
  <path d="M254.315 134.206C256.792 130.786 258.839 127.075 260.41 123.156C261.145 121.637 262.064 120.312 263.52 120.178C265.306 120.015 267.06 123.255 265.703 127.721C265.141 129.574 262.659 128.813 262.917 123.917" stroke="#120071" stroke-width="0.769171" stroke-linecap="round" stroke-linejoin="round" />
  <path d="M270.857 145.785C274.331 140.889 283.569 128.411 282.768 127.887C281.747 127.218 275.125 131.559 275.125 131.559C275.125 131.559 268.111 131.46 267.88 135.926" stroke="#120071" stroke-width="0.769171" stroke-linecap="round" stroke-linejoin="round" />
  <path d="M275.268 131.467C279.426 120.857 278.925 110.685 278.103 112.271C276.562 115.231 273.898 123.605 272.381 127.484" stroke="#120071" stroke-width="0.769171" stroke-linecap="round" stroke-linejoin="round" />
  <path d="M261.031 125.736C261.723 125.66 262.419 125.809 263.017 126.166" stroke="#120071" stroke-width="0.769171" stroke-linecap="round" stroke-linejoin="round" />
  <path d="M250.511 308.128C250.603 308.353 250.64 308.598 250.619 308.841C250.598 309.084 250.52 309.318 250.391 309.525C250.262 309.732 250.085 309.905 249.876 310.03C249.667 310.155 249.431 310.229 249.188 310.245C239.977 311.858 230.58 312.103 221.298 310.973C220.983 310.993 220.669 310.915 220.399 310.75C220.13 310.585 219.918 310.34 219.794 310.05C219.67 309.759 219.64 309.436 219.708 309.127C219.776 308.819 219.939 308.538 220.173 308.326L242.113 291.354C242.382 291.105 242.731 290.963 243.098 290.952C243.464 290.942 243.821 291.065 244.103 291.298C244.29 291.454 244.436 291.652 244.528 291.877L246.555 296.794C242.045 300.269 237.312 303.445 232.386 306.301C237.831 304.948 243.121 303.03 248.167 300.578L250.511 308.128Z" stroke="#120071" stroke-width="0.769171" stroke-linecap="round" stroke-linejoin="round" />
  <path d="M307.148 124.38C300.399 114.587 308.174 101.744 320.944 101.883C329.844 101.979 336.99 108.632 336.924 116.771C336.858 124.909 329.546 131.397 320.647 131.328C317.325 131.313 314.081 130.324 311.317 128.482L304.502 131.129L307.148 124.38Z" stroke="#120071" stroke-width="0.769171" stroke-linecap="round" stroke-linejoin="round" />
  <path d="M314.329 116.573C314.328 117.073 314.13 117.552 313.777 117.907C313.603 118.082 313.395 118.221 313.166 118.316C312.937 118.411 312.691 118.459 312.444 118.459C311.946 118.451 311.471 118.25 311.119 117.898C310.767 117.546 310.565 117.071 310.558 116.573C310.559 116.073 310.758 115.594 311.11 115.239C311.285 115.064 311.493 114.925 311.722 114.83C311.951 114.736 312.196 114.687 312.444 114.687C312.941 114.695 313.417 114.896 313.769 115.248C314.121 115.6 314.322 116.075 314.329 116.573Z" stroke="#120071" stroke-width="0.769171" stroke-linecap="round" stroke-linejoin="round" />
  <path d="M322.601 116.573C322.599 117.073 322.401 117.552 322.049 117.907C321.874 118.082 321.666 118.221 321.437 118.316C321.208 118.411 320.963 118.459 320.715 118.459C320.217 118.451 319.742 118.25 319.39 117.898C319.038 117.546 318.837 117.071 318.829 116.573C318.83 116.073 319.029 115.594 319.381 115.239C319.556 115.064 319.764 114.925 319.993 114.83C320.222 114.736 320.467 114.687 320.715 114.687C321.213 114.695 321.688 114.896 322.04 115.248C322.392 115.6 322.593 116.075 322.601 116.573Z" stroke="#120071" stroke-width="0.769171" stroke-linecap="round" stroke-linejoin="round" />
  <path d="M330.871 116.573C330.871 116.946 330.761 117.31 330.553 117.62C330.346 117.931 330.052 118.172 329.707 118.315C329.362 118.458 328.983 118.495 328.617 118.422C328.252 118.35 327.916 118.17 327.652 117.906C327.388 117.642 327.209 117.306 327.136 116.941C327.063 116.575 327.1 116.196 327.243 115.851C327.386 115.507 327.628 115.212 327.938 115.005C328.248 114.798 328.612 114.687 328.985 114.687C329.483 114.695 329.958 114.896 330.31 115.248C330.662 115.6 330.864 116.075 330.871 116.573Z" stroke="#120071" stroke-width="0.769171" stroke-linecap="round" stroke-linejoin="round" />
  <path d="M196.518 73.9604C196.551 71.6115 197.444 69.8911 200.455 65.9872C201.883 64.3679 202.962 62.4699 203.628 60.4152C203.944 59.4319 204.029 58.389 203.877 57.3674C203.725 56.3458 203.339 55.373 202.75 54.5246C202.162 53.6752 201.387 52.9726 200.484 52.471C199.581 51.9695 198.575 51.6825 197.544 51.6324C196.092 51.5509 194.655 51.9551 193.459 52.7812C192.262 53.6073 191.375 54.8082 190.937 56.1944C190.647 57.1145 190.565 58.0873 190.695 59.0431" stroke="#120071" stroke-width="0.769171" stroke-linecap="round" stroke-linejoin="round" />
  <path d="M296.1 192.4C292.97 174.101 284.97 156.982 272.942 142.841" stroke="#120071" stroke-width="0.769171" stroke-linecap="round" stroke-linejoin="round" />
  <path d="M110.865 272.097C120.9 285.484 134.024 296.244 149.118 303.463C164.211 310.681 180.826 314.142 197.546 313.551C214.266 312.961 230.595 308.336 245.141 300.069C259.687 291.802 272.017 280.14 281.08 266.076" stroke="#120071" stroke-width="0.769171" stroke-linecap="round" stroke-linejoin="round" />
  <path d="M105.538 264.325C105.902 264.92 106.265 265.516 106.662 266.078" stroke="#120071" stroke-width="0.769171" stroke-linecap="round" stroke-linejoin="round" />
  <path d="M101.368 256.881C102.064 258.237 102.761 259.561 103.52 260.886" stroke="#120071" stroke-width="0.769171" stroke-linecap="round" stroke-linejoin="round" />
  <path d="M95.5867 243.084C96.3476 245.367 97.2078 247.612 98.1341 249.834" stroke="#120071" stroke-width="0.769171" stroke-linecap="round" stroke-linejoin="round" />
  <path d="M257.974 128.373C237.157 112.019 210.876 104.242 184.513 106.633C158.149 109.025 133.697 121.405 116.163 141.237C104.551 154.37 96.4569 170.23 92.635 187.338" stroke="#120071" stroke-width="0.769171" stroke-linecap="round" stroke-linejoin="round" />
  <path d="M138.919 194.881C137.363 195.404 131.886 195.122 128.266 196.602C122.146 199.116 117.448 201.763 109.774 205.402" stroke="#120071" stroke-width="0.769171" stroke-linecap="round" stroke-linejoin="round" />
  <path d="M135.545 195.278L133.659 201.73L143.584 196.966L149.142 205.501L154.436 199.381" stroke="#120071" stroke-width="0.769171" stroke-linecap="round" stroke-linejoin="round" />
  <path d="M143.584 196.965C136.074 211.721 131.806 222.704 138.82 247.683" stroke="#120071" stroke-width="0.769171" stroke-linecap="round" stroke-linejoin="round" />
  <path d="M124.362 248.312C122.245 248.312 122.245 265.912 124.362 265.912" stroke="#120071" stroke-width="0.769171" stroke-linecap="round" stroke-linejoin="round" />
  <path d="M266.391 265.946L281.808 260.818" stroke="#120071" stroke-width="0.769171" stroke-linecap="round" stroke-linejoin="round" />
  <path d="M281.808 260.818C280.903 259.158 280.245 257.375 279.856 255.524" stroke="#120071" stroke-width="0.769171" stroke-linecap="round" stroke-linejoin="round" />
  <path d="M281.808 260.818L300.434 261.81" stroke="#120071" stroke-width="0.769171" stroke-linecap="round" stroke-linejoin="round" />
  <path d="M297.721 192.103L295.968 198.984L304.239 193.988L309.4 202.259L312.708 194.187" stroke="#120071" stroke-width="0.769171" stroke-linecap="round" stroke-linejoin="round" />
  <path d="M312.708 194.187C307.216 195.115 302.816 194.187 299.508 191.401" stroke="#120071" stroke-width="0.769171" stroke-linecap="round" stroke-linejoin="round" />
  <path d="M290.046 192.136C287.102 203.88 314.561 209.339 321.244 199.944" stroke="#120071" stroke-width="0.769171" stroke-linecap="round" stroke-linejoin="round" />
  <path d="M287.473 191.639C283.436 206.725 315.495 213.706 323.633 201.233" stroke="#120071" stroke-width="0.769171" stroke-linecap="round" stroke-linejoin="round" />
  <path d="M298.442 206.064C295.209 215.38 293.489 225.153 293.347 235.013" stroke="#120071" stroke-width="0.769171" stroke-linecap="round" stroke-linejoin="round" />
  <path d="M298.442 236.237C295.067 235.31 288.583 258.699 291.958 259.627" stroke="#120071" stroke-width="0.769171" stroke-linecap="round" stroke-linejoin="round" />
  <path d="M243.133 146.778C244.588 144.627 264.77 158.192 263.314 160.342" stroke="#120071" stroke-width="0.769171" stroke-linecap="round" stroke-linejoin="round" />
  <path d="M118.308 224.823L124.329 213.144" stroke="#120071" stroke-width="0.769171" stroke-linecap="round" stroke-linejoin="round" />
  <path d="M270.229 213.54L281.808 209.339" stroke="#120071" stroke-width="0.769171" stroke-linecap="round" stroke-linejoin="round" />
  <path d="M103.751 187.438H101.469C103.065 187.438 104.597 188.072 105.726 189.202C106.855 190.331 107.49 191.862 107.49 193.459V237.064C107.49 237.854 107.334 238.637 107.032 239.368C106.729 240.099 106.286 240.763 105.727 241.322C105.168 241.881 104.504 242.324 103.773 242.627C103.042 242.93 102.259 243.085 101.469 243.085H103.751C104.542 243.085 105.325 242.93 106.056 242.627C106.787 242.325 107.451 241.882 108.01 241.322C108.569 240.763 109.013 240.099 109.315 239.368C109.618 238.638 109.773 237.854 109.773 237.064V193.459C109.773 191.862 109.138 190.331 108.009 189.202C106.88 188.072 105.348 187.438 103.751 187.438Z" stroke="#120071" stroke-width="0.769171" stroke-linejoin="round" />
  <path d="M89.8892 266.078H78.9403L76.4329 243.084H78.6826L80.5979 261.542C80.6718 262.252 81.0074 262.91 81.5394 263.387C82.0714 263.864 82.7617 264.126 83.4762 264.122H87.9425C88.4584 264.129 88.9511 264.337 89.3151 264.703C89.6791 265.068 89.8852 265.562 89.8892 266.078Z" stroke="#120071" stroke-width="0.769171" stroke-linejoin="round" />
  <path d="M242.075 266.078H231.124L228.618 243.084H230.868L232.783 261.542C232.858 262.252 233.193 262.91 233.725 263.387C234.257 263.864 234.947 264.126 235.662 264.122H240.128C240.643 264.13 241.135 264.339 241.499 264.704C241.863 265.069 242.069 265.562 242.075 266.078Z" stroke="#120071" stroke-width="0.769171" stroke-linejoin="round" />
  <path d="M253.692 243.085C255.229 243.227 256.78 243.074 258.259 242.634" stroke="#120071" stroke-width="0.769171" stroke-linecap="round" stroke-linejoin="round" />
  <path d="M259.675 193.459V231.473C260.371 231.373 261.13 231.34 261.958 231.274V193.459C261.958 192.668 261.803 191.885 261.5 191.155C261.198 190.424 260.754 189.76 260.195 189.201C259.636 188.641 258.972 188.198 258.241 187.895C257.51 187.593 256.727 187.438 255.936 187.438H253.654C254.445 187.435 255.229 187.589 255.961 187.891C256.693 188.192 257.358 188.636 257.917 189.195C258.477 189.755 258.92 190.42 259.222 191.152C259.524 191.884 259.678 192.668 259.675 193.459Z" stroke="#120071" stroke-width="0.769171" stroke-linejoin="round" />
  <path d="M303.709 185.226C304.579 185.2 305.443 185.087 306.29 184.89L302.525 188.623" stroke="#120071" stroke-width="0.769171" stroke-linecap="round" stroke-linejoin="round" />
  <path d="M198.437 81.8343C198.43 82.3294 198.229 82.8019 197.875 83.1489C197.522 83.4959 197.046 83.6893 196.551 83.687C196.305 83.6901 196.061 83.6446 195.833 83.5532C195.605 83.4618 195.397 83.3261 195.221 83.1542C195.045 82.9825 194.905 82.7772 194.809 82.5505C194.714 82.3238 194.665 82.0803 194.665 81.8343C194.672 81.3392 194.874 80.8667 195.227 80.5197C195.58 80.1727 196.056 79.9793 196.551 79.9816C196.797 79.9785 197.041 80.024 197.269 80.1154C197.498 80.2068 197.706 80.3424 197.881 80.5144C198.057 80.6866 198.196 80.892 198.292 81.1186C198.387 81.3452 198.436 81.5885 198.437 81.8343Z" stroke="#120071" stroke-width="0.769171" stroke-linejoin="round" />
  <path d="M259.046 239.742C259.254 239.314 259.407 238.865 259.506 238.4" stroke="#120071" stroke-width="0.769171" stroke-linecap="round" stroke-linejoin="round" />
  <path d="M142.029 189.039C143.147 188.648 144.24 188.19 145.304 187.666C144.355 189.427 143.088 190.998 141.566 192.297" stroke="#120071" stroke-width="0.769171" stroke-linecap="round" stroke-linejoin="round" />
  <path d="M283.661 310.575V316.179" stroke="#120071" stroke-width="0.769171" stroke-linecap="round" stroke-linejoin="round" />
  <path d="M294.563 321.478H288.959" stroke="#120071" stroke-width="0.769171" stroke-linecap="round" stroke-linejoin="round" />
  <path d="M283.661 332.378V326.776" stroke="#120071" stroke-width="0.769171" stroke-linecap="round" stroke-linejoin="round" />
  <path d="M272.76 321.478H278.366" stroke="#120071" stroke-width="0.769171" stroke-linecap="round" stroke-linejoin="round" />
  <path d="M288.96 321.478C287.911 321.481 286.885 321.172 286.013 320.589C285.141 320.007 284.462 319.178 284.063 318.208C283.797 317.565 283.66 316.875 283.661 316.179C283.663 316.875 283.528 317.565 283.262 318.208C282.996 318.851 282.606 319.435 282.113 319.926C281.119 320.92 279.771 321.478 278.366 321.478C279.771 321.477 281.119 322.035 282.113 323.028C282.606 323.519 282.997 324.104 283.262 324.747C283.528 325.39 283.663 326.08 283.661 326.776C283.66 326.08 283.797 325.391 284.063 324.748C284.329 324.105 284.72 323.521 285.212 323.029C285.704 322.537 286.288 322.146 286.931 321.88C287.574 321.614 288.264 321.477 288.96 321.478Z" stroke="#120071" stroke-width="0.769171" stroke-linecap="round" stroke-linejoin="round" />
  <path d="M184.343 171.657C185.368 171.081 186.197 170.212 186.725 169.161C187.252 168.111 187.454 166.927 187.304 165.761C187.155 164.595 186.66 163.501 185.885 162.618C185.109 161.735 184.087 161.104 182.95 160.805C182.419 160.676 181.875 160.609 181.329 160.607C182.143 159.588 182.596 158.328 182.619 157.025C182.642 155.721 182.233 154.446 181.456 153.399C180.679 152.352 179.577 151.592 178.323 151.236C177.069 150.881 175.732 150.95 174.521 151.434C174.981 150.156 174.986 148.759 174.536 147.478C174.085 146.197 173.206 145.111 172.047 144.404C170.889 143.696 169.521 143.41 168.176 143.593C166.831 143.777 165.59 144.42 164.664 145.412C164.772 144.03 164.39 142.653 163.584 141.524C162.778 140.396 161.601 139.587 160.258 139.24L159.861 139.14C158.475 138.779 157.004 138.936 155.725 139.582C154.446 140.227 153.446 141.317 152.914 142.647C152.538 141.341 151.721 140.204 150.603 139.43C149.485 138.657 148.134 138.294 146.778 138.403C145.423 138.512 144.147 139.086 143.167 140.029C142.187 140.971 141.563 142.224 141.4 143.574C140.691 142.773 139.777 142.181 138.756 141.861C137.736 141.54 136.647 141.504 135.607 141.755C134.567 142.006 133.616 142.535 132.854 143.286C132.092 144.037 131.548 144.981 131.282 146.017C131.063 146.894 131.04 147.809 131.216 148.696C130.244 148.164 129.142 147.918 128.036 147.986C126.93 148.055 125.866 148.434 124.967 149.082C124.069 149.729 123.371 150.618 122.956 151.645C122.541 152.673 122.426 153.796 122.623 154.887C122.764 155.714 123.076 156.501 123.54 157.199C122.169 156.924 120.745 157.147 119.523 157.827C118.301 158.506 117.361 159.599 116.872 160.909C116.382 162.219 116.375 163.66 116.851 164.975C117.327 166.289 118.256 167.391 119.471 168.084C118.076 168.166 116.755 168.742 115.745 169.708C114.734 170.673 114.099 171.966 113.953 173.356C113.807 174.747 114.158 176.143 114.946 177.298C115.733 178.453 116.905 179.291 118.252 179.663C117.237 180.25 116.418 181.125 115.901 182.178C115.384 183.231 115.191 184.413 115.347 185.576C115.503 186.739 116 187.829 116.777 188.708C117.553 189.587 118.574 190.216 119.708 190.514C120.25 190.643 120.805 190.709 121.362 190.713C120.623 191.654 120.186 192.797 120.11 193.992C120.033 195.186 120.32 196.376 120.932 197.404C121.338 198.087 121.879 198.679 122.52 199.149C124.413 198.242 126.332 197.392 128.277 196.602C131.784 195.179 136.983 195.383 138.724 194.948C139.365 194.763 139.953 194.431 140.442 193.977C140.93 193.523 141.305 192.961 141.536 192.336C143.088 191.035 144.379 189.452 145.341 187.671C136.751 191.834 132.781 189.959 133.857 182.146C133.746 182.123 131.172 181.543 132.306 175.298C132.435 174.13 132.892 173.022 133.624 172.103C134.355 171.184 135.332 170.491 136.441 170.103C138.531 166.861 141.966 164.479 145.44 165.339C147.29 165.728 148.954 166.731 150.161 168.185C151.368 169.639 152.048 171.459 152.09 173.349L154.005 173.812C155.825 174.242 156.617 177.385 155.792 180.76C154.965 184.167 152.814 186.551 150.995 186.119L147.885 185.383C147.422 192.033 148.017 197.789 158.174 200.767C161.447 201.726 164.691 204.241 167.04 209.402C168.479 209.007 169.715 208.08 170.495 206.808C171.275 205.536 171.542 204.015 171.242 202.553C172.401 203.188 173.74 203.415 175.043 203.196C176.346 202.977 177.538 202.327 178.426 201.348C179.316 200.372 179.851 199.124 179.945 197.807C180.04 196.489 179.689 195.178 178.949 194.084C179.972 194.292 181.033 194.224 182.021 193.888C183.01 193.552 183.892 192.959 184.577 192.171C185.261 191.382 185.724 190.426 185.918 189.4C186.112 188.373 186.03 187.314 185.68 186.33C185.214 185.012 184.294 183.903 183.086 183.199C184.479 183.123 185.8 182.554 186.812 181.595C187.825 180.635 188.464 179.347 188.615 177.96C188.766 176.573 188.419 175.177 187.637 174.022C186.854 172.867 185.687 172.027 184.343 171.653V171.657Z" stroke="#120071" stroke-width="0.769171" stroke-linejoin="round" />
</svg>