<svg width="384" height="384" viewBox="0 0 384 384" fill="none" xmlns="http://www.w3.org/2000/svg">
  <rect width="384" height="384" rx="70" fill="white" />
  <path d="M143.036 295.682L115.511 308.353C116.238 307.989 145.749 289.398 145.749 289.398C145.749 282.546 141.076 272.706 133.376 271.367L137.247 266.074C133.06 260.152 126.864 255.954 119.811 254.261L103.336 275.106C101.2 267.819 96.8955 261.356 90.9955 256.577C87.004 255.535 83.1421 254.049 79.4824 252.146C77.9152 258.383 76.0434 263.06 75.6516 268.026C74.9551 276.666 75.1066 295.189 78.0336 302.502C77.372 305.182 69.895 337.141 96.6267 337.174H143.83C147.212 323.565 146.244 309.272 143.036 295.682Z" fill="#30DDD4" />
  <path d="M234.182 131.523H158.156V91.5557H234.182V131.523Z" fill="#30DDD4" />
  <path d="M218.566 168.078H173.543C172.323 168.078 171.153 168.563 170.291 169.425C169.429 170.287 168.944 171.457 168.944 172.677C168.944 173.896 169.429 175.066 170.291 175.929C171.153 176.791 172.323 177.275 173.543 177.275H218.57C219.789 177.275 220.959 176.791 221.821 175.929C222.684 175.066 223.168 173.896 223.168 172.677C223.168 171.457 222.684 170.287 221.821 169.425C220.959 168.563 219.789 168.078 218.57 168.078H218.566Z" fill="#30DDD4" />
  <path d="M97.1158 193.69H69.9871C69.383 193.69 68.7848 193.572 68.2267 193.341C67.6686 193.11 67.1614 192.771 66.7343 192.344C66.3072 191.917 65.9685 191.41 65.7375 190.852C65.5066 190.294 65.388 189.695 65.3884 189.091C65.3882 188.487 65.507 187.889 65.738 187.331C65.969 186.773 66.3078 186.266 66.7348 185.839C67.1619 185.412 67.6689 185.073 68.227 184.842C68.785 184.611 69.3831 184.492 69.9871 184.493H97.1158C98.3354 184.493 99.5051 184.977 100.367 185.84C101.23 186.702 101.714 187.872 101.714 189.091C101.714 190.311 101.23 191.481 100.367 192.343C99.5051 193.205 98.3354 193.69 97.1158 193.69Z" fill="#30DDD4" />
  <path d="M304.783 164.97H278.415C277.494 164.952 276.589 165.21 275.817 165.713C275.045 166.215 274.442 166.938 274.086 167.788C273.789 168.493 273.673 169.262 273.749 170.024C273.825 170.786 274.09 171.517 274.52 172.151C274.95 172.785 275.531 173.301 276.212 173.653C276.892 174.005 277.649 174.181 278.415 174.166H304.783C305.703 174.184 306.609 173.925 307.38 173.423C308.152 172.921 308.755 172.198 309.111 171.348C309.408 170.642 309.524 169.874 309.448 169.111C309.373 168.349 309.108 167.618 308.678 166.985C308.248 166.351 307.666 165.835 306.986 165.483C306.306 165.131 305.548 164.955 304.783 164.97Z" fill="#30DDD4" />
  <path d="M82.7905 245.263L87.4553 248.968C87.4553 248.174 87.5215 247.38 87.5546 246.522C85.9104 246.354 84.3027 245.93 82.7905 245.263Z" fill="#6153BD" />
  <path d="M61.3853 232.76C60.7898 234.81 57.9028 246.556 67.605 252.708C66.6787 253.105 62.0801 256.349 61.6848 256.647C57.5298 259.718 53.9063 263.45 50.9587 267.693C44.9044 276.791 44.1765 290.422 53.4731 297.669C59.6266 302.431 70.8089 302.83 76.6648 297.147C75.2873 287.518 74.9545 277.768 75.6723 268.068C76.0693 262.971 77.922 258.606 79.0468 253.906C81.5942 243.377 79.9087 240.627 77.558 234.752C73.0917 233.662 74.6797 228.369 77.7565 230.154C78.1884 230.436 78.6724 230.627 79.1791 230.718C80.8664 222.116 84.1417 221.489 87.1192 224.265C82.8636 218.677 65.4981 218.708 61.3853 232.76Z" fill="#6153BD" />
  <path d="M141.878 291.778C118.786 306.476 116.93 307.612 115.444 308.353L142.97 295.682L141.878 291.778Z" fill="#6153BD" />
  <path d="M239.641 334.358C233.785 329.395 225.188 323.374 217.508 321.124C210.547 323.126 203.163 323.126 196.202 321.124C194.84 325.005 193.973 329.041 193.621 333.139C193.56 333.875 193.731 334.612 194.11 335.247C194.489 335.881 195.058 336.381 195.735 336.677C196.184 336.872 196.67 336.971 197.161 336.969C210.494 337.002 222.073 337.144 238.615 337.17C238.942 337.171 239.262 337.071 239.53 336.883C239.798 336.696 240.002 336.431 240.115 336.123C240.227 335.816 240.241 335.482 240.157 335.166C240.072 334.85 239.892 334.567 239.641 334.358Z" fill="#6153BD" />
  <path d="M279.573 294.425C279.55 294.109 279.428 293.808 279.224 293.565C279.021 293.321 278.746 293.148 278.439 293.069C278.133 292.988 277.808 293.005 277.512 293.118C277.216 293.23 276.962 293.433 276.787 293.697C271.824 299.555 265.803 313.45 263.553 321.124C265.469 328.47 265.604 330.288 263.586 337.171H279.432C280.804 337.302 282.023 308.091 279.573 294.425Z" fill="#6153BD" />
  <path d="M106.082 98.9996C106.082 100.184 105.611 101.32 104.774 102.157C103.936 102.995 102.8 103.465 101.616 103.465C100.432 103.465 99.296 102.995 98.4585 102.157C97.6211 101.32 97.1506 100.184 97.1506 98.9996C97.1506 97.8153 97.6211 96.6795 98.4585 95.8421C99.296 95.0046 100.432 94.5342 101.616 94.5342C102.8 94.5342 103.936 95.0046 104.774 95.8421C105.611 96.6795 106.082 97.8153 106.082 98.9996Z" fill="#6153BD" />
  <path d="M158.949 311.002L146.741 319.24C149.248 316.542 151.57 313.68 153.692 310.671C153.656 310.702 155.674 310.768 158.949 311.002Z" fill="#6153BD" />
  <path d="M91.6902 244.767C96.5977 248.289 102.489 250.177 108.53 250.164H129.077" stroke="#120071" stroke-width="0.769171" stroke-linecap="round" stroke-linejoin="round" />
  <path d="M144.889 250.159H138.305" stroke="#120071" stroke-width="0.769171" stroke-linecap="round" stroke-linejoin="round" />
  <path d="M146.113 250.161H283.808C287.605 250.162 291.366 249.415 294.875 247.963C298.383 246.51 301.571 244.38 304.257 241.695C306.942 239.009 309.072 235.821 310.525 232.313C311.977 228.804 312.724 225.043 312.723 221.246V213.039" stroke="#120071" stroke-width="0.769171" stroke-linecap="round" stroke-linejoin="round" />
  <path d="M312.723 157.458V108.792C312.725 104.994 311.978 101.233 310.526 97.7243C309.074 94.2154 306.944 91.0271 304.258 88.3418C301.573 85.6565 298.384 83.5268 294.875 82.0746C291.366 80.6224 287.605 79.8761 283.808 79.8784H108.53C104.733 79.8771 100.972 80.624 97.4634 82.0765C93.9547 83.529 90.7666 85.6587 88.0814 88.3438C85.3961 91.0289 83.2662 94.2168 81.8135 97.7254C80.3607 101.234 79.6136 104.994 79.6147 108.792V157.46" stroke="#120071" stroke-width="0.769171" stroke-linecap="round" stroke-linejoin="round" />
  <path d="M79.6147 220.946V213.039" stroke="#120071" stroke-width="0.769171" stroke-linecap="round" stroke-linejoin="round" />
  <path d="M78.0265 302.499C77.3999 300.736 76.9337 298.919 76.6335 297.072" stroke="#120071" stroke-width="0.769171" stroke-linecap="round" stroke-linejoin="round" />
  <path d="M81.6051 256.18C84.0846 256.945 86.505 257.885 88.8504 258.992C91.4382 260.314 93.5634 262.391 94.9448 264.947C99.262 272.931 103.977 280.694 109.072 288.205L133.322 271.333C137.921 272.128 141.342 275.842 143.28 279.903C144.764 282.843 145.588 286.072 145.695 289.363C143.89 290.528 121.034 305.048 117.673 307.098C106.315 314.024 97.4644 311.642 91.0078 299.985C89.9822 298.132 80.3218 282.55 80.3218 282.55" stroke="#120071" stroke-width="0.769171" stroke-linecap="round" stroke-linejoin="round" />
  <path d="M87.4556 248.968L82.7908 245.263C84.3143 245.93 85.933 246.354 87.5879 246.52" stroke="#120071" stroke-width="0.769171" stroke-linecap="round" stroke-linejoin="round" />
  <path d="M105.552 282.881C104.48 278.341 103.019 273.903 101.185 269.614C96.7451 260.021 90.3164 256.527 88.6796 254.429C87.62 252.818 87.1865 250.876 87.4607 248.968L87.5931 246.52C88.3729 246.585 89.1569 246.459 89.8774 246.154C90.5978 245.848 91.2332 245.372 91.7285 244.766C95.2563 240.284 91.5631 228.423 87.1299 224.254" stroke="#120071" stroke-width="0.769171" stroke-linecap="round" stroke-linejoin="round" />
  <path d="M87.1246 224.255C84.1471 221.469 80.8718 222.106 79.1845 230.708C78.6771 230.617 78.1932 230.425 77.7619 230.143C74.6834 228.36 73.0971 233.65 77.5634 234.742C78.541 236.656 79.2852 238.679 79.78 240.77C80.6799 245.137 80.4291 249.662 79.0522 253.903C77.9221 258.604 76.092 262.97 75.6776 268.064C74.966 277.765 75.2987 287.514 76.6701 297.143C70.8143 302.834 59.625 302.447 53.4784 297.666C44.168 290.438 44.8976 276.785 50.9588 267.694C53.8921 263.44 57.515 259.706 61.678 256.645C62.0732 256.344 66.6736 253.104 67.5982 252.707C57.9047 246.553 60.7812 234.808 61.3785 232.759C64.1471 223.26 72.8899 220.244 79.6076 220.88C82.4601 220.97 85.1616 222.183 87.1246 224.255Z" stroke="#120071" stroke-width="0.769171" stroke-linecap="round" stroke-linejoin="round" />
  <path d="M145.97 319.971C150.167 316.248 158.46 303.986 161.497 299.25C167.668 307.559 180.982 313.048 196.136 321.117" stroke="#120071" stroke-width="0.769171" stroke-linecap="round" stroke-linejoin="round" />
  <path d="M217.508 321.156C206.055 316.086 180.006 285.722 173.539 278.48C170.549 275.138 166.491 272.939 162.059 272.258" stroke="#120071" stroke-width="0.769171" stroke-linecap="round" stroke-linejoin="round" />
  <path d="M142.94 295.696L115.444 308.353" stroke="#120071" stroke-width="0.769171" stroke-linecap="round" stroke-linejoin="round" />
  <path d="M141.911 291.778C146.09 306.717 147.574 322.121 143.827 337.171H96.6197C68.697 337.171 78.0597 302.332 78.0597 302.332C82.7663 302.722 87.5008 302.621 92.1865 302.034" stroke="#120071" stroke-width="0.769171" stroke-linecap="round" stroke-linejoin="round" />
  <path d="M217.508 321.124C225.183 323.374 233.757 329.428 239.641 334.358C239.892 334.568 240.073 334.85 240.159 335.167C240.245 335.483 240.231 335.818 240.119 336.127C240.008 336.435 239.803 336.701 239.533 336.888C239.264 337.076 238.943 337.174 238.615 337.171C222.073 337.154 210.494 336.997 197.161 336.971C196.422 336.976 195.7 336.748 195.097 336.319C194.495 335.891 194.042 335.284 193.804 334.584C193.643 334.121 193.581 333.629 193.621 333.14C193.985 329.045 194.852 325.01 196.202 321.126C203.163 323.128 210.547 323.127 217.508 321.124Z" stroke="#120071" stroke-width="0.769171" stroke-linecap="round" stroke-linejoin="round" />
  <path d="M263.565 321.123C265.815 313.448 271.869 299.581 276.799 293.697C276.975 293.434 277.229 293.233 277.525 293.122C277.821 293.009 278.144 292.991 278.451 293.071C278.757 293.151 279.031 293.324 279.233 293.568C279.436 293.81 279.559 294.11 279.585 294.425C282.051 308.087 280.804 337.303 279.453 337.171H263.607C265.611 330.289 265.481 328.468 263.565 321.123Z" stroke="#120071" stroke-width="0.769171" stroke-linecap="round" stroke-linejoin="round" />
  <path d="M263.566 321.124C243.881 322.282 224.758 319.569 211.525 317.293" stroke="#120071" stroke-width="0.769171" stroke-linecap="round" stroke-linejoin="round" />
  <path d="M153.788 269.182C158.519 267.993 162.437 270.041 162.159 271.862C162.099 272.231 161.96 272.583 161.749 272.892C161.538 273.2 161.262 273.459 160.94 273.649" stroke="#120071" stroke-width="0.769171" stroke-linecap="round" stroke-linejoin="round" />
  <path d="M153.292 266.303C158.255 265.046 163.283 267.461 161.166 270.108" stroke="#120071" stroke-width="0.769171" stroke-linecap="round" stroke-linejoin="round" />
  <path d="M145.253 285.657C148.365 281.444 152.625 278.216 157.523 276.361" stroke="#120071" stroke-width="0.769171" stroke-linecap="round" stroke-linejoin="round" />
  <path d="M153.656 272.59C158.255 271.597 161.331 273.318 161.166 275.137C160.967 277.321 156.639 280.73 152.895 278.677" stroke="#120071" stroke-width="0.769171" stroke-linecap="round" stroke-linejoin="round" />
  <path d="M136.353 272.258C138.471 270.075 149.959 260.308 150.745 261.076C151.615 261.928 149.653 264.684 149.653 264.684" stroke="#120071" stroke-width="0.769171" stroke-linecap="round" stroke-linejoin="round" />
  <path d="M136.353 272.259C140.014 269.258 144.122 266.849 148.528 265.119C153.965 262.995 159.288 260.588 164.474 257.909C166.042 256.986 163.879 261.846 155.674 265.947" stroke="#120071" stroke-width="0.769171" stroke-linecap="round" stroke-linejoin="round" />
  <path d="M234.182 115.012H312.723" stroke="#120071" stroke-width="0.769171" stroke-linecap="round" stroke-linejoin="round" />
  <path d="M79.6147 115.012H158.156" stroke="#120071" stroke-width="0.769171" stroke-linecap="round" stroke-linejoin="round" />
  <path d="M106.082 98.9996C106.082 100.184 105.611 101.32 104.774 102.157C103.936 102.995 102.801 103.465 101.616 103.465C100.432 103.465 99.2962 102.995 98.4588 102.157C97.6213 101.32 97.1509 100.184 97.1509 98.9996C97.1509 97.8153 97.6213 96.6795 98.4588 95.8421C99.2962 95.0046 100.432 94.5342 101.616 94.5342C102.801 94.5342 103.936 95.0046 104.774 95.8421C105.611 96.6795 106.082 97.8153 106.082 98.9996Z" stroke="#120071" stroke-width="0.769171" stroke-linecap="round" stroke-linejoin="round" />
  <path d="M119.613 98.9996C119.613 100.184 119.142 101.32 118.305 102.157C117.467 102.995 116.332 103.465 115.147 103.465C113.963 103.465 112.827 102.995 111.99 102.157C111.152 101.32 110.682 100.184 110.682 98.9996C110.682 97.8153 111.152 96.6795 111.99 95.8421C112.827 95.0046 113.963 94.5342 115.147 94.5342C116.332 94.5342 117.467 95.0046 118.305 95.8421C119.142 96.6795 119.613 97.8153 119.613 98.9996Z" stroke="#120071" stroke-width="0.769171" stroke-linecap="round" stroke-linejoin="round" />
  <path d="M133.21 98.9996C133.21 100.184 132.74 101.32 131.902 102.157C131.065 102.995 129.929 103.465 128.745 103.465C127.56 103.465 126.425 102.995 125.587 102.157C124.75 101.32 124.279 100.184 124.279 98.9996C124.279 97.8153 124.75 96.6795 125.587 95.8421C126.425 95.0046 127.56 94.5342 128.745 94.5342C129.929 94.5342 131.065 95.0046 131.902 95.8421C132.74 96.6795 133.21 97.8153 133.21 98.9996Z" stroke="#120071" stroke-width="0.769171" stroke-linecap="round" stroke-linejoin="round" />
  <path d="M103.27 275.073L119.745 254.23C126.807 255.92 133.014 260.117 137.213 266.041L133.31 271.334" stroke="#120071" stroke-width="0.769171" stroke-linecap="round" stroke-linejoin="round" />
  <path d="M137.28 254.559C139.43 245.362 141.244 238.017 141.647 235.768C142.756 229.579 141.124 229.719 138.669 234.941C135.267 242.761 130.25 249.774 123.947 255.519" stroke="#120071" stroke-width="0.769171" stroke-linecap="round" stroke-linejoin="round" />
  <path d="M141.25 237.621C142.943 236.016 144.846 234.647 146.907 233.552C147.504 233.289 148.531 233.655 145.947 236.686C144.231 238.706 141.084 242.781 139.628 244.759" stroke="#120071" stroke-width="0.769171" stroke-linecap="round" stroke-linejoin="round" />
  <path d="M137.743 252.436C139.707 251.919 141.64 251.289 143.532 250.549C145.878 249.779 148.091 248.954 143.201 253.725C140.211 256.698 137.478 259.919 135.03 263.352" stroke="#120071" stroke-width="0.769171" stroke-linecap="round" stroke-linejoin="round" />
  <path d="M216.9 196.863C216.82 196.014 216.454 195.218 215.862 194.605C215.27 193.991 214.487 193.597 213.642 193.487L179.495 188.226C177.741 187.962 176.36 188.923 176.385 190.412L176.715 217.871L154.45 232.586C153.127 233.414 153.888 235.432 155.74 235.961L190.346 245.712C190.801 245.868 191.285 245.917 191.762 245.854C192.238 245.791 192.694 245.618 193.092 245.348L216.895 226.987L216.9 196.863Z" stroke="#120071" stroke-width="0.769171" stroke-linecap="round" stroke-linejoin="round" />
  <path d="M216.895 227L176.715 217.871" stroke="#120071" stroke-width="0.769171" stroke-linecap="round" stroke-linejoin="round" />
  <path d="M212.247 221.872C212.843 222.006 213.423 221.707 213.423 221.176V198.482C213.403 198.207 213.288 197.947 213.097 197.748C212.906 197.549 212.652 197.422 212.378 197.39L181.147 192.428C181.031 192.392 180.908 192.384 180.788 192.403C180.668 192.423 180.554 192.469 180.455 192.54C180.356 192.61 180.275 192.702 180.217 192.809C180.159 192.916 180.126 193.034 180.121 193.156L180.32 213.735C180.349 213.995 180.462 214.238 180.641 214.429C180.82 214.62 181.055 214.748 181.312 214.794L212.247 221.872Z" stroke="#120071" stroke-width="0.769171" stroke-linecap="round" stroke-linejoin="round" />
  <path d="M130.795 213.039H54.7356V157.458H130.795V213.039Z" stroke="#120071" stroke-width="0.769171" stroke-linecap="round" stroke-linejoin="round" />
  <path d="M176.649 213.039H158.156V157.458H234.182V213.039H216.945" stroke="#120071" stroke-width="0.769171" stroke-linecap="round" stroke-linejoin="round" />
  <path d="M337.568 213.039H261.542V157.458H337.568V213.039Z" stroke="#120071" stroke-width="0.769171" stroke-linecap="round" stroke-linejoin="round" />
  <path d="M234.182 131.523H158.156V91.5557H234.182V131.523Z" stroke="#120071" stroke-width="0.769171" stroke-linecap="round" stroke-linejoin="round" />
  <path d="M196.169 131.523V157.459" stroke="#120071" stroke-width="0.769171" stroke-linecap="round" stroke-linejoin="round" />
  <path d="M216.317 131.523V144.49H299.555V157.459" stroke="#120071" stroke-width="0.769171" stroke-linecap="round" stroke-linejoin="round" />
  <path d="M177.344 131.523V144.49H92.782V157.459" stroke="#120071" stroke-width="0.769171" stroke-linecap="round" stroke-linejoin="round" />
  <path d="M189.287 119.015L173.572 111.176L189.089 103.764" stroke="#120071" stroke-width="0.769171" stroke-linecap="round" stroke-linejoin="round" />
  <path d="M203.249 119.081L218.765 111.108L203.05 103.829" stroke="#120071" stroke-width="0.769171" stroke-linecap="round" stroke-linejoin="round" />
  <path d="M201.528 97.2803L190.611 125.797" stroke="#120071" stroke-width="0.769171" stroke-linecap="round" stroke-linejoin="round" />
  <path d="M115.014 177.275C116.234 177.275 117.403 176.791 118.266 175.929C119.128 175.066 119.612 173.897 119.612 172.678C119.612 171.458 119.128 170.289 118.266 169.426C117.403 168.564 116.234 168.08 115.014 168.08H70.0205C69.4037 168.059 68.789 168.163 68.213 168.384C67.637 168.606 67.1115 168.941 66.6678 169.37C66.2241 169.799 65.8713 170.313 65.6303 170.881C65.3893 171.449 65.2651 172.06 65.2651 172.678C65.2651 173.295 65.3893 173.906 65.6303 174.474C65.8713 175.042 66.2241 175.556 66.6678 175.985C67.1115 176.414 67.637 176.749 68.213 176.971C68.789 177.193 69.4037 177.296 70.0205 177.275H115.014Z" stroke="#120071" stroke-width="0.769171" stroke-linecap="round" stroke-linejoin="round" />
  <path d="M218.566 168.078C219.786 168.078 220.956 168.563 221.818 169.425C222.68 170.287 223.165 171.457 223.165 172.677C223.165 173.896 222.68 175.066 221.818 175.929C220.956 176.791 219.786 177.275 218.566 177.275H173.543C172.323 177.275 171.153 176.791 170.291 175.929C169.429 175.066 168.944 173.896 168.944 172.677C168.944 171.457 169.429 170.287 170.291 169.425C171.153 168.563 172.323 168.078 173.543 168.078H218.566Z" stroke="#120071" stroke-width="0.769171" stroke-linecap="round" stroke-linejoin="round" />
  <path d="M97.116 184.493C98.0262 184.497 98.9151 184.769 99.6706 185.277C100.426 185.785 101.015 186.504 101.362 187.346C101.71 188.187 101.801 189.112 101.624 190.005C101.446 190.898 101.009 191.718 100.367 192.363C99.9392 192.788 99.4318 193.124 98.8739 193.351C98.316 193.579 97.7186 193.694 97.116 193.69H70.0204C69.4059 193.707 68.7941 193.601 68.2214 193.377C67.6487 193.154 67.1266 192.818 66.6859 192.389C66.2453 191.96 65.895 191.448 65.6559 190.881C65.4167 190.315 65.2935 189.706 65.2935 189.092C65.2935 188.477 65.4167 187.868 65.6559 187.302C65.895 186.736 66.2453 186.223 66.6859 185.794C67.1266 185.366 67.6487 185.029 68.2214 184.806C68.7941 184.582 69.4059 184.476 70.0204 184.493H97.116Z" stroke="#120071" stroke-width="0.769171" stroke-linecap="round" stroke-linejoin="round" />
  <path d="M304.783 164.97C305.703 164.952 306.609 165.21 307.38 165.713C308.152 166.215 308.755 166.938 309.111 167.788C309.408 168.493 309.524 169.262 309.448 170.024C309.373 170.786 309.108 171.517 308.678 172.151C308.248 172.785 307.666 173.301 306.986 173.653C306.306 174.005 305.548 174.181 304.783 174.166H278.415C277.494 174.184 276.589 173.925 275.817 173.423C275.045 172.921 274.442 172.198 274.086 171.348C273.789 170.642 273.673 169.874 273.749 169.111C273.825 168.349 274.09 167.618 274.52 166.985C274.95 166.351 275.531 165.835 276.212 165.483C276.892 165.131 277.649 164.955 278.415 164.97H304.783Z" stroke="#120071" stroke-width="0.769171" stroke-linecap="round" stroke-linejoin="round" />
  <path d="M317.222 181.377C318.415 181.418 319.546 181.92 320.376 182.778C321.205 183.636 321.669 184.783 321.669 185.977C321.669 187.171 321.205 188.318 320.376 189.176C319.546 190.034 318.415 190.536 317.222 190.576H278.415C277.222 190.536 276.091 190.034 275.261 189.176C274.432 188.318 273.968 187.171 273.968 185.977C273.968 184.783 274.432 183.636 275.261 182.778C276.091 181.92 277.222 181.418 278.415 181.377H317.222Z" stroke="#120071" stroke-width="0.769171" stroke-linecap="round" stroke-linejoin="round" />
  <path d="M173.903 137.278L177.41 131.523L180.685 137.443" stroke="#120071" stroke-width="0.769171" stroke-linecap="round" stroke-linejoin="round" />
  <path d="M192.695 137.278L196.202 131.523L199.444 137.443" stroke="#120071" stroke-width="0.769171" stroke-linecap="round" stroke-linejoin="round" />
  <path d="M212.942 137.278L216.449 131.523L219.691 137.443" stroke="#120071" stroke-width="0.769171" stroke-linecap="round" stroke-linejoin="round" />
  <path d="M332.209 131.885L320.332 143.662" stroke="#120071" stroke-width="0.769171" stroke-linecap="round" stroke-linejoin="round" />
  <path d="M332.176 143.696L320.365 131.855" stroke="#120071" stroke-width="0.769171" stroke-linecap="round" stroke-linejoin="round" />
  <path d="M61.0215 135.755L66.2487 143.133L72.3692 132.447" stroke="#120071" stroke-width="0.769171" stroke-linecap="round" stroke-linejoin="round" />
  <path d="M90.9624 256.579C86.9713 255.535 83.1096 254.047 79.4492 252.144" stroke="#120071" stroke-width="0.769171" stroke-linecap="round" stroke-linejoin="round" />
  <path d="M196.797 49.0756L189.949 51.3253L193.919 54.8984L188.692 60.7542L191.504 63.2686L196.731 57.4127L200.701 60.9527L203.646 46.8259L196.797 49.0756Z" stroke="#120071" stroke-width="0.769171" stroke-linecap="round" stroke-linejoin="round" />
  <path d="M230.047 272.259C230.047 272.737 229.905 273.203 229.64 273.601C229.374 273.998 228.997 274.307 228.556 274.49C228.114 274.673 227.629 274.721 227.16 274.628C226.692 274.534 226.261 274.304 225.924 273.967C225.586 273.629 225.356 273.199 225.263 272.73C225.17 272.262 225.217 271.776 225.4 271.335C225.583 270.893 225.892 270.516 226.29 270.251C226.687 269.985 227.154 269.844 227.631 269.844C228.27 269.847 228.883 270.103 229.334 270.556C229.787 271.007 230.043 271.62 230.047 272.259Z" stroke="#120071" stroke-width="0.769171" stroke-linecap="round" stroke-linejoin="round" />
  <path d="M26.5813 337.169H357.419" stroke="#120071" stroke-width="0.769171" stroke-linecap="round" stroke-linejoin="round" />
  <path d="M158.949 311.001L146.708 319.272" stroke="#120071" stroke-width="0.769171" stroke-linecap="round" stroke-linejoin="round" />
  <path d="M153.656 310.702C163.057 311.137 172.425 312.121 181.711 313.648" stroke="#120071" stroke-width="0.769171" stroke-linecap="round" stroke-linejoin="round" />
  <path d="M161.497 299.257L159.28 296.046" stroke="#120071" stroke-width="0.769171" stroke-linecap="round" stroke-linejoin="round" />
</svg>