<svg width="110" height="66" viewBox="0 0 110 66" fill="none" xmlns="http://www.w3.org/2000/svg">
<path d="M15.192 44.2309C14.9013 44.231 14.6148 44.1619 14.3558 44.0294L0.440463 36.8382C0.0114302 36.6167 -0.31275 36.2338 -0.461223 35.7732C-0.609695 35.3126 -0.570386 34.8117 -0.351885 34.3801L15.9953 1.98508C16.1038 1.76997 16.2536 1.57848 16.4361 1.42158C16.6185 1.26467 16.83 1.14545 17.0585 1.07075C17.287 0.996041 17.5279 0.967322 17.7675 0.986237C18.007 1.00515 18.2405 1.07133 18.4545 1.18097L31.6926 7.95817C32.1176 8.17515 32.4411 8.55037 32.594 9.00357C32.7468 9.45677 32.7168 9.95199 32.5105 10.3833L16.8388 43.185C16.7329 43.4056 16.5842 43.6028 16.4014 43.765C16.2187 43.9273 16.0055 44.0514 15.7744 44.1301C15.5868 44.1943 15.3902 44.2283 15.192 44.2309ZM3.72487 34.4131L14.3577 39.9081L28.4483 10.4181L18.4253 5.28942L3.72487 34.4131Z" fill="white"/>
<path d="M34.1058 18.7413C33.7917 18.7413 33.4829 18.6599 33.2094 18.5051L27.9039 15.5066C27.695 15.3886 27.5112 15.2305 27.3632 15.0413C27.2152 14.852 27.1057 14.6354 27.0411 14.4038C26.9765 14.1721 26.9581 13.93 26.9867 13.6911C27.0154 13.4523 27.0907 13.2215 27.2083 13.0119C27.3259 12.8022 27.4835 12.6179 27.6721 12.4694C27.8607 12.3208 28.0767 12.2111 28.3076 12.1462C28.5385 12.0814 28.7798 12.0629 29.0179 12.0917C29.2559 12.1205 29.486 12.196 29.6949 12.314L34.0766 14.7886C35.7872 13.7482 39.4897 11.5081 41.8595 10.1654C45.7281 7.96742 48.452 8.26965 51.5794 11.2425C51.9218 11.5786 52.1188 12.0362 52.1279 12.5168C52.137 12.9973 51.9576 13.4621 51.6282 13.8111C51.2988 14.1601 50.8459 14.3652 50.3672 14.3822C49.8885 14.3992 49.4223 14.2268 49.0691 13.9021C47.1266 12.0557 46.1151 11.9605 43.6559 13.3526C40.6107 15.0798 35.1172 18.4391 35.0606 18.4812C34.7723 18.6545 34.4418 18.7445 34.1058 18.7413Z" fill="white"/>
<path d="M82.1348 50.6107C80.8044 50.6449 79.492 50.2973 78.3519 49.6087C76.6723 48.4841 69.2819 41.2123 67.8177 39.7671C67.4949 39.4224 67.3176 38.9658 67.3227 38.4928C67.3279 38.0199 67.5153 37.5673 67.8455 37.2298C68.1758 36.8923 68.6234 36.696 69.0946 36.6821C69.5659 36.6682 70.0242 36.8377 70.3737 37.1552C73.6599 40.4101 79.2976 45.841 80.373 46.5608C81.0661 46.8821 81.8326 47.0102 82.5921 46.9315C83.3515 46.8529 84.0758 46.5704 84.6889 46.1139C84.976 45.8641 85.2049 45.5542 85.3595 45.2059C85.5141 44.8577 85.5906 44.4796 85.5837 44.0984C85.5767 43.7172 85.4864 43.3422 85.3192 42.9999C85.152 42.6576 84.9119 42.3562 84.6159 42.1172C82.75 40.0108 74.9981 32.5284 73.2966 30.8872C67.3593 28.7037 61.6017 26.0568 56.0767 22.9707L54.1561 24.2309C53.7249 26.2391 52.5745 28.0189 50.9228 29.2332C50.3431 29.6914 49.6701 30.0161 48.9514 30.1845C48.2327 30.3529 47.4859 30.3608 46.7639 30.2076C45.8877 30.0981 45.044 29.8063 44.2866 29.3508C43.5293 28.8954 42.8751 28.2863 42.3658 27.5627C41.3949 25.4815 41.286 23.0991 42.0628 20.9375C43.6201 14.6842 46.1468 13.0741 49.643 10.8468L50.4116 10.3541C54.2638 7.87217 57.5701 6.5497 61.1996 8.18905C63.4562 9.20929 71.4654 12.3213 73.7402 13.2042L81.3643 10.6966C81.821 10.5573 82.314 10.6029 82.7375 10.8238C83.1611 11.0447 83.4816 11.4233 83.6303 11.8784C83.779 12.3334 83.7442 12.8289 83.5332 13.2585C83.3223 13.6881 82.952 14.0178 82.5017 14.1768L74.2587 16.8877C73.8596 17.0183 73.428 17.008 73.0355 16.8584C72.6028 16.6899 62.4192 12.7591 59.708 11.5319C58.0813 10.7992 56.3634 10.8743 52.3907 13.435L51.6056 13.9387C48.4161 15.97 46.815 16.9921 45.6101 21.8259C44.993 24.3023 45.2778 25.3061 45.5023 25.6724C45.7908 26.156 46.459 26.3519 47.5234 26.6194C47.7519 26.658 47.986 26.6452 48.209 26.5818C48.4319 26.5184 48.638 26.4061 48.8123 26.253C49.3273 25.8638 49.7573 25.3729 50.076 24.8106C50.3947 24.2483 50.5953 23.6265 50.6654 22.9835C50.6892 22.7073 50.7752 22.4402 50.9169 22.2023C51.0586 21.9643 51.2523 21.7617 51.4833 21.6097L54.9977 19.3037C55.2747 19.1229 55.5954 19.021 55.9256 19.0087C56.2558 18.9965 56.5832 19.0743 56.8727 19.2341C56.9969 19.3018 69.3057 26.0552 74.6969 27.4766C74.9966 27.5569 75.2715 27.7112 75.4966 27.9254C75.8909 28.3045 85.1727 37.2211 87.3526 39.6884C87.9566 40.275 88.4355 40.9785 88.7604 41.7564C89.0853 42.5343 89.2493 43.3703 89.2424 44.2137C89.2356 45.057 89.0581 45.8902 88.7207 46.6627C88.3833 47.4352 87.893 48.1309 87.2795 48.7076C85.8748 49.9861 84.0306 50.6683 82.1348 50.6107Z" fill="white"/>
<path d="M85.9865 42.7326C85.5681 42.7323 85.1626 42.5879 84.8377 42.3235C84.5128 42.0591 84.2883 41.6907 84.2017 41.2801C84.1151 40.8695 84.1716 40.4415 84.3619 40.0677C84.5522 39.6939 84.8647 39.3971 85.2471 39.2268L91.6516 36.3803C91.8717 36.276 92.1104 36.217 92.3537 36.2066C92.5969 36.1962 92.8397 36.2348 93.0679 36.32C93.2961 36.4052 93.5049 36.5353 93.6823 36.7026C93.8596 36.87 94.0017 37.0713 94.1003 37.2946C94.199 37.5179 94.2521 37.7587 94.2565 38.0029C94.261 38.2472 94.2168 38.4898 94.1264 38.7166C94.036 38.9434 93.9013 39.1498 93.7303 39.3236C93.5593 39.4974 93.3553 39.6351 93.1304 39.7286L86.7241 42.5824C86.4913 42.6833 86.2401 42.7345 85.9865 42.7326Z" fill="white"/>
<path d="M94.3609 44.2309C93.997 44.2308 93.6415 44.1215 93.34 43.9172C93.0384 43.7129 92.8046 43.4229 92.6685 43.0843L78.8882 8.78431C78.7961 8.55557 78.751 8.31051 78.7556 8.06385C78.7602 7.81719 78.8145 7.57401 78.9151 7.34889C79.0157 7.12378 79.1605 6.92137 79.341 6.75381C79.5215 6.58626 79.7339 6.45701 79.9654 6.37382L94.6914 1.0876C95.1368 0.927732 95.6268 0.947614 96.058 1.14306C96.4891 1.3385 96.8278 1.69425 97.0027 2.13532L110.513 36.1569C110.601 36.3818 110.644 36.6221 110.64 36.8638C110.635 37.1055 110.583 37.3439 110.486 37.5653C110.389 37.7867 110.249 37.9866 110.075 38.1535C109.901 38.3205 109.695 38.4512 109.47 38.5381L95.0145 44.1027C94.8063 44.1853 94.5848 44.2287 94.3609 44.2309ZM82.9796 9.17995L95.3778 40.0382L106.431 35.7887L94.2623 5.13194L82.9796 9.17995ZM73.9096 56.1661C72.4046 56.2114 70.9348 55.704 69.7762 54.7392C67.3316 52.5595 61.0476 46.2586 60.781 45.9911C60.4485 45.6457 60.2645 45.183 60.2686 44.7027C60.2728 44.2225 60.4648 43.7631 60.8033 43.4235C61.1418 43.0839 61.5997 42.8912 62.0784 42.8871C62.5571 42.8829 63.0182 43.0675 63.3626 43.4012C63.4265 43.4653 69.8383 49.8945 72.2007 52.01C72.6904 52.3093 73.2449 52.4856 73.817 52.5239C74.3891 52.5622 74.962 52.4613 75.487 52.2298C76.3442 51.9365 77.1048 51.4125 77.6856 50.7151C78.2663 50.0178 78.6451 49.1738 78.7805 48.2752C78.8213 48.0382 78.9081 47.8115 79.0362 47.6082C79.1643 47.4048 79.331 47.2287 79.5269 47.09C79.7228 46.9513 79.944 46.8527 80.1779 46.7998C80.4118 46.7468 80.6538 46.7406 80.8901 46.7815C81.1263 46.8224 81.3523 46.9096 81.555 47.0381C81.7577 47.1666 81.9332 47.3339 82.0714 47.5304C82.2097 47.7269 82.308 47.9489 82.3607 48.1835C82.4135 48.4182 82.4197 48.661 82.3789 48.898C82.1307 50.4368 81.4718 51.8794 80.4721 53.0727C79.4724 54.2659 78.1692 55.1653 76.701 55.6752C75.8045 55.9945 74.8609 56.1604 73.9096 56.1661Z" fill="white"/>
<path d="M65.4131 60.606C63.9112 60.6703 62.4435 60.1446 61.3218 59.1407L54.8369 52.6345L57.4203 50.0427L63.9051 56.5488C64.3064 56.7749 64.7505 56.9139 65.2087 56.9568C65.667 56.9997 66.1291 56.9456 66.5651 56.7979C67.4026 56.5917 68.1695 56.1634 68.7855 55.5579C69.4015 54.9525 69.844 54.192 70.0668 53.3562C70.1343 53.1231 70.2473 52.9057 70.3993 52.7168C70.5513 52.5278 70.7393 52.3711 70.9522 52.2557C71.1651 52.1403 71.3988 52.0685 71.6396 52.0445C71.8804 52.0205 72.1236 52.0448 72.355 52.116C72.5864 52.1871 72.8013 52.3037 72.9874 52.459C73.1735 52.6142 73.3269 52.805 73.4388 53.0203C73.5507 53.2356 73.6188 53.4711 73.6392 53.713C73.6596 53.9549 73.6318 54.1985 73.5575 54.4296C73.0496 56.2047 71.9812 57.7664 70.5129 58.8802C69.0446 59.994 67.2538 60.5996 65.4131 60.606Z" fill="white"/>
<path d="M58.4532 65.4985C56.9607 65.5304 55.5011 65.056 54.3107 64.1522C52.666 62.8311 51.0138 61.5196 49.354 60.2178C49.1611 60.0711 48.9992 59.8875 48.8777 59.6775C48.7562 59.4675 48.6775 59.2354 48.6462 58.9946C48.6149 58.7539 48.6316 58.5093 48.6954 58.2751C48.7592 58.0408 48.8688 57.8217 49.0177 57.6303C49.1667 57.439 49.3521 57.2793 49.5632 57.1605C49.7742 57.0416 50.0067 56.9661 50.2471 56.9383C50.4876 56.9104 50.7311 56.9308 50.9636 56.9982C51.1961 57.0657 51.4129 57.1788 51.6014 57.3311C51.6014 57.3311 53.8817 59.1169 56.5928 61.293C57.1704 61.6379 57.8274 61.8265 58.4994 61.8403C59.1715 61.8541 59.8356 61.6926 60.4268 61.3717C60.9553 61.1437 61.4026 60.7603 61.7096 60.2721C62.0167 59.7839 62.169 59.2139 62.1466 58.637C62.1318 58.1515 62.3099 57.68 62.6417 57.3262C62.9734 56.9723 63.4317 56.7652 63.9157 56.7504C64.3982 56.7419 64.8649 56.9229 65.2163 57.2548C65.5676 57.5868 65.7757 58.0434 65.7961 58.5271C65.8391 59.803 65.5077 61.0635 64.843 62.1521C64.1783 63.2406 63.2096 64.1094 62.0571 64.6504C60.9366 65.2069 59.7035 65.4971 58.4532 65.4985Z" fill="white"/>
<path d="M44.7722 64.6505C44.1788 64.6483 43.5916 64.5301 43.0433 64.3025C41.5546 63.5696 40.3274 62.394 39.5288 60.9358C38.2332 61.1881 36.8905 60.9856 35.7259 60.3625C34.7491 59.7201 33.9093 58.8892 33.2555 57.9182C32.6017 56.9471 32.1469 55.8553 31.9176 54.7063C31.8213 54.2385 31.9111 53.7514 32.1677 53.349C33.652 51.0265 35.8903 47.4162 36.2244 46.6634C36.525 46.0628 36.9514 45.5345 37.4745 45.1147C37.9976 44.6948 38.605 44.3934 39.255 44.231C40.1392 43.9985 41.064 43.9673 41.9618 44.1397C42.8595 44.3121 43.7075 44.6837 44.4436 45.2274C45.2594 45.7692 45.9145 46.5216 46.3398 47.4055C46.7652 48.2894 46.9452 49.272 46.8608 50.2498C47.7292 50.2874 48.5795 50.5113 49.3542 50.9066C50.129 51.3019 50.8102 51.8593 51.352 52.5413C51.8782 53.3663 52.2141 54.2988 52.3351 55.2708C52.456 56.2427 52.3591 57.2295 52.0512 58.159C51.0936 60.8404 49.1276 63.0391 46.5742 64.2841C46.004 64.526 45.3912 64.6505 44.7722 64.6505ZM42.6033 58.9338C43.1766 59.9064 44.2008 61.3022 45.1593 60.901C46.7506 60.0695 47.9757 58.6725 48.5952 56.9831C48.7171 56.6092 48.7637 56.2148 48.7324 55.8227C48.7011 55.4305 48.5924 55.0486 48.4126 54.699C48.1349 54.4261 47.8052 54.2121 47.4432 54.0699C47.0812 53.9276 46.6944 53.86 46.3058 53.8711L42.6033 58.9338ZM35.6821 54.6294C35.9726 55.6471 36.6022 56.5342 37.4658 57.1424C37.7354 57.2812 38.0306 57.3631 38.333 57.3829C38.6354 57.4028 38.9386 57.3602 39.224 57.2578L43.1218 50.5539C43.2767 50.1396 43.2867 49.6848 43.15 49.2641C43.0133 48.8434 42.7381 48.4818 42.3696 48.2387C42.0893 48.0169 41.7657 47.8566 41.4198 47.7679C41.0739 47.6793 40.7134 47.6643 40.3614 47.724C40.0506 47.7754 39.7669 47.9325 39.5581 48.1691C39.0761 49.2406 36.7575 52.9332 35.6821 54.6294Z" fill="white"/>
<path d="M30.8177 57.4903C30.3851 57.4916 29.9546 57.4299 29.5397 57.3072C26.4123 56.3639 25.1873 52.3012 25.0576 51.8415C24.9922 51.6082 24.9735 51.3643 25.0026 51.1238C25.0317 50.8832 25.1082 50.6509 25.2274 50.4402C26.7792 47.7358 28.4956 45.1299 30.3667 42.6373C31.3061 41.4112 32.6672 40.5804 34.1843 40.3071C35.7014 40.0338 37.2655 40.3376 38.5714 41.1591C40.2948 42.3589 41.5582 44.969 39.4441 48.3796C39.3176 48.5841 39.1522 48.7615 38.9574 48.9019C38.7626 49.0422 38.5421 49.1427 38.3086 49.1975C38.075 49.2524 37.833 49.2605 37.5963 49.2215C37.3597 49.1826 37.133 49.0972 36.9292 48.9703C36.7254 48.8434 36.5485 48.6775 36.4086 48.482C36.2687 48.2866 36.1686 48.0654 36.1139 47.8311C36.0593 47.5968 36.0511 47.354 36.09 47.1165C36.1288 46.8791 36.2139 46.6516 36.3404 46.4472C36.8096 45.687 37.2167 44.6778 36.4883 44.1704C35.9559 43.8786 35.3366 43.7888 34.7437 43.9172C34.1507 44.0457 33.6236 44.3839 33.2586 44.8701C31.6548 47.0082 30.1707 49.2341 28.8131 51.5374C29.2129 52.4954 29.8939 53.5925 30.5895 53.7995C31.2047 53.9827 32.05 53.3489 32.5083 52.957C32.8748 52.6392 33.3521 52.4806 33.8352 52.516C34.3183 52.5514 34.7676 52.7779 35.0843 53.1456C35.401 53.5134 35.5591 53.9922 35.5238 54.4769C35.4885 54.9616 35.2628 55.4124 34.8963 55.7301C33.7986 56.7998 32.3466 57.4265 30.8177 57.4903Z" fill="white"/>
<path d="M26.8112 53.1695C26.6105 53.1693 26.4113 53.1358 26.2215 53.0706C25.9129 52.9662 18.6357 50.4147 18.6357 44.6962C18.6355 44.5041 18.6651 44.3131 18.7234 44.1302C19.384 42.3062 20.2887 40.5809 21.4126 39.0015C22.249 37.9987 23.4043 37.3157 24.6838 37.0675C25.9634 36.8193 27.2892 37.021 28.4379 37.6387C29.5192 38.1195 30.3815 38.9895 30.8547 40.077C31.3279 41.1645 31.3776 42.3905 30.9938 43.5129C29.7998 47.3704 28.5748 51.7793 28.562 51.8251C28.4548 52.2102 28.2249 52.5495 27.9075 52.7913C27.59 53.033 27.2024 53.1639 26.8039 53.164L26.8112 53.1695ZM22.3017 44.9801C22.4843 46.6945 24.2333 47.9987 25.6354 48.7808C26.1119 47.1103 26.8185 44.6797 27.5122 42.4322C27.5759 42.2894 27.6085 42.1347 27.6078 41.9783C27.6071 41.8219 27.5731 41.6674 27.5081 41.5252C27.4431 41.3831 27.3486 41.2564 27.231 41.1538C27.1133 41.0512 26.9752 40.975 26.8258 40.9302C26.4486 40.7168 26.0168 40.6202 25.5849 40.6528C25.1531 40.6854 24.7405 40.8457 24.3994 41.1134C23.553 42.3162 22.849 43.6139 22.3017 44.9801Z" fill="white"/>
<path d="M21.9599 43.3682C21.5924 43.3677 21.2335 43.256 20.9303 43.0476L16.1415 39.7506C15.7418 39.4761 15.4671 39.0536 15.3779 38.5759C15.2887 38.0983 15.3923 37.6047 15.6659 37.2037C15.9395 36.8026 16.3606 36.5271 16.8367 36.4376C17.3128 36.3481 17.8048 36.452 18.2045 36.7265L22.9933 40.0235C23.3158 40.2444 23.5593 40.5631 23.688 40.9331C23.8166 41.303 23.8237 41.7046 23.708 42.0788C23.5924 42.453 23.3602 42.7802 23.0456 43.0123C22.731 43.2443 22.3505 43.3691 21.9599 43.3682Z" fill="white"/>
</svg>
