<svg width="1109" height="939" viewBox="0 0 1109 939" fill="none" xmlns="http://www.w3.org/2000/svg">
  <path d="M116.343 138.657C119.467 135.533 124.533 135.533 127.657 138.657L213.343 224.343C216.467 227.467 216.467 232.533 213.343 235.657L127.657 321.343C124.533 324.467 119.467 324.467 116.343 321.343L30.6569 235.657C27.5327 232.533 27.5327 227.467 30.6569 224.343L116.343 138.657Z" fill="#0051DE" fill-opacity="0.1" />
  <path d="M874.843 203.657C877.967 200.533 883.033 200.533 886.157 203.657L997.343 314.843C1000.47 317.967 1000.47 323.033 997.343 326.157L886.157 437.343C883.033 440.467 877.967 440.467 874.843 437.343L763.657 326.157C760.533 323.033 760.533 317.967 763.657 314.843L874.843 203.657Z" fill="#0051DE" fill-opacity="0.1" />
  <path d="M19.3432 -108.343C22.4673 -111.467 27.5327 -111.467 30.6569 -108.343L163.343 24.3432C166.467 27.4673 166.467 32.5327 163.343 35.6569L30.6568 168.343C27.5327 171.467 22.4673 171.467 19.3431 168.343L-113.343 35.6568C-116.467 32.5327 -116.467 27.4673 -113.343 24.3431L19.3432 -108.343Z" fill="#0051DE" fill-opacity="0.1" />
  <path d="M262.343 -9.34314C265.467 -12.4673 270.533 -12.4673 273.657 -9.34315L383.343 100.343C386.467 103.467 386.467 108.533 383.343 111.657L273.657 221.343C270.533 224.467 265.467 224.467 262.343 221.343L152.657 111.657C149.533 108.533 149.533 103.467 152.657 100.343L262.343 -9.34314Z" fill="#0051DE" fill-opacity="0.1" />
  <path d="M109.343 743.657C112.467 740.533 117.533 740.533 120.657 743.657L206.343 829.343C209.467 832.467 209.467 837.533 206.343 840.657L120.657 926.343C117.533 929.467 112.467 929.467 109.343 926.343L23.6569 840.657C20.5327 837.533 20.5327 832.467 23.6569 829.343L109.343 743.657Z" fill="#0051DE" fill-opacity="0.1" />
  <path d="M234.343 861.657C237.467 858.533 242.533 858.533 245.657 861.657L359.343 975.343C362.467 978.467 362.467 983.533 359.343 986.657L245.657 1100.34C242.533 1103.47 237.467 1103.47 234.343 1100.34L120.657 986.657C117.533 983.533 117.533 978.467 120.657 975.343L234.343 861.657Z" fill="#0051DE" fill-opacity="0.1" />
  <path d="M1023.34 -146.343C1026.47 -149.467 1031.53 -149.467 1034.66 -146.343L1248.34 67.3432C1251.47 70.4673 1251.47 75.5327 1248.34 78.6569L1034.66 292.343C1031.53 295.467 1026.47 295.467 1023.34 292.343L809.657 78.6568C806.533 75.5327 806.533 70.4673 809.657 67.3431L1023.34 -146.343Z" fill="#0051DE" fill-opacity="0.1" />
  <path d="M1102.84 271.657C1105.97 268.533 1111.03 268.533 1114.16 271.657L1211.34 368.843C1214.47 371.967 1214.47 377.033 1211.34 380.157L1114.16 477.343C1111.03 480.467 1105.97 480.467 1102.84 477.343L1005.66 380.157C1002.53 377.033 1002.53 371.967 1005.66 368.843L1102.84 271.657Z" fill="#0051DE" fill-opacity="0.1" />
</svg>