<svg width="40" height="41" viewBox="0 0 40 41" fill="none" xmlns="http://www.w3.org/2000/svg">
<mask id="mask0_2001_6122" style="mask-type:luminance" maskUnits="userSpaceOnUse" x="23" y="3" width="16" height="16">
<path fill-rule="evenodd" clip-rule="evenodd" d="M23.9233 3.83398H38.155V18.0553H23.9233V3.83398Z" fill="white"/>
</mask>
<g mask="url(#mask0_2001_6122)">
<path fill-rule="evenodd" clip-rule="evenodd" d="M36.9045 18.0553C36.2762 18.0553 35.7362 17.5837 35.6645 16.9453C35.0328 11.3187 30.6628 6.95201 25.0345 6.32701C24.3495 6.25034 23.8545 5.63367 23.9312 4.94701C24.0062 4.26201 24.6178 3.75701 25.3112 3.84367C32.1078 4.59867 37.3862 9.87034 38.1478 16.6653C38.2245 17.352 37.7312 17.9703 37.0462 18.047C36.9995 18.052 36.9512 18.0553 36.9045 18.0553" fill="#D23216"/>
</g>
<path fill-rule="evenodd" clip-rule="evenodd" d="M31.0044 18.0729C30.4177 18.0729 29.8961 17.6596 29.7794 17.0629C29.2994 14.5963 27.3977 12.6946 24.9344 12.2163C24.2561 12.0846 23.8144 11.4296 23.9461 10.7513C24.0777 10.0729 24.7444 9.6296 25.4111 9.76294C28.8794 10.4363 31.5577 13.1129 32.2327 16.5829C32.3644 17.2629 31.9227 17.9179 31.2461 18.0496C31.1644 18.0646 31.0844 18.0729 31.0044 18.0729" fill="#D23216"/>
<path d="M5.60191 7.18661C8.81404 3.9742 10.9062 3.12227 13.138 4.40536C13.7801 4.77455 14.3822 5.29195 15.2005 6.12314L17.7113 8.72665C19.0979 10.2398 19.4137 11.691 18.9623 13.3907L18.8998 13.6163L18.8304 13.8399L18.4955 14.8243C17.7771 17.0326 18.0764 18.2789 20.6322 20.8341C23.29 23.4912 24.5309 23.7082 26.9095 22.877L27.3334 22.7296L27.8461 22.5636L28.0707 22.5011C29.8773 22.0191 31.4033 22.4041 33.0218 24.0216L35.0453 25.9747L35.64 26.5606C36.3001 27.2338 36.7367 27.7674 37.0589 28.3311C38.3344 30.5625 37.4821 32.6537 34.1771 35.9464L33.8627 36.2647C33.3692 36.7402 32.908 37.0809 32.2308 37.4024C31.0941 37.9421 29.7512 38.1457 28.1908 37.9288C24.345 37.394 19.4669 34.3596 13.2865 28.1808C12.7834 27.6778 12.3013 27.184 11.8402 26.7003L10.9457 25.7462C2.5629 16.6386 1.82314 11.0433 5.25816 7.53427L5.48082 7.31259L5.60191 7.18661ZM11.8919 6.57333C11.1228 6.13105 10.2922 6.31787 8.75523 7.64071L8.27281 8.07236C8.18859 8.1501 8.10218 8.2308 8.01402 8.31454L7.46031 8.85361L7.4105 8.91611L7.03453 9.29306C6.12736 10.2197 5.69742 11.351 6.06773 13.296C6.67541 16.4877 9.45753 20.8171 15.0541 26.4122C20.8854 32.2421 25.3285 35.0063 28.5345 35.4522C30.4035 35.7122 31.3572 35.2598 32.3294 34.2638L33.0707 33.5157C33.4184 33.1519 33.7153 32.8218 33.9662 32.5206L34.308 32.0899C35.1822 30.9255 35.2627 30.2265 34.889 29.5724C34.7468 29.3235 34.5397 29.0502 34.2386 28.7169L33.8294 28.2852L33.5873 28.0431L31.0355 25.5782C30.1828 24.7919 29.5999 24.6801 28.7152 24.9161L28.4593 24.9903L27.4027 25.3487C24.3358 26.3392 22.1227 25.8589 18.8646 22.6017C15.4904 19.2282 15.0944 16.9751 16.225 13.7315L16.2982 13.5235L16.4984 12.919L16.597 12.5343C16.7719 11.696 16.5722 11.1112 15.6712 10.2101C15.6341 10.1729 15.5923 10.1308 15.5472 10.0851L13.1771 7.63486C12.6341 7.09956 12.2397 6.77329 11.8919 6.57333Z" fill="#D23216"/>
</svg>
