<svg width="23" height="17" viewBox="0 0 23 17" fill="none" xmlns="http://www.w3.org/2000/svg">
<g clip-path="url(#clip0_3001_8)">
<path d="M11.1766 0.304688C14.0989 0.304688 17.0221 0.304688 19.9444 0.306447C20.2549 0.306447 20.5645 0.324923 20.8638 0.433138C21.574 0.69004 22.0886 1.39124 22.1226 2.16723C22.1353 2.45492 22.143 2.7435 22.143 3.03119C22.1447 6.61902 22.1447 10.2077 22.143 13.7956C22.143 14.217 22.1158 14.6366 21.9074 15.015C21.5638 15.6405 21.0484 15.9977 20.3493 16.0514C20.1069 16.0698 19.8619 16.0734 19.6187 16.0734C13.9365 16.0742 8.25337 16.0742 2.57114 16.0734C2.0923 16.0734 1.63473 15.9951 1.23924 15.6898C0.756156 15.3167 0.483143 14.8223 0.451675 14.1959C0.438067 13.9231 0.431262 13.6486 0.431262 13.3759C0.428711 9.75903 0.428711 6.14217 0.428711 2.52443C0.428711 2.03878 0.498452 1.57072 0.784223 1.16513C1.14229 0.658368 1.61857 0.366274 2.22923 0.327562C2.47928 0.311726 2.73018 0.305567 2.98108 0.305567C5.71291 0.304688 8.44474 0.304688 11.1766 0.304688ZM19.9674 1.62967H2.58815C2.82034 1.8593 3.03722 2.06781 3.24729 2.28336C4.58088 3.65057 5.91448 5.01954 7.24637 6.38851C8.11559 7.28239 8.98226 8.17715 9.84807 9.07367C10.1551 9.39127 10.5055 9.62794 10.9401 9.6992C11.6358 9.8127 12.2201 9.59715 12.7194 9.07895C13.9407 7.81115 15.1714 6.55392 16.4004 5.29404C17.5664 4.09839 18.7342 2.90538 19.9011 1.71061C19.9223 1.68949 19.9393 1.66398 19.9674 1.62967ZM2.64853 14.7501H19.9742C19.9478 14.7211 19.9342 14.7053 19.9198 14.6903C19.2861 14.0437 18.6525 13.3988 18.0197 12.7512C16.8571 11.5626 15.6953 10.374 14.5344 9.18276C14.4791 9.12645 14.4502 9.13085 14.3991 9.18452C14.1261 9.47046 13.8506 9.75375 13.5741 10.0353C12.9575 10.6652 12.2167 11.0136 11.3484 11.0339C10.4324 11.055 9.65586 10.6934 9.00267 10.0432C8.7203 9.76255 8.44729 9.47134 8.17257 9.18276C8.1224 9.12997 8.09433 9.12382 8.03819 9.18276C7.17408 10.0705 6.30656 10.9547 5.44075 11.8415C4.72037 12.5788 4.00084 13.3161 3.28386 14.0577C3.06188 14.2874 2.85266 14.5284 2.64853 14.7528V14.7501ZM7.12815 8.16043C5.35655 6.31813 3.54072 4.43096 1.70957 2.52619V13.822C1.71893 13.829 1.72829 13.836 1.73764 13.8431C3.53901 11.9445 5.34039 10.045 7.12815 8.15955V8.16043ZM20.8655 2.5605C20.8562 2.55258 20.8468 2.54466 20.8375 2.53674C19.0182 4.42128 17.199 6.30669 15.3738 8.1965C17.2075 10.0793 19.0318 11.9524 20.8655 13.8351V2.5605Z" fill="white"/>
</g>
<defs>
<clipPath id="clip0_3001_8">
<rect width="21.7143" height="15.7696" fill="white" transform="translate(0.428711 0.304688)"/>
</clipPath>
</defs>
</svg>
