<svg width="23" height="17" viewBox="0 0 23 17" fill="none" xmlns="http://www.w3.org/2000/svg">
  <g clip-path="url(#clip0_3080_10475)">
    <path d="M11.1756 0.402344C14.0979 0.402344 17.0211 0.402344 19.9435 0.404103C20.2539 0.404103 20.5635 0.422579 20.8629 0.530795C21.573 0.787697 22.0876 1.4889 22.1216 2.26488C22.1344 2.55258 22.142 2.84115 22.142 3.12885C22.1437 6.71668 22.1437 10.3054 22.142 13.8932C22.142 14.3146 22.1148 14.7343 21.9064 15.1126C21.5628 15.7382 21.0474 16.0954 20.3483 16.149C20.1059 16.1675 19.861 16.171 19.6177 16.171C13.9355 16.1719 8.2524 16.1719 2.57016 16.171C2.09133 16.171 1.63375 16.0927 1.23827 15.7874C0.755179 15.4144 0.482167 14.9199 0.450698 14.2935C0.43709 14.0208 0.430286 13.7463 0.430286 13.4736C0.427734 9.85669 0.427734 6.23982 0.427734 2.62208C0.427734 2.13643 0.497476 1.66838 0.783246 1.26279C1.14131 0.756024 1.61759 0.46393 2.22826 0.425219C2.47831 0.409382 2.72921 0.403224 2.98011 0.403224C5.71193 0.402344 8.44376 0.402344 11.1756 0.402344ZM19.9664 1.72732H2.58717C2.81936 1.95695 3.03624 2.16547 3.24631 2.38102C4.57991 3.74823 5.9135 5.1172 7.2454 6.48617C8.11461 7.38005 8.98128 8.2748 9.8471 9.17132C10.1541 9.48893 10.5045 9.7256 10.9391 9.79686C11.6349 9.91036 12.2192 9.6948 12.7184 9.1766C13.9397 7.90881 15.1704 6.65157 16.3994 5.3917C17.5654 4.19605 18.7332 3.00304 19.9001 1.80827C19.9213 1.78715 19.9384 1.76164 19.9664 1.72732ZM2.64756 14.8478H19.9732C19.9469 14.8188 19.9333 14.8029 19.9188 14.788C19.2852 14.1413 18.6515 13.4964 18.0188 12.8489C16.8561 11.6603 15.6943 10.4717 14.5334 9.28042C14.4781 9.22411 14.4492 9.22851 14.3982 9.28218C14.1251 9.56811 13.8496 9.85141 13.5732 10.1329C12.9565 10.7629 12.2158 11.1113 11.3474 11.1315C10.4314 11.1526 9.65488 10.791 9.00169 10.1409C8.71932 9.86021 8.44631 9.56899 8.1716 9.28042C8.12142 9.22763 8.09335 9.22147 8.03722 9.28042C7.1731 10.1681 6.30559 11.0523 5.43977 11.9392C4.71939 12.6765 3.99986 13.4137 3.28289 14.1554C3.0609 14.385 2.85168 14.6261 2.64756 14.8504V14.8478ZM7.12718 8.25809C5.35557 6.41579 3.53974 4.52861 1.7086 2.62384V13.9196C1.71795 13.9266 1.72731 13.9337 1.73666 13.9407C3.53804 12.0421 5.33941 10.1426 7.12718 8.25721V8.25809ZM20.8646 2.65815C20.8552 2.65024 20.8458 2.64232 20.8365 2.6344C19.0173 4.51893 17.198 6.40435 15.3728 8.29416C17.2065 10.1769 19.0309 12.05 20.8646 13.9328V2.65815Z" fill="white" />
  </g>
  <defs>
    <clipPath id="clip0_3080_10475">
      <rect width="21.7143" height="15.7696" fill="white" transform="translate(0.427734 0.402344)" />
    </clipPath>
  </defs>
</svg>