<svg width="80" height="81" viewBox="0 0 80 81" fill="none" xmlns="http://www.w3.org/2000/svg">
  <path d="M26.1988 43.947L24.5827 42.0396L24.5827 42.0397L26.1988 43.947ZM26.4051 43.7495L24.6239 41.9953L24.6219 41.9973L26.4051 43.7495ZM17.7265 51.1256L16.1104 49.2182L16.1104 49.2182L17.7265 51.1256ZM17.2624 51.6143L19.3144 53.0423L19.3144 53.0423L17.2624 51.6143ZM62.2365 44.247L60.5051 46.0504L60.5051 46.0504L62.2365 44.247ZM55.0056 37.3053L53.2742 39.1088L53.2742 39.1088L55.0056 37.3053ZM52.3203 37.2864L50.6145 35.4588L50.6082 35.4647L52.3203 37.2864ZM38.9268 49.8743L40.6326 51.702L40.639 51.696L38.9268 49.8743ZM36.2003 49.8148L34.4104 51.5601L34.4139 51.5638L36.2003 49.8148ZM36.1651 49.7787L34.3735 51.5223L34.3752 51.524L36.1651 49.7787ZM35.9737 49.5929L37.6105 47.7032L37.6105 47.7032L35.9737 49.5929ZM29.449 43.9414L31.0858 42.0517L31.0858 42.0517L29.449 43.9414ZM29.2568 43.7548L31.0491 42.0118L31.0474 42.0101L29.2568 43.7548ZM29.2225 43.7195L31.013 41.9748L31.0096 41.9713L29.2225 43.7195ZM26.4422 43.7119L24.6645 41.954L24.661 41.9576L26.4422 43.7119ZM56.8732 19.4055V16.9055C55.4925 16.9055 54.3732 18.0248 54.3732 19.4055H56.8732ZM58.2137 19.4055H60.7137C60.7137 18.0248 59.5944 16.9055 58.2137 16.9055V19.4055ZM58.2137 20.5407V23.0407C59.5944 23.0407 60.7137 21.9214 60.7137 20.5407H58.2137ZM56.8732 20.5407H54.3732C54.3732 21.9214 55.4925 23.0407 56.8732 23.0407V20.5407ZM2.5 17.0625H0V63.9375H2.5H5V17.0625H2.5ZM16.5625 78V80.5H63.4375V78V75.5H16.5625V78ZM77.5 63.9375H80V17.0625H77.5H75V63.9375H77.5ZM63.4375 3V0.5H16.5625V3V5.5H63.4375V3ZM77.5 17.0625H80C80 7.91529 72.5847 0.5 63.4375 0.5V3V5.5C69.8233 5.5 75 10.6767 75 17.0625H77.5ZM63.4375 78V80.5C72.5847 80.5 80 73.0847 80 63.9375H77.5H75C75 70.3233 69.8233 75.5 63.4375 75.5V78ZM2.5 63.9375H0C0 73.0847 7.41529 80.5 16.5625 80.5V78V75.5C10.1767 75.5 5 70.3233 5 63.9375H2.5ZM2.5 17.0625H5C5 10.6767 10.1767 5.5 16.5625 5.5V3V0.5C7.41529 0.5 0 7.91529 0 17.0625H2.5ZM26.1988 43.947L27.8149 45.8545C27.9892 45.7068 28.135 45.5559 28.1883 45.5017L26.4051 43.7495L24.6219 41.9973C24.6044 42.0151 24.5927 42.027 24.5817 42.038C24.5714 42.0485 24.5651 42.0546 24.5613 42.0583C24.5533 42.0661 24.5621 42.0571 24.5827 42.0396L26.1988 43.947ZM17.7265 51.1256L19.3427 53.033L27.8149 45.8544L26.1988 43.947L24.5827 42.0397L16.1104 49.2182L17.7265 51.1256ZM17.2624 51.6143L19.3144 53.0423C19.2868 53.0821 19.2684 53.1003 19.2723 53.0963C19.274 53.0945 19.2801 53.0884 19.292 53.0774C19.3039 53.0665 19.3203 53.052 19.3427 53.033L17.7265 51.1256L16.1104 49.2182C15.8665 49.4249 15.5178 49.7446 15.2104 50.1863L17.2624 51.6143ZM16.5625 53.8455H19.0625C19.0625 53.5574 19.151 53.2772 19.3144 53.0423L17.2624 51.6143L15.2104 50.1863C14.4656 51.2565 14.0625 52.5328 14.0625 53.8455H16.5625ZM16.5625 61.9844H19.0625V53.8455H16.5625H14.0625V61.9844H16.5625ZM18.5156 63.9375V61.4375C18.8177 61.4375 19.0625 61.6823 19.0625 61.9844H16.5625H14.0625C14.0625 64.4438 16.0562 66.4375 18.5156 66.4375V63.9375ZM61.4844 63.9375V61.4375H18.5156V63.9375V66.4375H61.4844V63.9375ZM63.4375 61.9844H60.9375C60.9375 61.6823 61.1823 61.4375 61.4844 61.4375V63.9375V66.4375C63.9438 66.4375 65.9375 64.4438 65.9375 61.9844H63.4375ZM63.4375 47.0649H60.9375V61.9844H63.4375H65.9375V47.0649H63.4375ZM62.2365 44.247L60.5051 46.0504C60.7814 46.3156 60.9375 46.682 60.9375 47.0649H63.4375H65.9375C65.9375 45.3205 65.2262 43.6515 63.9678 42.4435L62.2365 44.247ZM55.0056 37.3053L53.2742 39.1088L60.5051 46.0504L62.2365 44.247L63.9678 42.4435L56.7369 35.5018L55.0056 37.3053ZM52.3203 37.2864L54.0261 39.1141C53.8138 39.3122 53.4837 39.3099 53.2742 39.1088L55.0056 37.3053L56.7369 35.5018C55.0312 33.8644 52.3431 33.8454 50.6145 35.4588L52.3203 37.2864ZM38.9268 49.8743L40.639 51.696L54.0324 39.1081L52.3203 37.2864L50.6082 35.4647L37.2147 48.0526L38.9268 49.8743ZM36.2003 49.8148L34.4139 51.5638C36.0896 53.2752 38.8509 53.3649 40.6326 51.702L38.9268 49.8743L37.221 48.0467C37.4408 47.8416 37.779 47.8537 37.9866 48.0658L36.2003 49.8148ZM36.1651 49.7787L34.3752 51.524L34.4104 51.5601L36.2003 49.8148L37.9902 48.0694L37.955 48.0333L36.1651 49.7787ZM35.9737 49.5929L34.3369 51.4825C34.3178 51.466 34.3096 51.4575 34.3172 51.465C34.3207 51.4684 34.3265 51.4742 34.3361 51.484C34.3463 51.4944 34.3572 51.5056 34.3735 51.5223L36.1651 49.7787L37.9567 48.0351C37.9073 47.9843 37.7717 47.8428 37.6105 47.7032L35.9737 49.5929ZM29.449 43.9414L27.8122 45.8311L34.3369 51.4826L35.9737 49.5929L37.6105 47.7032L31.0858 42.0517L29.449 43.9414ZM29.2568 43.7548L27.4646 45.4977C27.5144 45.5489 27.6504 45.6909 27.8122 45.8311L29.449 43.9414L31.0858 42.0517C31.1049 42.0683 31.1131 42.0768 31.1056 42.0694C31.1021 42.0659 31.0962 42.0601 31.0866 42.0502C31.0763 42.0398 31.0654 42.0286 31.0491 42.0118L29.2568 43.7548ZM29.2225 43.7195L27.4319 45.4642L27.4663 45.4995L29.2568 43.7548L31.0474 42.0101L31.013 41.9748L29.2225 43.7195ZM26.4422 43.7119L28.2198 45.4697C28.0016 45.6903 27.6526 45.6898 27.4353 45.4677L29.2225 43.7195L31.0096 41.9713C29.2719 40.1949 26.4096 40.1893 24.6645 41.954L26.4422 43.7119ZM26.4051 43.7495L28.1863 45.5037L28.2234 45.4661L26.4422 43.7119L24.661 41.9576L24.6239 41.9953L26.4051 43.7495ZM56.8732 19.4055V21.9055H58.2137V19.4055V16.9055H56.8732V19.4055ZM58.2137 19.4055H55.7137V20.5407H58.2137H60.7137V19.4055H58.2137ZM58.2137 20.5407V18.0407H56.8732V20.5407V23.0407H58.2137V20.5407ZM56.8732 20.5407H59.3732V19.4055H56.8732H54.3732V20.5407H56.8732Z" fill="#6E6E6E" fill-opacity="0.5" />
</svg>