<svg width="51" height="52" viewBox="0 0 51 52" fill="none" xmlns="http://www.w3.org/2000/svg">
  <path d="M40.3516 19.5977C40.3516 22.6743 39.4392 25.4963 37.8691 27.8515C35.5776 31.2464 31.9493 33.644 27.7269 34.2593C27.0055 34.3866 26.2629 34.4502 25.499 34.4502C24.7352 34.4502 23.9926 34.3866 23.2712 34.2593C19.0488 33.644 15.4205 31.2464 13.129 27.8515C11.5589 25.4963 10.6465 22.6743 10.6465 19.5977C10.6465 11.3863 17.2877 4.74512 25.499 4.74512C33.7104 4.74512 40.3516 11.3863 40.3516 19.5977Z" stroke="black" stroke-width="2.54615" stroke-linecap="round" stroke-linejoin="round" />
  <path d="M45.1255 39.691L41.6246 40.5184C40.8395 40.7094 40.2242 41.3035 40.0544 42.0886L39.3118 45.2077C38.9087 46.9051 36.7444 47.4143 35.6199 46.0776L25.4989 34.4501L15.378 46.0988C14.2534 47.4355 12.0892 46.9263 11.686 45.2288L10.9434 42.1098C10.7525 41.3247 10.1371 40.7094 9.37329 40.5397L5.87233 39.7122C4.25977 39.3303 3.68688 37.3145 4.85387 36.1475L13.1289 27.8726C15.4204 31.2674 19.0487 33.6651 23.271 34.2804C23.9925 34.4077 24.7351 34.4714 25.4989 34.4714C26.2628 34.4714 27.0054 34.4077 27.7268 34.2804C31.9492 33.6651 35.5775 31.2674 37.869 27.8726L46.144 36.1475C47.311 37.2933 46.7381 39.309 45.1255 39.691Z" stroke="black" stroke-width="2.54615" stroke-linecap="round" stroke-linejoin="round" />
  <path d="M26.73 13.1898L27.9818 15.6936C28.1516 16.033 28.5971 16.3725 29.0003 16.4362L31.2706 16.8181C32.7134 17.0515 33.0529 18.1124 32.0132 19.1521L30.2521 20.9131C29.9551 21.2102 29.7854 21.7831 29.8914 22.2075L30.4007 24.3929C30.8038 26.1116 29.8914 26.7905 28.3638 25.8781L26.242 24.6263C25.86 24.3929 25.2235 24.3929 24.8416 24.6263L22.7198 25.8781C21.1921 26.7693 20.2797 26.1116 20.6829 24.3929L21.1921 22.2075C21.277 21.8043 21.1284 21.2102 20.8314 20.9131L19.0703 19.1521C18.0306 18.1124 18.3701 17.0727 19.8129 16.8181L22.0832 16.4362C22.4652 16.3725 22.9107 16.033 23.0805 15.6936L24.3323 13.1898C24.9477 11.8319 26.051 11.8319 26.73 13.1898Z" stroke="black" stroke-width="2.54615" stroke-linecap="round" stroke-linejoin="round" />
</svg>