<svg width="384" height="384" viewBox="0 0 384 384" fill="none" xmlns="http://www.w3.org/2000/svg">
  <rect width="384" height="384" rx="70" fill="white" />
  <path d="M332.596 108.128L330.006 141.432C318.2 141.678 306.389 141.279 294.622 140.235L272.64 168.493L261.125 135.916C234.168 135.713 210.563 130.726 184.441 123.87C182.275 127.187 180.809 130.941 180.14 134.886C179.47 138.831 179.612 142.878 180.556 146.763C201.279 152.046 217.897 156.309 239.18 158.263L249.435 155.07C248.14 170.202 248.315 185.429 249.96 200.526C263.925 199.075 279.675 200.997 296.547 204.988C297.376 190.595 298.389 179.151 302.042 166.207C314.437 167.328 326.897 167.498 339.316 166.715C342.709 166.393 345.882 164.835 348.272 162.319C350.662 159.802 352.114 156.489 352.371 152.968L355.556 110.123C348.099 107.929 340.302 107.252 332.596 108.128Z" fill="#30DDD4" />
  <path d="M278.204 124.019L274.669 127.501L275.684 124.238L278.204 124.019Z" fill="#6153BD" />
  <path d="M239.18 158.227C242.356 158.516 245.709 158.756 249.127 158.936C249.227 157.632 249.343 156.337 249.435 155.035L239.18 158.227Z" fill="#6153BD" />
  <path d="M186.33 141.722C186.214 141.575 186.07 141.453 185.908 141.364C185.746 141.275 185.568 141.219 185.385 141.202C185.202 141.184 185.018 141.204 184.843 141.261C184.667 141.317 184.504 141.409 184.363 141.532C184.223 141.654 184.107 141.804 184.022 141.973C183.937 142.141 183.886 142.326 183.87 142.516C183.855 142.705 183.876 142.896 183.932 143.078C183.988 143.259 184.078 143.427 184.197 143.572C184.435 143.861 184.774 144.042 185.139 144.074C185.504 144.106 185.867 143.987 186.149 143.743C186.43 143.499 186.607 143.149 186.641 142.771C186.675 142.392 186.563 142.015 186.33 141.722Z" fill="#6153BD" />
  <path d="M219.475 135.882C219.239 135.588 218.9 135.404 218.533 135.37C218.166 135.336 217.801 135.454 217.518 135.699C217.235 135.944 217.058 136.295 217.025 136.676C216.992 137.056 217.106 137.435 217.342 137.728C217.459 137.873 217.602 137.993 217.764 138.081C217.926 138.168 218.102 138.222 218.284 138.239C218.466 138.256 218.649 138.236 218.823 138.179C218.997 138.123 219.159 138.032 219.299 137.91C219.439 137.789 219.555 137.64 219.64 137.473C219.724 137.305 219.776 137.122 219.793 136.934C219.809 136.745 219.789 136.555 219.735 136.375C219.68 136.194 219.592 136.027 219.475 135.882Z" fill="#6153BD" />
  <path d="M245.788 152.678C245.671 152.532 245.528 152.412 245.366 152.324C245.204 152.236 245.027 152.183 244.845 152.167C244.663 152.149 244.479 152.17 244.304 152.226C244.13 152.283 243.968 152.375 243.828 152.497C243.612 152.676 243.453 152.92 243.374 153.195C243.295 153.47 243.299 153.763 243.386 154.036C243.441 154.217 243.533 154.385 243.653 154.528C243.83 154.746 244.065 154.905 244.329 154.985C244.593 155.065 244.873 155.063 245.136 154.979C245.311 154.923 245.473 154.832 245.613 154.711C245.754 154.59 245.87 154.441 245.955 154.273C246.039 154.105 246.091 153.921 246.107 153.732C246.123 153.544 246.103 153.354 246.048 153.173C245.994 152.992 245.906 152.823 245.788 152.678Z" fill="#6153BD" />
  <path d="M305.331 159.898C305.507 160.118 305.742 160.279 306.006 160.361C306.27 160.442 306.552 160.44 306.815 160.354C307.078 160.269 307.311 160.104 307.483 159.881C307.656 159.658 307.76 159.387 307.783 159.102C307.799 158.89 307.771 158.677 307.699 158.477C307.628 158.278 307.515 158.097 307.368 157.948C307.222 157.799 307.046 157.686 306.852 157.615C306.659 157.544 306.452 157.519 306.248 157.54C305.998 157.569 305.76 157.667 305.56 157.824C305.359 157.982 305.204 158.193 305.11 158.435C305.016 158.677 304.987 158.94 305.026 159.198C305.065 159.456 305.17 159.697 305.331 159.898Z" fill="#6153BD" />
  <path d="M346.841 149.195C347.017 149.415 347.252 149.577 347.516 149.658C347.781 149.739 348.062 149.737 348.325 149.651C348.589 149.566 348.821 149.401 348.994 149.178C349.166 148.955 349.27 148.684 349.293 148.399C349.31 148.187 349.281 147.974 349.21 147.774C349.138 147.575 349.025 147.395 348.879 147.246C348.732 147.097 348.556 146.983 348.362 146.912C348.169 146.842 347.963 146.816 347.759 146.837C347.509 146.866 347.271 146.964 347.07 147.122C346.87 147.279 346.714 147.49 346.62 147.732C346.526 147.974 346.497 148.237 346.536 148.495C346.575 148.753 346.68 148.995 346.841 149.195Z" fill="#6153BD" />
  <path d="M268.93 168.93C268.814 168.784 268.67 168.664 268.508 168.576C268.346 168.488 268.169 168.434 267.987 168.418C267.62 168.385 267.255 168.504 266.972 168.749C266.828 168.868 266.71 169.016 266.623 169.184C266.536 169.352 266.483 169.536 266.467 169.726C266.45 169.916 266.471 170.107 266.527 170.289C266.584 170.47 266.676 170.637 266.797 170.78C266.913 170.928 267.056 171.051 267.219 171.14C267.381 171.23 267.559 171.286 267.742 171.303C267.925 171.321 268.11 171.301 268.285 171.244C268.461 171.187 268.624 171.094 268.764 170.971C268.975 170.786 269.129 170.541 269.205 170.265C269.282 169.99 269.279 169.698 269.195 169.425C269.14 169.243 269.05 169.075 268.93 168.93Z" fill="#6153BD" />
  <path d="M276.419 171.832C276.595 172.052 276.83 172.213 277.094 172.295C277.359 172.376 277.64 172.374 277.904 172.288C278.167 172.203 278.399 172.038 278.572 171.815C278.744 171.592 278.848 171.32 278.871 171.036C278.888 170.824 278.859 170.61 278.788 170.411C278.716 170.212 278.603 170.031 278.457 169.882C278.31 169.733 278.134 169.619 277.941 169.549C277.747 169.478 277.541 169.453 277.337 169.474C277.087 169.502 276.849 169.601 276.648 169.758C276.448 169.916 276.292 170.127 276.198 170.369C276.104 170.61 276.075 170.874 276.114 171.132C276.153 171.389 276.258 171.631 276.419 171.832Z" fill="#6153BD" />
  <path d="M289.445 196.102C289.577 196.265 289.743 196.395 289.929 196.484C290.116 196.573 290.319 196.618 290.525 196.616C290.73 196.614 290.933 196.565 291.118 196.472C291.302 196.38 291.465 196.246 291.595 196.081C291.768 195.86 291.874 195.59 291.899 195.306C291.923 195.021 291.866 194.736 291.733 194.486C291.641 194.307 291.514 194.15 291.36 194.025C291.205 193.9 291.027 193.81 290.837 193.761C290.647 193.713 290.449 193.706 290.256 193.742C290.064 193.778 289.88 193.855 289.718 193.969C289.557 194.084 289.42 194.232 289.317 194.405C289.214 194.578 289.148 194.771 289.122 194.972C289.096 195.174 289.112 195.378 289.167 195.573C289.223 195.767 289.318 195.948 289.445 196.102Z" fill="#6153BD" />
  <path d="M253.709 192.583C253.887 192.8 254.122 192.959 254.385 193.039C254.649 193.119 254.929 193.117 255.192 193.034C255.455 192.949 255.689 192.786 255.862 192.563C256.035 192.341 256.141 192.071 256.165 191.786C256.19 191.501 256.132 191.216 255.999 190.965C255.867 190.715 255.665 190.511 255.42 190.38C255.218 190.269 254.992 190.212 254.763 190.213C254.534 190.215 254.309 190.275 254.108 190.389C253.906 190.503 253.736 190.667 253.611 190.866C253.485 191.064 253.41 191.292 253.39 191.529C253.359 191.91 253.473 192.289 253.709 192.583Z" fill="#6153BD" />
  <path d="M292.025 113.17C290.695 106.279 289.505 99.1306 284.325 94.5959C280.998 97.4599 275.048 102.903 272.39 109.979C279.493 97.353 283.52 107.293 282.818 112.698C282.785 113.68 283.31 113.932 284.844 112.918C288.066 110.741 290.026 116.399 284.039 118.722C283.271 119.012 281.486 123.148 281.941 127.864C281.287 121.332 292.025 113.17 292.025 113.17Z" fill="#6153BD" />
  <path d="M337.461 113.353C337.286 113.133 337.051 112.972 336.786 112.89C336.522 112.809 336.24 112.811 335.977 112.897C335.714 112.982 335.481 113.147 335.309 113.37C335.137 113.593 335.032 113.865 335.01 114.149C334.993 114.361 335.021 114.575 335.093 114.774C335.165 114.973 335.278 115.154 335.424 115.303C335.57 115.452 335.747 115.566 335.94 115.636C336.134 115.707 336.34 115.732 336.544 115.711C336.794 115.683 337.032 115.584 337.232 115.427C337.433 115.269 337.588 115.058 337.682 114.816C337.777 114.575 337.806 114.311 337.767 114.053C337.728 113.796 337.622 113.554 337.461 113.353Z" fill="#6153BD" />
  <path d="M126.621 256.14C120.531 261.001 109.575 269.419 105.727 273.705C110.592 274.832 125.781 271.239 134.531 271.239C137.331 271.242 140.12 270.851 142.821 270.078C144.501 268.155 146.356 265.763 148.281 263.548C140.69 262.448 133.353 259.939 126.621 256.14Z" fill="#6153BD" />
  <path d="M199.841 336.931C197.951 344.658 194.346 358.298 193.856 364.103C198.336 361.89 208.173 349.303 215.04 343.715C217.24 341.92 219.205 339.834 220.885 337.511C221.06 334.936 221.095 331.852 221.305 328.877C214.664 332.853 207.398 335.579 199.841 336.931Z" fill="#6153BD" />
  <path d="M288.214 258.861L293.741 307.765C301.111 306.914 308.192 304.307 314.428 300.146C320.664 295.986 325.886 290.385 329.685 283.784L288.214 258.861Z" fill="#6153BD" />
  <path d="M296.197 165.628L302.077 166.209L300.502 172.194L296.197 165.628Z" fill="#6153BD" />
  <path d="M158.289 137.034C158.457 136.815 158.702 136.672 158.97 136.637C153.402 135.568 148.255 135.615 145.446 134.728L85.2497 130.836C85.1276 130.833 85.009 130.879 84.9185 130.964C84.828 131.049 84.7725 131.166 84.7635 131.292C84.7545 131.419 84.7927 131.544 84.8702 131.641C84.9477 131.739 85.0585 131.802 85.1797 131.818L158.491 138.539C158.086 137.857 157.99 137.425 158.289 137.034Z" fill="#6153BD" />
  <path d="M324.161 141.468L287.135 55.3441C284.177 48.4616 278.703 43.0783 271.917 40.3777C265.13 37.677 257.587 37.88 250.945 40.9421L64.4595 126.994C57.8182 130.059 52.6235 135.733 50.0178 142.768C47.4121 149.802 47.6088 157.622 50.5646 164.506L112.551 308.746C114.015 312.155 116.112 315.231 118.723 317.8C121.334 320.369 124.407 322.379 127.768 323.716C131.128 325.054 134.71 325.692 138.309 325.594C141.907 325.497 145.452 324.666 148.741 323.148L201.52 298.806" stroke="#120071" stroke-width="0.769171" stroke-linecap="round" stroke-linejoin="round" />
  <path d="M235.855 282.949L335.221 237.095C338.51 235.578 341.478 233.404 343.956 230.698C346.434 227.991 348.374 224.806 349.664 221.323C350.954 217.839 351.57 214.127 351.476 210.397C351.382 206.667 350.58 202.993 349.116 199.584L335.116 167.007" stroke="#120071" stroke-width="0.769171" stroke-linecap="round" stroke-linejoin="round" />
  <path d="M147.788 233.394L111.711 149.413C111.333 148.527 110.791 147.728 110.115 147.06C109.438 146.393 108.641 145.87 107.769 145.523C106.897 145.176 105.968 145.011 105.034 145.037C104.101 145.063 103.181 145.28 102.329 145.676L86.2291 153.077C85.3749 153.468 84.6036 154.03 83.9596 154.731C83.3156 155.432 82.8116 156.258 82.4766 157.161C82.1416 158.065 81.9822 159.028 82.0075 159.995C82.0328 160.963 82.2424 161.916 82.6242 162.799L123.716 258.456" stroke="#120071" stroke-width="0.769171" stroke-linecap="round" stroke-linejoin="round" />
  <path d="M130.75 274.896L135.895 286.867C136.272 287.753 136.815 288.552 137.491 289.219C138.167 289.887 138.964 290.409 139.836 290.756C140.707 291.103 141.637 291.269 142.57 291.242C143.503 291.216 144.423 290.999 145.275 290.604L161.375 283.157C162.229 282.766 163 282.204 163.644 281.503C164.288 280.802 164.792 279.977 165.127 279.073C165.462 278.17 165.621 277.207 165.596 276.239C165.571 275.272 165.361 274.319 164.98 273.435L159.38 260.339" stroke="#120071" stroke-width="0.769171" stroke-linecap="round" stroke-linejoin="round" />
  <path d="M178.315 244.75L186.365 263.541C186.743 264.426 187.286 265.225 187.962 265.892C188.638 266.559 189.435 267.081 190.307 267.428C191.178 267.776 192.107 267.941 193.04 267.915C193.974 267.889 194.893 267.673 195.745 267.278L210.2 260.639" stroke="#120071" stroke-width="0.769171" stroke-linecap="round" stroke-linejoin="round" />
  <path d="M206.421 229.078L215.661 250.554" stroke="#120071" stroke-width="0.769171" stroke-linecap="round" stroke-linejoin="round" />
  <path d="M192.805 197.408L180.731 169.294C180.354 168.408 179.811 167.608 179.135 166.941C178.459 166.273 177.662 165.751 176.79 165.403C175.919 165.056 174.989 164.891 174.056 164.917C173.122 164.944 172.203 165.161 171.351 165.557L155.251 172.958C154.396 173.348 153.625 173.91 152.981 174.611C152.337 175.312 151.833 176.138 151.497 177.042C151.162 177.945 151.003 178.908 151.029 179.876C151.054 180.844 151.264 181.797 151.646 182.68L166.486 217.252" stroke="#120071" stroke-width="0.769171" stroke-linecap="round" stroke-linejoin="round" />
  <path d="M248.92 187.177L239.26 164.647C238.691 163.314 237.753 162.186 236.564 161.407C235.375 160.628 233.99 160.232 232.584 160.271C231.651 160.298 230.732 160.515 229.88 160.911L213.78 168.348C212.925 168.738 212.153 169.3 211.509 170.001C210.865 170.703 210.362 171.529 210.028 172.434C209.692 173.337 209.532 174.3 209.558 175.267C209.583 176.234 209.793 177.187 210.175 178.07L218.925 198.5" stroke="#120071" stroke-width="0.769171" stroke-linecap="round" stroke-linejoin="round" />
  <path d="M299.277 219.537L312.822 213.261C314.109 212.674 315.199 211.701 315.951 210.469C316.703 209.237 317.083 207.8 317.044 206.342C317.018 205.375 316.808 204.422 316.427 203.539L301.419 168.568" stroke="#120071" stroke-width="0.769171" stroke-linecap="round" stroke-linejoin="round" />
  <path d="M282.406 124.346L288.706 139.002" stroke="#120071" stroke-width="0.769171" stroke-linecap="round" stroke-linejoin="round" />
  <path d="M274.635 106.272L263.155 79.4993C262.586 78.1664 261.648 77.0388 260.46 76.2596C259.272 75.4805 257.887 75.0849 256.481 75.1231C255.547 75.1495 254.628 75.3669 253.775 75.7628L237.675 83.1996C236.821 83.5907 236.05 84.1529 235.406 84.8539C234.762 85.5549 234.258 86.3808 233.923 87.2842C233.589 88.1876 233.429 89.1507 233.454 90.1182C233.479 91.0857 233.689 92.0385 234.07 92.9219L252.375 135.55" stroke="#120071" stroke-width="0.769171" stroke-linecap="round" stroke-linejoin="round" />
  <path d="M275.684 124.239C276.53 124.242 277.373 124.172 278.208 124.029L274.673 127.511" stroke="#120071" stroke-width="0.769171" stroke-linecap="round" stroke-linejoin="round" />
  <path d="M300.448 172.313L296.197 165.63L302.042 166.231" stroke="#120071" stroke-width="0.769171" stroke-linecap="round" stroke-linejoin="round" />
  <path d="M161.201 131.666C156.658 131.344 152.102 131.272 147.551 131.448C142.825 131.767 140.76 134.537 149.231 135.439C155.426 136.095 161.901 136.454 167.571 139.538" stroke="#120071" stroke-width="0.769171" stroke-linecap="round" stroke-linejoin="round" />
  <path d="M157.141 128.336C157.736 125.472 159.591 124.518 165.261 125.071" stroke="#120071" stroke-width="0.769171" stroke-linecap="round" stroke-linejoin="round" />
  <path d="M154.901 131.348C155.706 128.293 157.351 127.684 162.741 128.192" stroke="#120071" stroke-width="0.769171" stroke-linecap="round" stroke-linejoin="round" />
  <path d="M159.521 125.289C160.326 122.387 162.18 121.863 167.57 122.234C172.986 122.887 178.361 123.857 183.67 125.136" stroke="#120071" stroke-width="0.769171" stroke-linecap="round" stroke-linejoin="round" />
  <path d="M183.709 125.144C180.4 130.821 179.111 137.519 180.065 144.077C175.47 145.085 170.704 144.874 166.209 143.464C160.498 141.937 155.812 136.298 159.761 136.781C161.368 137.098 162.948 137.545 164.486 138.118" stroke="#120071" stroke-width="0.769171" stroke-linecap="round" stroke-linejoin="round" />
  <path d="M281.985 127.828C281.299 121.39 291.613 113.418 292.018 113.107C290.694 106.234 289.495 99.1175 284.331 94.5962C279.402 98.8465 275.344 104.077 272.396 109.98" stroke="#120071" stroke-width="0.769171" stroke-linecap="round" stroke-linejoin="round" />
  <path d="M201.415 228.498C212.319 229.552 223.095 231.726 233.584 234.99C228.712 238.627 223.993 242.479 219.44 246.535C214.863 250.618 211.521 255.985 209.815 261.989C204.609 280.828 200.794 300.051 198.405 319.491C207.91 322.899 217.858 324.795 227.91 325.114C229.957 306.789 233.799 288.729 239.375 271.211L284.052 249.22C308.061 236.236 296.547 204.998 296.547 204.998C297.492 188.709 298.787 177.23 302.041 166.238C314.437 167.37 326.896 167.545 339.316 166.762C342.709 166.439 345.882 164.882 348.272 162.365C350.662 159.849 352.114 156.536 352.371 153.014L355.552 110.169C348.089 107.951 340.282 107.249 332.561 108.101L329.971 141.36C288.145 142.085 284.225 138.059 283.07 134.939C280.583 128.155 282.963 119.12 284.085 118.687C290.068 116.361 288.104 110.696 284.89 112.88C283.689 113.698 282.72 113.997 282.88 112.521C283.471 107.082 279.457 97.4912 272.428 109.978C265.314 122.58 271.752 124.241 275.683 124.239C275.683 124.239 274.071 129.024 273.163 133.198C272.533 136.098 269.313 135.964 262.803 135.918C233.33 135.708 212.823 131.093 184.404 123.838C182.255 127.163 180.799 130.917 180.13 134.858C179.461 138.8 179.593 142.843 180.517 146.729C206.282 153.314 223.668 157.612 249.126 158.937C248.106 174.151 248.549 189.432 250.448 204.555C234.031 200.597 217.365 197.845 200.574 196.32C196.182 195.919 191.8 197.196 188.254 199.911C170.505 213.435 153.427 227.88 137.086 243.19C141.808 251.216 147.835 258.335 154.899 264.231C169.456 251.047 185.011 239.098 201.415 228.498Z" stroke="#120071" stroke-width="0.769171" stroke-linecap="round" stroke-linejoin="round" />
  <path d="M259.725 218.231C250.644 223.174 241.909 228.771 233.583 234.981" stroke="#120071" stroke-width="0.769171" stroke-linecap="round" stroke-linejoin="round" />
  <path d="M296.581 204.984C279.709 200.994 263.96 199.066 249.995 200.522" stroke="#120071" stroke-width="0.769171" stroke-linecap="round" stroke-linejoin="round" />
  <path d="M261.09 135.917L272.605 168.422L294.587 140.198" stroke="#120071" stroke-width="0.769171" stroke-linecap="round" stroke-linejoin="round" />
  <path d="M272.045 135.011C273.649 136.342 275.602 137.141 277.651 137.302C279.699 137.464 281.747 136.982 283.527 135.918" stroke="#120071" stroke-width="0.769171" stroke-linecap="round" stroke-linejoin="round" />
  <path d="M265.254 135.954L269.244 146.547L277.469 137.297L283.526 147.454L290.036 139.328" stroke="#120071" stroke-width="0.769171" stroke-linecap="round" stroke-linejoin="round" />
  <path d="M277.471 137.296C275.056 146.946 269.771 185.618 270.287 200.528" stroke="#120071" stroke-width="0.769171" stroke-linecap="round" stroke-linejoin="round" />
  <path d="M286.682 202.85C286.682 202.85 284.582 218.697 296.552 223.673" stroke="#120071" stroke-width="0.769171" stroke-linecap="round" stroke-linejoin="round" />
  <path d="M293.221 221.786C273.685 231.752 254.958 243.338 237.222 256.43C231.505 260.703 227.33 266.831 225.357 273.843C220.891 290.268 217.546 306.997 215.347 323.908" stroke="#120071" stroke-width="0.769171" stroke-linecap="round" stroke-linejoin="round" />
  <path d="M245.34 226.829C232.221 222.974 218.884 219.969 205.405 217.832C200.927 217.135 196.359 218.196 192.595 220.807C176.696 231.747 161.498 243.744 147.096 256.721" stroke="#120071" stroke-width="0.769171" stroke-linecap="round" stroke-linejoin="round" />
  <path d="M151.051 260.711C146.346 256.298 142.195 251.289 138.696 245.802C135.897 248.631 131.277 252.44 126.622 256.177C133.365 259.96 140.699 262.481 148.286 263.623C149.145 262.59 150.07 261.618 151.051 260.711Z" stroke="#120071" stroke-width="0.769171" stroke-linecap="round" stroke-linejoin="round" />
  <path d="M105.726 273.699C104.713 274.86 104.174 275.7 104.36 276.166C105.516 279.064 122.141 274.787 131.033 274.787C133.642 274.808 136.238 274.417 138.733 273.626C140.305 272.742 141.684 271.532 142.786 270.071C140.085 270.846 137.296 271.236 134.496 271.232C125.783 271.238 110.556 274.865 105.726 273.699Z" stroke="#120071" stroke-width="0.769171" stroke-linecap="round" stroke-linejoin="round" />
  <path d="M126.621 256.14C120.531 261.001 109.577 269.417 105.727 273.706C110.592 274.83 125.781 271.239 134.531 271.239C137.331 271.241 140.12 270.851 142.821 270.078C144.501 268.155 146.356 265.761 148.281 263.548C140.69 262.449 133.353 259.939 126.621 256.14Z" stroke="#120071" stroke-width="0.769171" stroke-linecap="round" stroke-linejoin="round" />
  <path d="M221.75 324.743C215.455 324.148 209.231 322.921 203.165 321.079C202.64 325.069 201.275 331.019 199.85 336.926C207.403 335.572 214.666 332.846 221.304 328.873C221.4 327.5 221.54 326.013 221.75 324.743Z" stroke="#120071" stroke-width="0.769171" stroke-linecap="round" stroke-linejoin="round" />
  <path d="M193.856 364.104C193.716 365.664 193.822 366.676 194.241 366.898C196.947 368.328 207.386 354.397 214.4 348.723C216.462 347.07 218.267 345.1 219.755 342.882C220.476 341.178 220.845 339.337 220.84 337.477C219.171 339.808 217.205 341.895 214.995 343.68C208.13 349.25 198.37 361.891 193.856 364.104Z" stroke="#120071" stroke-width="0.769171" stroke-linecap="round" stroke-linejoin="round" />
  <path d="M199.841 336.932C197.951 344.659 194.346 358.3 193.856 364.104C198.336 361.891 208.173 349.305 215.04 343.716C217.24 341.921 219.205 339.835 220.885 337.513C221.06 334.937 221.095 331.853 221.305 328.879C214.664 332.854 207.398 335.58 199.841 336.932Z" stroke="#120071" stroke-width="0.769171" stroke-linecap="round" stroke-linejoin="round" />
  <path d="M41.6746 210.359L24.5947 170.019" stroke="#120071" stroke-width="0.769171" stroke-linecap="round" stroke-linejoin="round" />
  <path d="M17 190.261L24.5949 170.019L44.1248 177.927" stroke="#120071" stroke-width="0.769171" stroke-linecap="round" stroke-linejoin="round" />
  <path d="M351.111 286.033C351.383 286.68 351.514 287.382 351.493 288.087C351.472 288.793 351.301 289.485 350.991 290.114C350.681 290.743 350.241 291.293 349.702 291.724C349.163 292.155 348.538 292.458 347.873 292.609C346.982 292.808 346.055 292.73 345.208 292.384C344.361 292.038 343.632 291.439 343.112 290.664C342.593 289.888 342.307 288.971 342.29 288.027C342.274 287.083 342.527 286.155 343.019 285.361C343.594 284.433 344.463 283.742 345.476 283.404C346.489 283.067 347.583 283.104 348.573 283.511C349.705 283.973 350.617 284.878 351.111 286.033Z" stroke="#120071" stroke-width="0.769171" stroke-linecap="round" stroke-linejoin="round" />
  <path d="M366.616 292.24C366.888 292.887 367.019 293.589 366.998 294.294C366.977 295 366.806 295.692 366.496 296.321C366.186 296.95 365.746 297.5 365.207 297.931C364.668 298.362 364.043 298.664 363.377 298.816C362.487 299.015 361.56 298.937 360.713 298.591C359.866 298.244 359.136 297.646 358.617 296.87C358.098 296.095 357.812 295.178 357.795 294.234C357.779 293.29 358.032 292.362 358.524 291.568C359.016 290.773 359.725 290.149 360.561 289.773C361.68 289.276 362.943 289.257 364.077 289.719C365.21 290.18 366.122 291.086 366.616 292.24Z" stroke="#120071" stroke-width="0.769171" stroke-linecap="round" stroke-linejoin="round" />
  <path d="M349.15 305.263L360.07 276.565" stroke="#120071" stroke-width="0.769171" stroke-linecap="round" stroke-linejoin="round" />
  <path d="M350.656 108.926C350.705 104.791 351.151 100.671 351.986 96.6277C352.769 93.3237 353.908 90.1213 355.381 87.0811C357.555 82.6209 357.253 81.8782 353.316 85.4849C351.8 86.8544 350.427 88.3866 349.221 90.0558C345.115 95.4973 341.652 101.428 338.906 107.723" stroke="#120071" stroke-width="0.769171" stroke-linecap="round" stroke-linejoin="round" />
  <path d="M346.245 94.3071C343.935 97.1367 343.025 89.7361 341.8 86.58C340.785 83.968 338.906 81.6463 339.037 89.444C338.86 95.5669 338.323 101.673 337.427 107.728" stroke="#120071" stroke-width="0.769171" stroke-linecap="round" stroke-linejoin="round" />
  <path d="M354.681 88.5741C356.25 86.5051 358.008 84.5978 359.931 82.8786C363.694 79.6804 364.275 80.9234 363.851 81.6089C362.193 84.3048 359.061 88.3564 357.588 90.8958C355.07 95.2963 352.837 99.8652 350.903 104.572" stroke="#120071" stroke-width="0.769171" stroke-linecap="round" stroke-linejoin="round" />
  <path d="M360.141 87.0145C360.806 86.5066 360.913 86.4417 361.226 86.2164C365.288 83.3314 365.778 84.6584 365.279 85.3095C363.359 87.8546 360.136 91.2971 358.209 93.5444C355.764 95.9629 353.687 98.7517 352.049 101.816" stroke="#120071" stroke-width="0.769171" stroke-linecap="round" stroke-linejoin="round" />
  <path d="M124.731 78.8884L108.981 106.387L78.9141 99.2762" stroke="#120071" stroke-width="0.769171" stroke-linecap="round" stroke-linejoin="round" />
  <path d="M137.121 93.2537C133.753 85.5688 127.59 79.5756 119.977 76.5801C112.363 73.5846 103.916 73.8296 96.4759 77.2619C89.036 80.6941 83.2065 87.0353 80.258 94.9034C77.3094 102.772 77.4808 111.529 80.7348 119.266" stroke="#120071" stroke-width="0.769171" stroke-linecap="round" stroke-linejoin="round" />
  <path d="M323.741 84.3307L327.241 74.9711L318.246 71.4523L321.746 62.0565L312.647 58.2473L316.147 48.8878L306.872 45.115" stroke="#120071" stroke-width="0.769171" stroke-linecap="round" stroke-linejoin="round" />
  <path d="M327.556 68.5495L331.056 59.19L322.096 55.6711L325.596 46.2753L316.461 42.4662L319.996 33.1067L310.687 29.3701" stroke="#120071" stroke-width="0.769171" stroke-linecap="round" stroke-linejoin="round" />
  <path d="M331.997 238.589C334.989 245.34 336.449 252.711 336.267 260.137C335.83 271.342 331.769 282.069 324.736 290.591C317.703 299.113 308.109 304.934 297.497 307.118C286.884 309.301 275.871 307.718 266.231 302.625C256.592 297.532 248.886 289.224 244.356 279.04" stroke="#120071" stroke-width="0.769171" stroke-linecap="round" stroke-linejoin="round" />
  <path d="M329.691 283.785L288.217 258.898L293.747 307.766" stroke="#120071" stroke-width="0.769171" stroke-linecap="round" stroke-linejoin="round" />
  <path d="M288.216 258.898L251.78 290.931" stroke="#120071" stroke-width="0.769171" stroke-linecap="round" stroke-linejoin="round" />
  <path d="M185.246 16.9998L196.306 41.7045" stroke="#120071" stroke-width="0.769171" stroke-linecap="round" stroke-linejoin="round" />
  <path d="M202.711 23.6023L178.841 35.1022" stroke="#120071" stroke-width="0.769171" stroke-linecap="round" stroke-linejoin="round" />
  <path d="M87.8389 288.318L81.014 298.224L76.1509 287.121L87.8389 288.318Z" stroke="#120071" stroke-width="0.769171" stroke-linecap="round" stroke-linejoin="round" />
  <path d="M250.45 204.555L253.39 205.208" stroke="#120071" stroke-width="0.769171" stroke-linecap="round" stroke-linejoin="round" />
</svg>