<svg width="384" height="384" viewBox="0 0 384 384" fill="none" xmlns="http://www.w3.org/2000/svg">
  <rect width="384" height="384" rx="70" fill="white" />
  <path d="M254.392 116.859C253.464 110.823 248.357 104.59 243.582 101.572C243.084 101.241 242.588 100.942 242.09 100.644C231.28 108.131 211.516 120.242 188.303 123.923C186.513 124.221 184.324 123.789 182.964 125.016C178.688 128.83 177.826 142.161 167.248 142.458C165.787 146.174 164.462 149.754 163.036 152.805C164.765 150.383 177.401 152.68 180.61 153.402C183.758 154.099 197.338 157.799 196.76 160.698C199.147 155.556 198.219 150.352 196.661 144.912C215.595 141.266 241.825 127.868 254.392 116.859Z" fill="#30DDD4" />
  <path d="M88.7906 172.801C85.4228 176.038 81.1707 178.204 76.572 179.025C71.9733 179.845 67.2345 179.284 62.955 177.411C58.6755 175.538 55.0474 172.438 52.5296 168.504C50.0118 164.569 48.7173 159.976 48.8098 155.306C48.9024 150.635 50.3778 146.097 53.0495 142.265C55.7212 138.433 59.4692 135.48 63.8196 133.778C68.1699 132.076 72.9272 131.703 77.4898 132.705C82.0524 133.707 86.2153 136.04 89.4523 139.408C91.6035 141.643 93.293 144.28 94.4241 147.168C95.5553 150.057 96.1059 153.14 96.0444 156.242C95.9829 159.343 95.3106 162.402 94.066 165.244C92.8213 168.085 91.0287 170.653 88.7906 172.801Z" fill="#30DDD4" />
  <path d="M342.599 265.617C344.986 257.36 352.945 259.88 357.323 254.905C358.118 262.5 353.939 270.127 346.379 270.491L342.599 265.617Z" fill="#30DDD4" />
  <path d="M162.637 281.964C159.62 283.723 153.983 280.075 147.816 273.11C147.923 275.514 148.605 277.856 149.804 279.943C153.983 287.768 153.785 307.068 158.427 305.713C159.721 305.314 161.246 298.748 162.606 291.222C163.31 287.586 164.24 283.997 165.392 280.477C164.815 280.771 163.215 281.579 162.637 281.964Z" fill="#6153BD" />
  <path d="M181.937 115.666C182.546 117.436 183.443 119.094 184.591 120.573C187.508 120.143 190.75 119.258 191.354 117.921C191.458 117.695 191.549 117.463 191.62 117.224C190.858 119.645 186.447 118.02 181.937 115.666Z" fill="#6153BD" />
  <path d="M185.85 97.8578C179.98 91.6903 160.847 96.531 147.882 105.916C134.85 115.333 138.597 124.154 155.475 120.109C154.481 120.407 143.67 123.656 136.607 131.776C126.228 143.714 135.247 148.29 146.881 145.902C160.774 143.05 172.712 131.643 176.757 123.75C178.615 119.1 179.875 114.232 180.508 109.265C175.667 105.319 178.618 101.737 181.27 104.457C182.696 105.916 184.288 105.22 182.531 100.452C184.302 99.3535 186.428 99.0018 185.85 97.8578Z" fill="#6153BD" />
  <path d="M230.119 290.652C229.507 282.779 229.595 274.866 230.384 267.008C224.092 268.784 217.419 268.681 211.185 266.71C211.317 272.216 209.594 275 211.02 278.417C211.876 280.331 213.091 282.064 214.6 283.522C220.835 289.824 226.174 308.392 230.252 305.74C231.38 305.007 230.948 298.279 230.119 290.652Z" fill="#6153BD" />
  <path d="M167.744 151.745C167.447 153.284 166.978 154.785 166.351 156.221C160.946 153.535 162.207 151.778 167.744 151.745Z" fill="#6153BD" />
  <path d="M196.794 160.658C196.659 161.288 195.764 161.687 194.272 161.876C194.836 160.849 195.334 159.919 195.764 158.991C196.527 159.635 196.891 160.2 196.794 160.658Z" fill="#6153BD" />
  <path d="M211.648 211.532L208.166 221.513C208.033 217.634 207.901 213.82 207.833 210.073L211.648 211.532Z" fill="#6153BD" />
  <path d="M92.5588 281.996C83.6541 266.753 71.838 253.771 66.2555 255.921C58.7002 258.832 68.951 282.179 74.8294 292.376C84.711 309.487 96.649 321.093 101.629 318.415C108.867 314.382 97.0426 289.67 92.5588 281.996Z" fill="#6153BD" />
  <path d="M153.785 246.085C143.969 229.106 132.064 217.633 127.156 220.488C122.216 223.339 126.194 239.39 135.977 256.367C145.759 273.344 157.697 284.786 162.604 281.963C167.546 279.113 163.567 263.062 153.785 246.085Z" fill="#6153BD" />
  <path d="M165.39 280.472C164.242 283.993 163.311 287.581 162.604 291.217C161.26 298.746 159.722 305.321 158.425 305.708C153.791 307.101 153.966 287.773 149.802 279.937C148.601 277.852 147.919 275.509 147.814 273.104" stroke="#2900FF" stroke-width="0.769171" stroke-linecap="round" stroke-linejoin="round" />
  <path d="M280.158 155.69C279.496 154.619 278.607 153.707 277.554 153.018C276.501 152.329 275.309 151.88 274.063 151.702C272.817 151.525 271.547 151.624 270.343 151.992C269.14 152.36 268.032 152.988 267.098 153.832C266.728 152.573 266.072 151.416 265.183 150.45C264.293 149.485 263.193 148.737 261.968 148.265C260.204 147.585 258.264 147.509 256.452 148.05C254.64 148.591 253.058 149.719 251.956 151.255C251.29 152.177 250.812 153.221 250.551 154.328C249.522 153.553 248.331 153.02 247.067 152.769C245.803 152.518 244.498 152.556 243.251 152.88C242.004 153.204 240.846 153.805 239.863 154.639C238.881 155.473 238.099 156.518 237.577 157.696C236.88 159.272 236.674 161.023 236.988 162.718C235.869 162.425 234.703 162.359 233.558 162.524C232.413 162.69 231.313 163.083 230.323 163.681C229.205 164.367 228.26 165.3 227.56 166.41C226.861 167.519 226.425 168.774 226.287 170.078C226.15 171.382 226.313 172.7 226.766 173.931C227.218 175.162 227.947 176.273 228.897 177.177C227.144 177.867 225.667 179.116 224.695 180.73C223.723 182.344 223.311 184.234 223.522 186.106C223.659 187.348 224.068 188.544 224.718 189.611C225.626 191.112 226.981 192.289 228.593 192.979C230.205 193.669 231.992 193.837 233.704 193.458L279.996 165.075C281.16 164.374 282.576 159.596 280.158 155.69Z" stroke="#2900FF" stroke-width="0.769171" stroke-linecap="round" stroke-linejoin="round" />
  <path d="M245.042 168.854C245.858 169.624 246.462 170.591 246.796 171.662C247.13 172.732 247.183 173.871 246.95 174.969C246.718 176.066 246.206 177.085 245.466 177.928C244.726 178.771 243.781 179.409 242.722 179.782C241.304 180.279 239.758 180.273 238.343 179.764" stroke="#2900FF" stroke-width="0.769171" stroke-linecap="round" stroke-linejoin="round" />
  <path d="M265.667 163.019C265.482 164.359 264.888 165.61 263.966 166.601C263.043 167.591 261.837 168.273 260.513 168.552C259.189 168.831 257.81 168.695 256.567 168.161C255.323 167.628 254.274 166.723 253.563 165.571C253.263 165.073 253.028 164.538 252.867 163.98" stroke="#2900FF" stroke-width="0.769171" stroke-linecap="round" stroke-linejoin="round" />
  <path d="M267.093 153.832C266.202 154.673 265.461 155.66 264.904 156.752" stroke="#2900FF" stroke-width="0.769171" stroke-linecap="round" stroke-linejoin="round" />
  <path d="M231.916 176.618C230.888 176.67 229.87 176.859 228.892 177.179" stroke="#2900FF" stroke-width="0.769171" stroke-linecap="round" stroke-linejoin="round" />
  <path d="M250.546 154.33C250.329 155.411 250.293 156.52 250.44 157.612" stroke="#2900FF" stroke-width="0.769171" stroke-linecap="round" stroke-linejoin="round" />
  <path d="M240.269 164.257C239.274 163.553 238.162 163.032 236.983 162.719" stroke="#2900FF" stroke-width="0.769171" stroke-linecap="round" stroke-linejoin="round" />
  <path d="M291.963 174.856C289.503 170.804 284.425 170.082 283.541 170.745L237.215 199.164C235.89 199.96 234.07 204.774 236.586 208.845C237.241 209.909 238.121 210.817 239.163 211.505C240.206 212.193 241.386 212.645 242.621 212.829C243.858 213.013 245.119 212.922 246.316 212.565C247.514 212.207 248.618 211.592 249.552 210.761C250.083 212.587 251.21 214.184 252.754 215.297C254.297 216.409 256.167 216.974 258.069 216.902C259.97 216.83 261.792 216.124 263.246 214.897C264.7 213.67 265.702 211.992 266.093 210.13C267.463 211.179 269.117 211.789 270.838 211.881C272.56 211.973 274.27 211.543 275.743 210.646C277.216 209.75 278.384 208.43 279.094 206.859C279.805 205.287 280.023 203.538 279.722 201.84C281.56 202.304 283.499 202.146 285.237 201.389C286.974 200.632 288.411 199.321 289.324 197.66C290.234 195.997 290.567 194.079 290.269 192.207C289.972 190.335 289.061 188.615 287.68 187.317C288.855 186.87 289.919 186.171 290.794 185.268C291.669 184.365 292.335 183.28 292.745 182.091C293.153 180.902 293.295 179.637 293.16 178.387C293.024 177.136 292.616 175.931 291.963 174.856Z" stroke="#2900FF" stroke-width="0.769171" stroke-linecap="round" stroke-linejoin="round" />
  <path d="M264.274 200.224C264.019 199.362 263.589 198.561 263.011 197.871C262.433 197.182 261.719 196.619 260.914 196.217C260.109 195.815 259.23 195.584 258.331 195.537C257.433 195.489 256.534 195.628 255.691 195.943C254.565 196.365 253.576 197.089 252.834 198.036C252.108 198.971 251.639 200.08 251.474 201.252" stroke="#2900FF" stroke-width="0.769171" stroke-linecap="round" stroke-linejoin="round" />
  <path d="M278.832 184.513C277.414 184.025 275.871 184.037 274.461 184.547C273.05 185.057 271.856 186.034 271.078 187.316C270.299 188.599 269.982 190.108 270.181 191.595C270.379 193.082 271.08 194.457 272.167 195.49" stroke="#2900FF" stroke-width="0.769171" stroke-linecap="round" stroke-linejoin="round" />
  <path d="M287.685 187.325C286.517 187.757 285.282 187.981 284.037 187.989" stroke="#2900FF" stroke-width="0.769171" stroke-linecap="round" stroke-linejoin="round" />
  <path d="M251.387 208.368C250.891 209.253 250.272 210.063 249.552 210.777" stroke="#2900FF" stroke-width="0.769171" stroke-linecap="round" stroke-linejoin="round" />
  <path d="M279.728 201.849C278.66 201.543 277.65 201.064 276.738 200.432" stroke="#2900FF" stroke-width="0.769171" stroke-linecap="round" stroke-linejoin="round" />
  <path d="M266.193 206.587C266.35 207.768 266.319 208.967 266.099 210.139" stroke="#2900FF" stroke-width="0.769171" stroke-linecap="round" stroke-linejoin="round" />
  <path d="M237.215 199.164L232.275 202.147" stroke="#2900FF" stroke-width="0.769171" stroke-linecap="round" stroke-linejoin="round" />
  <path d="M233.701 193.459L228.826 196.411" stroke="#2900FF" stroke-width="0.769171" stroke-linecap="round" stroke-linejoin="round" />
  <path d="M208.002 216.904L155.343 248.869" stroke="#2900FF" stroke-width="0.769171" stroke-linecap="round" stroke-linejoin="round" />
  <path d="M206.94 209.708L151.993 243.101" stroke="#2900FF" stroke-width="0.769171" stroke-linecap="round" stroke-linejoin="round" />
  <path d="M253.696 117.456C265.489 116.365 277.347 118.704 287.842 124.193C298.337 129.681 307.023 138.086 312.855 148.394C330.469 178.666 321.242 217.762 292.261 235.706C274.133 246.93 269.102 240.996 233.899 251.029" stroke="#2900FF" stroke-width="0.769171" stroke-linecap="round" stroke-linejoin="round" />
  <path d="M162.984 281.706C179.087 273.308 193.478 265.967 208.3 259.913" stroke="#2900FF" stroke-width="0.769171" stroke-linecap="round" stroke-linejoin="round" />
  <path d="M164.826 192.232C153.652 201.185 141.415 209.907 127.123 220.452" stroke="#2900FF" stroke-width="0.769171" stroke-linecap="round" stroke-linejoin="round" />
  <path d="M212.843 140.17C205.893 150.618 198.096 160.478 189.531 169.65" stroke="#2900FF" stroke-width="0.769171" stroke-linecap="round" stroke-linejoin="round" />
  <path d="M242.057 100.677C247.661 103.827 253.365 110.294 254.392 116.858C241.824 127.868 215.596 141.265 196.661 144.912C198.22 150.351 199.148 155.558 196.76 160.698C197.339 157.802 183.957 154.149 180.61 153.402C177.344 152.672 164.751 150.405 163.036 152.805C164.462 149.754 165.789 146.172 167.248 142.458C177.826 142.16 178.671 128.81 182.964 125.016C184.317 123.822 186.447 124.222 188.303 123.923C211.502 120.149 231.281 108.138 242.09 100.644L242.057 100.677Z" stroke="#2900FF" stroke-width="0.769171" stroke-linecap="round" stroke-linejoin="round" />
  <path d="M164.934 158.707C174.427 158.557 183.777 161.04 191.944 165.881" stroke="#2900FF" stroke-width="0.769171" stroke-linecap="round" stroke-linejoin="round" />
  <path d="M191.467 117.578C190.386 119.469 186.207 117.895 181.937 115.662C182.545 117.433 183.442 119.091 184.591 120.569" stroke="#2900FF" stroke-width="0.769171" stroke-linecap="round" stroke-linejoin="round" />
  <path d="M187.074 124.047C184.763 123.479 185.381 122.354 184.591 120.573C190.824 119.652 191.904 118.504 191.648 115.38C191.274 110.843 188.61 100.956 185.85 97.8582" stroke="#2900FF" stroke-width="0.769171" stroke-linecap="round" stroke-linejoin="round" />
  <path d="M196.661 144.912C194.737 145.278 192.881 145.542 191.155 145.71" stroke="#2900FF" stroke-width="0.769171" stroke-linecap="round" stroke-linejoin="round" />
  <path d="M182.534 100.445C184.291 105.22 182.708 105.916 181.274 104.45C178.62 101.732 175.67 105.321 180.511 109.258C179.88 114.227 178.621 119.096 176.764 123.748C172.719 131.641 160.781 143.048 146.887 145.9C135.247 148.288 126.228 143.712 136.614 131.774C143.677 123.649 154.488 120.4 155.482 120.107C138.604 124.152 134.861 115.336 147.889 105.914C160.858 96.5342 179.987 91.6883 185.857 97.8558C186.417 98.9911 184.239 99.3916 182.534 100.445Z" stroke="#2900FF" stroke-width="0.769171" stroke-linecap="round" stroke-linejoin="round" />
  <path d="M167.248 142.458C168.999 137.719 171.256 133.183 173.98 128.928C175.056 127.318 175.978 125.608 176.731 123.823" stroke="#2900FF" stroke-width="0.769171" stroke-linecap="round" stroke-linejoin="round" />
  <path d="M189.581 169.597C191.88 166.211 193.952 162.676 195.782 159.014" stroke="#2900FF" stroke-width="0.769171" stroke-linecap="round" stroke-linejoin="round" />
  <path d="M261.622 99.0522C266.628 97.8577 270.749 100.114 270.408 102.037C270.331 102.422 270.174 102.787 269.945 103.107C269.717 103.427 269.423 103.695 269.083 103.893" stroke="#2900FF" stroke-width="0.769171" stroke-linecap="round" stroke-linejoin="round" />
  <path d="M261.157 96.0015C266.429 94.7408 271.669 97.3944 269.414 100.18" stroke="#2900FF" stroke-width="0.769171" stroke-linecap="round" stroke-linejoin="round" />
  <path d="M253.828 114.472C256.948 110.91 260.952 108.234 265.435 106.713" stroke="#2900FF" stroke-width="0.769171" stroke-linecap="round" stroke-linejoin="round" />
  <path d="M261.422 102.633C266.297 101.639 269.508 103.561 269.315 105.452C269.076 107.773 264.439 111.289 260.527 109.034" stroke="#2900FF" stroke-width="0.769171" stroke-linecap="round" stroke-linejoin="round" />
  <path d="M257.311 94.2427C257.377 94.1765 259.4 91.3592 258.505 90.4624C257.743 89.6998 246.733 98.7525 243.649 101.638" stroke="#2900FF" stroke-width="0.769171" stroke-linecap="round" stroke-linejoin="round" />
  <path d="M263.644 95.6692C272.399 91.4588 274.749 86.3796 273.095 87.3112C267.575 90.0745 261.906 92.5322 256.116 94.6732C251.635 96.3783 247.424 98.7243 243.616 101.638" stroke="#2900FF" stroke-width="0.769171" stroke-linecap="round" stroke-linejoin="round" />
  <path d="M230.384 267.008C229.602 274.867 229.513 282.779 230.119 290.653C230.964 298.278 231.378 305.01 230.252 305.741C226.17 308.389 220.823 289.836 214.6 283.523C213.089 282.067 211.873 280.334 211.02 278.417C209.59 274.996 211.323 272.206 211.183 266.683" stroke="#2900FF" stroke-width="0.769171" stroke-linecap="round" stroke-linejoin="round" />
  <path d="M153.785 246.085C163.579 263.055 167.549 279.118 162.604 281.955C157.701 284.779 145.759 273.334 135.977 256.359C126.195 239.383 122.219 223.343 127.156 220.485C132.092 217.628 143.981 229.099 153.785 246.085Z" stroke="#2900FF" stroke-width="0.769171" stroke-linecap="round" stroke-linejoin="round" />
  <path d="M103.454 309.068C100.974 293.635 86.0691 267.959 73.9674 258.687C67.7163 253.844 63.2396 254.701 63.7515 262.822C64.7231 278.232 81.8832 307.962 94.6918 316.686C101.803 321.527 104.861 317.828 103.454 309.068Z" stroke="#2900FF" stroke-width="0.769171" stroke-linecap="round" stroke-linejoin="round" />
  <path d="M101.958 318.241L111.803 312.545C112.751 311.802 113.395 310.738 113.615 309.554C113.835 308.369 113.615 307.145 112.998 306.111C116.916 312.012 124.603 305.92 121.519 300.806C124.38 305.681 133.376 302.533 129.677 295.136C130.514 296.223 131.709 296.979 133.05 297.27C134.391 297.562 135.791 297.369 137.004 296.728C141.009 294.172 139.524 289.2 137.039 281.109C132.391 267.211 125.018 254.381 115.352 243.367C113.029 240.6 110.369 238.134 107.434 236.026C102.794 233.148 97.5737 235.305 99.3689 243.136C97.8923 240.675 96.1598 239.066 93.2328 239.852C92.494 240.058 91.8129 240.432 91.2426 240.945C90.6724 241.458 90.2284 242.095 89.9453 242.808C89.6624 243.521 89.5487 244.29 89.6131 245.054C89.6774 245.819 89.9181 246.558 90.3162 247.214C90.3162 247.214 86.8807 242.871 82.9872 245.955C82.021 246.708 81.3701 247.795 81.1615 249.002C80.9529 250.21 81.2015 251.452 81.8589 252.486C81.3875 251.653 80.6778 250.979 79.8209 250.552C78.9639 250.125 77.9989 249.963 77.0496 250.088C76.4192 250.171 75.8113 250.377 75.2613 250.696L65.9944 256.028" stroke="#2900FF" stroke-width="0.769171" stroke-linecap="round" stroke-linejoin="round" />
  <path d="M342.599 265.617C338.509 267.876 334.586 270.424 330.861 273.244C319.915 281.697 309.24 292.31 310.662 294.168C312.085 296.026 325.024 288.403 335.996 279.942C339.674 277.052 343.132 273.893 346.342 270.491" stroke="#2900FF" stroke-width="0.769171" stroke-linecap="round" stroke-linejoin="round" />
  <path d="M342.599 265.617C344.986 257.36 352.945 259.88 357.323 254.905C358.118 262.5 353.939 270.127 346.379 270.491L342.599 265.617Z" stroke="#2900FF" stroke-width="0.769171" stroke-linecap="round" stroke-linejoin="round" />
  <path d="M332.237 272.204L337.359 278.847" stroke="#2900FF" stroke-width="0.769171" stroke-linecap="round" stroke-linejoin="round" />
  <path d="M350.393 106.779L346.048 116.51H354.006L349.628 126.244" stroke="#2900FF" stroke-width="0.769171" stroke-linecap="round" stroke-linejoin="round" />
  <path d="M195.764 347.158L178.124 347.688" stroke="#2900FF" stroke-width="0.769171" stroke-linecap="round" stroke-linejoin="round" />
  <path d="M187.21 356.244L186.678 338.601" stroke="#2900FF" stroke-width="0.769171" stroke-linecap="round" stroke-linejoin="round" />
  <path d="M167.744 151.745C167.447 153.284 166.978 154.785 166.351 156.222C160.946 153.535 162.207 151.778 167.744 151.745Z" stroke="#2900FF" stroke-width="0.769171" stroke-linecap="round" stroke-linejoin="round" />
  <path d="M196.76 160.698C196.6 161.299 195.749 161.691 194.309 161.886" stroke="#2900FF" stroke-width="0.769171" stroke-linecap="round" stroke-linejoin="round" />
  <path d="M167.744 151.745C167.201 155.512 165.288 158.947 162.372 161.393C149.341 171.74 149.139 186.23 158.658 197.075" stroke="#2900FF" stroke-width="0.769171" stroke-linecap="round" stroke-linejoin="round" />
  <path d="M65.4143 256.39L50.7217 264.72" stroke="#2900FF" stroke-width="0.769171" stroke-linecap="round" stroke-linejoin="round" />
  <path d="M101.284 318.605L88.0942 326.299" stroke="#2900FF" stroke-width="0.769171" stroke-linecap="round" stroke-linejoin="round" />
  <path d="M81.7264 330.312L71.9441 336.016" stroke="#2900FF" stroke-width="0.769171" stroke-linecap="round" stroke-linejoin="round" />
  <path d="M43.8908 268.998L33.9099 274.669" stroke="#2900FF" stroke-width="0.769171" stroke-linecap="round" stroke-linejoin="round" />
  <path d="M74.8625 292.376L42.7295 311.377" stroke="#2900FF" stroke-width="0.769171" stroke-linecap="round" stroke-linejoin="round" />
  <path d="M36.3303 315.39L26.5811 321.06" stroke="#2900FF" stroke-width="0.769171" stroke-linecap="round" stroke-linejoin="round" />
  <path d="M88.7906 172.801C85.4228 176.038 81.1707 178.204 76.572 179.025C71.9733 179.845 67.2345 179.284 62.955 177.411C58.6755 175.538 55.0474 172.438 52.5296 168.504C50.0118 164.569 48.7173 159.976 48.8098 155.306C48.9024 150.635 50.3778 146.097 53.0495 142.265C55.7212 138.433 59.4692 135.48 63.8196 133.778C68.1699 132.076 72.9272 131.703 77.4898 132.705C82.0524 133.707 86.2153 136.04 89.4523 139.408C91.6035 141.643 93.293 144.28 94.4241 147.168C95.5553 150.057 96.1058 153.14 96.0444 156.242C95.9829 159.343 95.3106 162.402 94.066 165.244C92.8213 168.085 91.0287 170.653 88.7906 172.801Z" stroke="#2900FF" stroke-width="0.769171" stroke-linecap="round" stroke-linejoin="round" />
  <path d="M96.0187 157.175C103.348 160.658 107.685 163.966 107.062 166.056C105.946 169.829 89.4525 168.377 70.1873 162.805C50.9221 157.233 36.1928 149.653 37.2916 145.875C37.9184 143.717 43.4922 143.254 51.7439 144.283" stroke="#2900FF" stroke-width="0.769171" stroke-linecap="round" stroke-linejoin="round" />
  <path d="M159.961 181.82C160.922 187.855 164.314 193.388 168.881 194.82C183.144 199.281 207.844 210.106 207.844 210.106C208.152 227.184 209.698 245.976 208.044 265.617C215.952 268.946 224.83 269.147 232.881 266.18C234.274 247.644 235.167 229.869 234.836 213.455C234.762 209.37 233.815 205.349 232.059 201.66C230.303 197.972 227.78 194.701 224.657 192.067C211.769 181.413 197.401 172.689 182.003 166.169" stroke="#2900FF" stroke-width="0.769171" stroke-linecap="round" stroke-linejoin="round" />
  <path d="M207.835 210.106L211.648 211.532L208.167 221.513" stroke="#2900FF" stroke-width="0.769171" stroke-linecap="round" stroke-linejoin="round" />
  <path d="M208.731 252.517C216.793 255.284 225.474 255.709 233.767 253.745" stroke="#2900FF" stroke-width="0.769171" stroke-linecap="round" stroke-linejoin="round" />
  <path d="M201.436 27.7566V33.2955" stroke="#2900FF" stroke-width="0.769171" stroke-linecap="round" stroke-linejoin="round" />
  <path d="M212.212 38.5339H206.673" stroke="#2900FF" stroke-width="0.769171" stroke-linecap="round" stroke-linejoin="round" />
  <path d="M201.436 49.3119V43.7729" stroke="#2900FF" stroke-width="0.769171" stroke-linecap="round" stroke-linejoin="round" />
  <path d="M190.659 38.5339H196.2" stroke="#2900FF" stroke-width="0.769171" stroke-linecap="round" stroke-linejoin="round" />
  <path d="M206.673 38.5333C205.985 38.5354 205.303 38.4013 204.667 38.1389C204.03 37.8764 203.452 37.4906 202.965 37.0039C202.478 36.5171 202.093 35.9389 201.83 35.3025C201.568 34.6661 201.434 33.9841 201.436 33.2957C201.439 34.3321 201.134 35.3461 200.558 36.2082C199.983 37.0704 199.164 37.7416 198.206 38.1363C197.57 38.3995 196.888 38.5344 196.2 38.5333C196.888 38.5317 197.57 38.6662 198.206 38.929C198.842 39.1917 199.42 39.5777 199.907 40.0645C200.393 40.5514 200.779 41.1297 201.041 41.7661C201.304 42.4025 201.438 43.0844 201.436 43.7728C201.434 43.0843 201.568 42.4022 201.83 41.7657C202.093 41.1292 202.478 40.5508 202.965 40.0639C203.452 39.577 204.03 39.1911 204.666 38.9285C205.303 38.6658 205.985 38.5315 206.673 38.5333Z" stroke="#2900FF" stroke-width="0.769171" stroke-linecap="round" stroke-linejoin="round" />
</svg>