<svg width="384" height="384" viewBox="0 0 384 384" fill="none" xmlns="http://www.w3.org/2000/svg">
  <rect width="384" height="384" rx="70" fill="white" />
  <path d="M181.534 60.3647L99.3196 98.7088L110.568 122.86L192.816 84.5159L181.534 60.3647Z" fill="#30DDD4" />
  <path d="M147.384 174.805L122.703 186.318L134.631 211.885L159.311 200.371L147.384 174.805Z" fill="#30DDD4" />
  <path d="M277.411 53.8804L222.327 174.801L231.425 178.904L286.509 58.0158L277.411 53.8804Z" fill="#30DDD4" />
  <path d="M308.774 68.0404L253.657 188.928L244.559 184.826L299.643 63.938L308.774 68.0404Z" fill="#30DDD4" />
  <path d="M290.578 39.3896L282.903 56.3616L303.812 65.7905L311.454 48.8185L290.578 39.3896Z" fill="#6153BD" />
  <path d="M144.613 69.4957C143.981 68.2608 143 67.2389 141.792 66.5574C140.584 65.876 139.202 65.565 137.818 65.6633C136.435 65.7615 135.11 66.2647 134.011 67.11C132.911 67.9554 132.084 69.1056 131.633 70.4175C131.182 71.7293 131.128 73.1448 131.475 74.4876C131.823 75.8304 132.558 77.0413 133.589 77.9693C134.62 78.8973 135.902 79.5015 137.273 79.7067C138.645 79.9119 140.047 79.7089 141.305 79.1231C142.155 78.7089 142.915 78.1311 143.541 77.4229C144.167 76.7146 144.648 75.8898 144.955 74.9955C145.263 74.1013 145.391 73.1553 145.332 72.2115C145.273 71.2678 145.029 70.3449 144.613 69.4957Z" fill="#6153BD" />
  <path d="M55.1857 195.446C55.0264 195.115 54.7719 194.839 54.4549 194.654C54.1379 194.468 53.7727 194.381 53.4062 194.405C53.1321 194.42 52.865 194.497 52.6241 194.628C52.3832 194.76 52.1745 194.943 52.0132 195.166C51.8519 195.388 51.742 195.643 51.6914 195.913C51.6408 196.182 51.6508 196.46 51.7207 196.726C51.8201 197.112 52.0414 197.455 52.3517 197.705C52.662 197.956 53.0446 198.099 53.4429 198.115C53.8412 198.13 54.2338 198.017 54.5626 197.791C54.8913 197.566 55.1385 197.24 55.2676 196.863C55.4284 196.398 55.399 195.889 55.1857 195.446Z" fill="#6153BD" />
  <path d="M231.557 205.371L225.734 209.738L225.006 202.427L231.557 205.371Z" fill="#6153BD" />
  <path d="M333.488 170.038L341.825 187.936" stroke="#120071" stroke-width="0.769171" stroke-linecap="round" stroke-linejoin="round" />
  <path d="M346.623 174.834L328.691 183.138" stroke="#120071" stroke-width="0.769171" stroke-linecap="round" stroke-linejoin="round" />
  <path d="M228.645 352.859C228.812 353.576 228.762 354.325 228.501 355.013C228.241 355.701 227.782 356.296 227.183 356.723C226.735 357.041 226.222 357.256 225.681 357.353C225.141 357.45 224.585 357.426 224.055 357.283C223.524 357.141 223.032 356.882 222.613 356.527C222.194 356.171 221.859 355.727 221.632 355.227C221.421 354.754 221.312 354.243 221.31 353.726C221.309 353.208 221.415 352.696 221.623 352.222C221.83 351.748 222.135 351.323 222.516 350.974C222.898 350.624 223.348 350.358 223.838 350.192C224.329 350.027 224.848 349.966 225.363 350.012C225.879 350.059 226.379 350.213 226.831 350.464C227.283 350.715 227.679 351.057 227.991 351.47C228.303 351.882 228.526 352.355 228.645 352.859Z" stroke="#120071" stroke-width="0.769171" stroke-linecap="round" stroke-linejoin="round" />
  <path d="M197.249 28.7039C197.371 29.2307 197.333 29.7818 197.141 30.2871C196.948 30.7924 196.61 31.2293 196.169 31.5422C195.841 31.777 195.464 31.9358 195.066 32.0071C194.668 32.0784 194.26 32.0604 193.87 31.9544C193.48 31.8484 193.118 31.6571 192.811 31.3943C192.504 31.1315 192.26 30.8037 192.095 30.4347C191.929 30.0664 191.846 29.6658 191.854 29.2618C191.862 28.8578 191.959 28.4605 192.138 28.0987C192.318 27.7368 192.576 27.4194 192.893 27.1693C193.211 26.9193 193.58 26.7428 193.974 26.6527C194.68 26.4969 195.418 26.6245 196.031 27.0082C196.644 27.3919 197.081 28.0008 197.249 28.7039Z" stroke="#120071" stroke-width="0.769171" stroke-linecap="round" stroke-linejoin="round" />
  <path d="M187.191 72.4399L221.731 56.3281L249.323 115.515" stroke="#120071" stroke-width="0.769171" stroke-linecap="round" stroke-linejoin="round" />
  <path d="M268.445 156.506L318.766 264.459L167.441 335.028L70.3713 126.896L104.944 110.785" stroke="#120071" stroke-width="0.769171" stroke-linecap="round" stroke-linejoin="round" />
  <path d="M192.816 84.5164L110.568 122.86L99.3196 98.7093L181.534 60.3652L192.816 84.5164Z" stroke="#120071" stroke-width="0.769171" stroke-linecap="round" stroke-linejoin="round" />
  <path d="M144.613 69.4959C145.157 70.7733 145.312 72.1825 145.061 73.5478C144.809 74.9131 144.161 76.1741 143.197 77.1735C142.233 78.1729 140.997 78.8665 139.641 79.1679C138.286 79.4692 136.872 79.365 135.576 78.8681C134.28 78.3712 133.158 77.5037 132.351 76.3738C131.545 75.2439 131.089 73.9015 131.04 72.514C130.991 71.1265 131.352 69.7554 132.077 68.5715C132.802 67.3876 133.86 66.4434 135.118 65.8567C136.86 65.0804 138.838 65.0278 140.619 65.7102C142.4 66.3927 143.836 67.7544 144.613 69.4959Z" stroke="#120071" stroke-width="0.769171" stroke-linecap="round" stroke-linejoin="round" />
  <path d="M224.642 115.316L113.711 167.026L102.032 142.014L212.964 90.2715L224.642 115.316Z" stroke="#120071" stroke-width="0.769171" stroke-linecap="round" stroke-linejoin="round" />
  <path d="M159.302 200.375L134.62 211.888L122.71 186.314L147.392 174.801L159.302 200.375Z" stroke="#120071" stroke-width="0.769171" stroke-linecap="round" stroke-linejoin="round" />
  <path d="M237.181 142.214L224.51 170.004L180.277 190.615L168.334 165.041L233.608 134.571L237.181 142.214Z" stroke="#120071" stroke-width="0.769171" stroke-linecap="round" stroke-linejoin="round" />
  <path d="M180.11 244.971L155.431 256.484L143.486 230.878L168.169 219.397L180.112 244.971H180.11Z" stroke="#120071" stroke-width="0.769171" stroke-linecap="round" stroke-linejoin="round" />
  <path d="M256.27 183.206L266.328 204.776L201.054 235.18L189.144 209.606L224.113 193.296" stroke="#120071" stroke-width="0.769171" stroke-linecap="round" stroke-linejoin="round" />
  <path d="M200.889 289.571L176.208 301.052L164.263 275.476L188.978 263.963L200.889 289.571Z" stroke="#120071" stroke-width="0.769171" stroke-linecap="round" stroke-linejoin="round" />
  <path d="M287.138 249.34L221.864 279.779L209.92 254.203L275.195 223.766L287.138 249.34Z" stroke="#120071" stroke-width="0.769171" stroke-linecap="round" stroke-linejoin="round" />
  <path d="M120.262 191.277L144.646 201.169L150.734 171.791" stroke="#120071" stroke-width="0.769171" stroke-linecap="round" stroke-linejoin="round" />
  <path d="M170.22 213.575L153.38 262.308" stroke="#120071" stroke-width="0.769171" stroke-linecap="round" stroke-linejoin="round" />
  <path d="M185.835 247.223L137.764 228.663" stroke="#120071" stroke-width="0.769171" stroke-linecap="round" stroke-linejoin="round" />
  <path d="M190.996 258.14L174.156 306.874" stroke="#120071" stroke-width="0.769171" stroke-linecap="round" stroke-linejoin="round" />
  <path d="M206.645 291.787L158.541 273.226" stroke="#120071" stroke-width="0.769171" stroke-linecap="round" stroke-linejoin="round" />
  <path d="M308.774 68.0402L253.657 188.928L222.327 174.801L277.411 53.8804L308.774 68.0402Z" stroke="#120071" stroke-width="0.769171" stroke-linecap="round" stroke-linejoin="round" />
  <path d="M311.454 48.8185L303.812 65.7905L282.903 56.3616L290.578 39.3896L311.454 48.8185Z" stroke="#120071" stroke-width="0.769171" stroke-linecap="round" stroke-linejoin="round" />
  <path d="M253.657 188.928L225.734 209.738L222.327 174.801" stroke="#120071" stroke-width="0.769171" stroke-linecap="round" stroke-linejoin="round" />
  <path d="M225.006 202.427L231.557 205.371" stroke="#120071" stroke-width="0.769171" stroke-linecap="round" stroke-linejoin="round" />
  <path d="M286.509 57.9834L231.425 178.905" stroke="#120071" stroke-width="0.769171" stroke-linecap="round" stroke-linejoin="round" />
  <path d="M299.643 63.9385L244.559 184.827" stroke="#120071" stroke-width="0.769171" stroke-linecap="round" stroke-linejoin="round" />
  <path d="M50.0908 189.226C49.0983 187.109 49.1644 185.19 50.0908 180.426C52.0636 170.282 46.1608 166.731 41.2905 168.847C40.5084 169.181 39.8002 169.666 39.2067 170.275C38.6131 170.884 38.146 171.605 37.8323 172.395C37.5186 173.186 37.3645 174.03 37.3788 174.881C37.3932 175.731 37.5758 176.57 37.916 177.349C38.0797 177.72 38.2799 178.075 38.5115 178.408" stroke="#120071" stroke-width="0.769171" stroke-linecap="round" stroke-linejoin="round" />
  <path d="M55.1856 195.446C55.2918 195.665 55.3538 195.903 55.368 196.147C55.3821 196.39 55.3482 196.634 55.2682 196.864C55.1882 197.094 55.0636 197.307 54.9015 197.489C54.7395 197.671 54.5431 197.819 54.3237 197.925C54.1043 198.032 53.8661 198.094 53.6228 198.108C53.3794 198.122 53.1357 198.088 52.9054 198.008C52.6752 197.928 52.463 197.803 52.2809 197.641C52.0988 197.479 51.9504 197.283 51.8442 197.063C51.6297 196.62 51.6 196.11 51.7616 195.645C51.9232 195.18 52.263 194.798 52.7061 194.584C53.1492 194.369 53.6594 194.34 54.1244 194.501C54.5894 194.663 54.9711 195.003 55.1856 195.446Z" stroke="#120071" stroke-width="0.769171" stroke-linejoin="round" />
</svg>