<svg width="24" height="24" viewBox="0 0 24 24" fill="none" xmlns="http://www.w3.org/2000/svg">
  <path d="M11.908 0.511719C5.58129 0.511719 0.451172 5.64183 0.451172 11.9751C0.451172 18.3084 5.58129 23.432 11.908 23.432C18.2347 23.432 23.3648 18.3018 23.3648 11.9751C23.3648 5.64844 18.2347 0.511719 11.908 0.511719Z" fill="white" />
  <path d="M11.9086 16.0672C14.1629 16.0672 16.0008 14.236 16.0008 11.975C16.0008 9.71405 14.1629 7.88281 11.9086 7.88281C9.65426 7.88281 7.81641 9.72066 7.81641 11.975C7.81641 14.2293 9.64765 16.0672 11.9086 16.0672ZM8.80805 11.975C8.80805 10.2628 10.1964 8.87446 11.9086 8.87446C13.6208 8.87446 15.0091 10.2628 15.0091 11.975C15.0091 13.6872 13.6208 15.0755 11.9086 15.0755C10.1964 15.0755 8.80805 13.6872 8.80805 11.975Z" fill="#0A2463" />
  <path d="M15.9744 18.7714H7.80981C6.27607 18.7714 5.0332 17.5285 5.0332 15.9947V7.95581C5.0332 6.42206 6.27607 5.1792 7.80981 5.1792H15.9744C17.5081 5.1792 18.751 6.42867 18.751 7.95581V15.9947C18.751 17.5285 17.5081 18.7714 15.9744 18.7714ZM7.80981 6.19068C6.838 6.19068 6.04468 6.98399 6.04468 7.95581V15.9947C6.04468 16.9666 6.838 17.7599 7.80981 17.7599H15.9744C16.9462 17.7599 17.7395 16.9666 17.7395 15.9947V7.95581C17.7395 6.98399 16.9462 6.19068 15.9744 6.19068H7.80981Z" fill="#0A2463" />
  <path d="M16.0547 7.42139C15.6974 7.42139 15.4062 7.71252 15.4062 8.06983C15.4062 8.42713 15.6974 8.71827 16.0547 8.71827C16.412 8.71827 16.7031 8.42713 16.7031 8.06983C16.7031 7.71252 16.412 7.42139 16.0547 7.42139Z" fill="#0A2463" />
</svg>