<svg width="24" height="24" viewBox="0 0 24 24" fill="none" xmlns="http://www.w3.org/2000/svg">
  <path d="M23.8637 11.9768C23.8637 5.6567 18.7402 0.533203 12.4202 0.533203C6.10006 0.533203 0.976562 5.6567 0.976562 11.9768C0.976562 18.2969 6.10006 23.4204 12.4202 23.4204C18.7402 23.4204 23.8637 18.2969 23.8637 11.9768Z" fill="white" />
  <path d="M9.62366 9.18701H6.97266V16.7632H9.62366V9.18701Z" fill="#0A2463" />
  <path d="M8.29542 5.39893C7.46905 5.39893 6.81457 6.15919 7.00629 7.01861C7.11867 7.52105 7.52194 7.91771 8.02437 8.01687C8.87719 8.18875 9.62424 7.54749 9.62424 6.72112C9.62424 5.99391 9.03585 5.39893 8.29542 5.39893Z" fill="#0A2463" />
  <path d="M18.3302 11.5141C18.1517 10.0861 17.4377 9.18701 15.5073 9.18701C14.1388 9.18701 13.5901 9.39856 13.2794 10.0002V9.18701H11.1309V16.7632H13.3389V12.7966C13.3389 11.805 13.524 11.0579 14.7471 11.0579C15.9701 11.0579 16.0494 11.9768 16.0494 12.8561V16.7566H18.3236C18.3236 16.7566 18.3699 11.8446 18.3236 11.5141H18.3302Z" fill="#0A2463" />
</svg>