<svg width="32" height="31" viewBox="0 0 32 31" fill="none" xmlns="http://www.w3.org/2000/svg">
<path d="M31.2053 15.4054C31.2053 6.89728 24.3081 0 15.7999 0C7.29181 0 0.394531 6.89728 0.394531 15.4054C0.394531 23.9135 7.29181 30.8108 15.7999 30.8108C24.3081 30.8108 31.2053 23.9135 31.2053 15.4054Z" fill="#0051DE"/>
<path d="M12.0356 11.6494H8.4668V21.8485H12.0356V11.6494Z" fill="white"/>
<path d="M10.2475 6.55078C9.13505 6.55078 8.25398 7.57425 8.51207 8.73121C8.66337 9.40759 9.20624 9.94157 9.88262 10.0751C11.0307 10.3065 12.0364 9.44319 12.0364 8.33072C12.0364 7.35176 11.2443 6.55078 10.2475 6.55078Z" fill="white"/>
<path d="M23.7562 14.7821C23.5159 12.8598 22.5548 11.6494 19.9561 11.6494C18.1138 11.6494 17.3751 11.9342 16.9569 12.7441V11.6494H14.0645V21.8485H17.037V16.5087C17.037 15.1737 17.2862 14.168 18.9326 14.168C20.579 14.168 20.6858 15.4051 20.6858 16.5888V21.8396H23.7473C23.7473 21.8396 23.8096 15.2271 23.7473 14.7821H23.7562Z" fill="white"/>
</svg>
