<svg width="100" height="101" viewBox="0 0 100 101" fill="none" xmlns="http://www.w3.org/2000/svg">
<path d="M79.1663 38C79.1663 44.0417 77.3747 49.5834 74.2913 54.2084C69.7913 60.8751 62.6663 65.5834 54.3747 66.7917C52.958 67.0417 51.4997 67.1667 49.9997 67.1667C48.4997 67.1667 47.0413 67.0417 45.6247 66.7917C37.333 65.5834 30.208 60.8751 25.708 54.2084C22.6247 49.5834 20.833 44.0417 20.833 38C20.833 21.875 33.8747 8.83337 49.9997 8.83337C66.1247 8.83337 79.1663 21.875 79.1663 38Z" stroke="white" stroke-width="5" stroke-linecap="round" stroke-linejoin="round"/>
<path d="M88.5412 77.4584L81.6662 79.0833C80.1245 79.4583 78.9162 80.6251 78.5828 82.1667L77.1245 88.2917C76.3328 91.6251 72.0828 92.6251 69.8745 90.0001L49.9995 67.1667L30.1245 90.0417C27.9162 92.6667 23.6662 91.6666 22.8745 88.3333L21.4162 82.2083C21.0412 80.6666 19.8328 79.4583 18.3328 79.125L11.4578 77.5001C8.29118 76.7501 7.16618 72.7916 9.45785 70.5L25.7078 54.25C30.2078 60.9167 37.3328 65.6251 45.6245 66.8334C47.0412 67.0834 48.4995 67.2084 49.9995 67.2084C51.4995 67.2084 52.9578 67.0834 54.3745 66.8334C62.6662 65.6251 69.7912 60.9167 74.2912 54.25L90.5412 70.5C92.8328 72.75 91.7078 76.7084 88.5412 77.4584Z" stroke="white" stroke-width="5" stroke-linecap="round" stroke-linejoin="round"/>
<path d="M52.4162 25.4166L54.8746 30.3333C55.2079 30.9999 56.0829 31.6666 56.8746 31.7916L61.3329 32.5416C64.1662 32.9999 64.8329 35.0833 62.7912 37.1249L59.3329 40.5832C58.7496 41.1666 58.4162 42.2916 58.6246 43.125L59.6246 47.4166C60.4162 50.7916 58.6246 52.1249 55.6246 50.3332L51.4579 47.8749C50.7079 47.4166 49.4579 47.4166 48.7079 47.8749L44.5412 50.3332C41.5412 52.0832 39.7496 50.7916 40.5412 47.4166L41.5412 43.125C41.7079 42.3333 41.4162 41.1666 40.8329 40.5832L37.3746 37.1249C35.3329 35.0833 35.9996 33.0416 38.8329 32.5416L43.2912 31.7916C44.0412 31.6666 44.9162 30.9999 45.2496 30.3333L47.7079 25.4166C48.9162 22.75 51.0829 22.75 52.4162 25.4166Z" stroke="white" stroke-width="5" stroke-linecap="round" stroke-linejoin="round"/>
</svg>
