<svg width="41" height="45" viewBox="0 0 41 45" fill="none" xmlns="http://www.w3.org/2000/svg">
<path d="M1.4043 26.6807V35.9792C1.4043 36.6796 1.97428 37.2472 2.67738 37.2472H14.1351" stroke="black" stroke-width="2.54616" stroke-linecap="round" stroke-linejoin="round"/>
<path d="M33.2311 26.6807V35.9792C33.2311 36.6796 32.6612 37.2472 31.958 37.2472H22.6221" stroke="black" stroke-width="2.54616" stroke-linecap="round" stroke-linejoin="round"/>
<path d="M22.6221 7.66064H31.958C32.6612 7.66064 33.2311 8.22834 33.2311 8.92863V18.2272" stroke="black" stroke-width="2.54616" stroke-linecap="round" stroke-linejoin="round"/>
<path d="M1.4043 18.2272V8.92863C1.4043 8.22834 1.97428 7.66064 2.67738 7.66064H14.1351" stroke="black" stroke-width="2.54616" stroke-linecap="round" stroke-linejoin="round"/>
<path d="M22.622 37.2471V39.3604C22.622 41.6947 20.7221 43.587 18.3784 43.587C16.0346 43.587 14.1348 41.6947 14.1348 39.3604V37.2471" stroke="black" stroke-width="2.54616" stroke-linecap="round" stroke-linejoin="round"/>
<path d="M1.4043 18.2271H3.5261C5.86977 18.2271 7.76969 20.1193 7.76969 22.4537C7.76969 24.788 5.86977 26.6803 3.5261 26.6803H1.4043" stroke="black" stroke-width="2.54616" stroke-linecap="round" stroke-linejoin="round"/>
<path d="M33.2314 18.2271H35.3532C37.697 18.2271 39.5968 20.1193 39.5968 22.4537C39.5968 24.788 37.697 26.6803 35.3532 26.6803H33.2314" stroke="black" stroke-width="2.54616" stroke-linecap="round" stroke-linejoin="round"/>
<path d="M22.622 7.66074V5.54742C22.622 3.21312 20.7221 1.3208 18.3784 1.3208C16.0346 1.3208 14.1348 3.21312 14.1348 5.54742V7.66074" stroke="black" stroke-width="2.54616" stroke-linecap="round" stroke-linejoin="round"/>
</svg>
