<svg width="23" height="23" viewBox="0 0 23 23" fill="none" xmlns="http://www.w3.org/2000/svg">
<mask id="mask0_3001_4503" style="mask-type:luminance" maskUnits="userSpaceOnUse" x="13" y="2" width="9" height="9">
<path fill-rule="evenodd" clip-rule="evenodd" d="M13.4155 2.28516H21.1413V10.0053H13.4155V2.28516Z" fill="white"/>
</mask>
<g mask="url(#mask0_3001_4503)">
<path fill-rule="evenodd" clip-rule="evenodd" d="M20.4624 10.0053C20.1214 10.0053 19.8282 9.74927 19.7893 9.40275C19.4464 6.34827 17.0741 3.9778 14.0187 3.63851C13.6469 3.59689 13.3782 3.26213 13.4198 2.88937C13.4605 2.51751 13.7925 2.24337 14.1689 2.29042C17.8585 2.70027 20.7239 5.56204 21.1374 9.25075C21.179 9.62351 20.9112 9.95918 20.5394 10.0008C20.514 10.0035 20.4878 10.0053 20.4624 10.0053" fill="white"/>
</g>
<path fill-rule="evenodd" clip-rule="evenodd" d="M17.2593 10.0142C16.9408 10.0142 16.6576 9.78985 16.5943 9.46595C16.3337 8.1269 15.3014 7.09456 13.9642 6.8349C13.5959 6.76342 13.3562 6.40785 13.4276 6.03961C13.4991 5.67137 13.861 5.43071 14.2229 5.50309C16.1057 5.86861 17.5597 7.32166 17.9261 9.20537C17.9976 9.57452 17.7578 9.93009 17.3905 10.0016C17.3462 10.0097 17.3027 10.0142 17.2593 10.0142" fill="white"/>
<path d="M3.4698 4.10479C5.21365 2.36077 6.34992 1.89826 7.56159 2.59502C7.91006 2.79544 8.2365 3.07645 8.68073 3.52764L10.044 4.94073C10.7967 5.7621 10.9678 6.55028 10.7227 7.47295L10.6885 7.59502L10.6514 7.71612L10.4688 8.25127C10.079 9.44985 10.2419 10.1262 11.629 11.513C13.0718 12.9555 13.7459 13.0736 15.0372 12.6224L15.2667 12.5423L15.545 12.4524L15.6671 12.4183C16.6477 12.1566 17.476 12.3657 18.3546 13.2435L19.4532 14.304L19.7764 14.6224C20.1348 14.9878 20.372 15.2772 20.5469 15.5833C21.2393 16.7946 20.7765 17.9297 18.9825 19.7171L18.8116 19.8899C18.5437 20.1481 18.2935 20.3335 17.9259 20.5081C17.3088 20.8011 16.5796 20.911 15.7325 20.7933C13.6448 20.5029 10.9968 18.8555 7.64167 15.5013C7.36865 15.2283 7.10674 14.961 6.85651 14.6985L6.37116 14.18C1.82034 9.23567 1.4183 6.19813 3.28327 4.29327L3.40437 4.17315L3.4698 4.10479ZM6.88484 3.77178C6.46727 3.53166 6.01608 3.63372 5.18171 4.35186L4.91999 4.58623C4.87435 4.62837 4.82714 4.67172 4.77937 4.71709L4.47859 5.01006L4.45124 5.04424L4.24812 5.24932C3.75562 5.75238 3.52169 6.3663 3.72273 7.42217C4.05274 9.15475 5.56276 11.5051 8.60066 14.5423C11.7663 17.7071 14.1786 19.2075 15.919 19.4495C16.9336 19.5906 17.4508 19.3447 17.9786 18.804L18.3809 18.3978C18.5697 18.2003 18.7311 18.0212 18.8673 17.8577L19.0538 17.6243C19.5284 16.9921 19.5712 16.6123 19.3682 16.2571C19.291 16.1221 19.1782 15.9742 19.0147 15.7933L18.793 15.5589L18.6622 15.4271L17.2764 14.0892C16.8136 13.6624 16.4969 13.6016 16.0167 13.7298L15.878 13.7698L15.3048 13.9651C13.64 14.5028 12.4385 14.2419 10.67 12.4739C8.83826 10.6427 8.62273 9.41922 9.2364 7.6585L9.27644 7.54522L9.38484 7.21709L9.43855 7.00811C9.53346 6.55304 9.4248 6.23566 8.93562 5.74639C8.91561 5.72639 8.8935 5.70364 8.86921 5.67901L7.5821 4.34893C7.28735 4.05834 7.0736 3.88034 6.88484 3.77178Z" fill="white"/>
</svg>
