<svg width="40" height="38" viewBox="0 0 40 38" fill="none" xmlns="http://www.w3.org/2000/svg">
  <path d="M37.08 1.07397L1.55649 15.859C1.55649 15.859 -0.123008 16.4695 0.00699235 17.5955C0.140492 18.7235 1.51099 19.2395 1.51099 19.2395L10.4495 22.4305C10.4495 22.4305 13.1475 31.8165 13.6785 33.6025C14.2095 35.3835 14.6355 35.4255 14.6355 35.4255C15.13 35.6535 15.5795 35.2905 15.5795 35.2905L21.3545 29.706L30.355 37.027C32.7895 38.1535 33.6755 35.8065 33.6755 35.8065L40 1.96747C40 -0.286531 37.08 1.07397 37.08 1.07397ZM30.791 33.085L21.162 25.255L18.174 28.1435L18.831 21.998L31.666 9.83347L14.1705 20.2205L6.40999 17.4505L36.0185 5.12647L30.791 33.085Z" fill="white" />
</svg>