<svg width="25" height="24" viewBox="0 0 25 24" fill="none" xmlns="http://www.w3.org/2000/svg">
<mask id="mask0_679_9258" style="mask-type:luminance" maskUnits="userSpaceOnUse" x="14" y="2" width="10" height="9">
<path fill-rule="evenodd" clip-rule="evenodd" d="M14.8564 2H23.3954V10.5328H14.8564V2Z" fill="white"/>
</mask>
<g mask="url(#mask0_679_9258)">
<path fill-rule="evenodd" clip-rule="evenodd" d="M22.6451 10.5328C22.2681 10.5328 21.9441 10.2498 21.9011 9.86681C21.5221 6.49081 18.9001 3.87081 15.5231 3.49581C15.1121 3.44981 14.8151 3.07981 14.8611 2.66781C14.9061 2.25681 15.2731 1.95381 15.6891 2.00581C19.7671 2.45881 22.9341 5.62181 23.3911 9.69881C23.4371 10.1108 23.1411 10.4818 22.7301 10.5278C22.7021 10.5308 22.6731 10.5328 22.6451 10.5328Z" fill="#D23216"/>
</g>
<path fill-rule="evenodd" clip-rule="evenodd" d="M19.1054 10.5442C18.7534 10.5442 18.4404 10.2962 18.3704 9.93815C18.0824 8.45815 16.9414 7.31715 15.4634 7.03015C15.0564 6.95115 14.7914 6.55815 14.8704 6.15115C14.9494 5.74415 15.3494 5.47815 15.7494 5.55815C17.8304 5.96215 19.4374 7.56815 19.8424 9.65015C19.9214 10.0582 19.6564 10.4512 19.2504 10.5302C19.2014 10.5392 19.1534 10.5442 19.1054 10.5442Z" fill="#D23216"/>
<path d="M3.86406 4.01246C5.79148 2.08486 7.0473 1.5734 8.38652 2.34351C8.77166 2.56502 9.13285 2.87512 9.62382 3.37378L11.1297 4.93628C11.9617 5.84418 12.1516 6.71524 11.8807 7.73511L11.8426 7.86988L11.8016 8.00367L11.6004 8.59449C11.1694 9.91946 11.3491 10.6678 12.8826 12.2009C14.4771 13.795 15.2221 13.9252 16.6492 13.4265L16.9031 13.3377L17.2107 13.238L17.3455 13.2009C18.4295 12.9118 19.3451 13.1426 20.3162 14.113L21.5301 15.2849L21.8875 15.6365C22.2835 16.0403 22.5447 16.3608 22.7381 16.699C23.5033 18.0377 22.9923 19.2919 21.0096 21.2673L20.8211 21.4587C20.525 21.7441 20.2479 21.9484 19.8416 22.1414C19.1595 22.4652 18.3532 22.588 17.4168 22.4578C15.1094 22.1367 12.1834 20.3153 8.47538 16.6082C8.17352 16.3064 7.88387 16.0107 7.60722 15.7205L7.07011 15.1472C2.0407 9.68277 1.59683 6.32578 3.658 4.22046L3.79179 4.08765L3.86406 4.01246ZM7.63847 3.64429C7.17695 3.37889 6.67786 3.49119 5.75566 4.28492L5.46659 4.54371C5.41606 4.59036 5.36422 4.63897 5.31132 4.68921L4.97929 5.01246L4.94902 5.05054L4.72343 5.27613C4.17908 5.83214 3.92116 6.51144 4.14335 7.67847C4.5081 9.5934 6.17739 12.1908 9.53495 15.5476C13.0338 19.0456 15.7002 20.7049 17.6238 20.9724C18.745 21.1283 19.3169 20.8561 19.9002 20.2585L20.3455 19.8093C20.5539 19.5912 20.7322 19.3933 20.8826 19.2127L21.0877 18.9539C21.612 18.2554 21.6604 17.8365 21.4363 17.4441C21.351 17.2948 21.2265 17.1305 21.0457 16.9304L20.8006 16.6716L20.6551 16.5261L19.1238 15.0476C18.6122 14.5758 18.2621 14.5085 17.7312 14.6502L17.5789 14.6941L16.9441 14.9099C15.1041 15.5042 13.7768 15.2157 11.8221 13.2615C9.79742 11.2374 9.5597 9.88541 10.2381 7.93921L10.281 7.81421L10.4021 7.45191L10.4607 7.22046C10.5655 6.71763 10.4457 6.36661 9.90507 5.82593C9.8829 5.80377 9.85777 5.77901 9.83085 5.75171L8.40898 4.28101C8.08346 3.9601 7.84699 3.76426 7.63847 3.64429Z" fill="#D23216"/>
</svg>
