<svg width="30" height="30" viewBox="0 0 30 30" fill="none" xmlns="http://www.w3.org/2000/svg">
  <path d="M24.1567 11.8352C24.1567 11.8352 23.478 20.254 23.0842 23.8002C22.8967 25.494 21.8505 26.4865 20.1367 26.5177C16.8755 26.5765 13.6105 26.5802 10.3505 26.5115C8.70172 26.4777 7.67297 25.4727 7.48922 23.809C7.09297 20.2315 6.41797 11.8352 6.41797 11.8352" stroke="black" stroke-width="2" stroke-linecap="round" stroke-linejoin="round" />
  <path d="M25.885 7.79956H4.6875" stroke="black" stroke-width="2" stroke-linecap="round" stroke-linejoin="round" />
  <path d="M21.8002 7.79973C20.819 7.79973 19.974 7.10598 19.7815 6.14473L19.4777 4.62473C19.2902 3.92348 18.6552 3.43848 17.9315 3.43848H12.6402C11.9165 3.43848 11.2815 3.92348 11.094 4.62473L10.7902 6.14473C10.5977 7.10598 9.75273 7.79973 8.77148 7.79973" stroke="black" stroke-width="2" stroke-linecap="round" stroke-linejoin="round" />
</svg>