<svg width="32" height="31" viewBox="0 0 32 31" fill="none" xmlns="http://www.w3.org/2000/svg">
<path d="M31.5032 15.4054C31.5032 6.89728 24.599 0 16.0933 0C7.58767 0 0.692383 6.89728 0.692383 15.4054C0.692383 23.9135 7.58767 30.8108 16.0933 30.8108C24.599 30.8108 31.4943 23.9135 31.4943 15.4054H31.5032Z" fill="#0051DE"/>
<path d="M11.6792 9.72754H20.5141C22.3558 9.72754 23.8505 11.2227 23.8505 13.0649V17.764C23.8505 19.6062 22.3558 21.1014 20.5141 21.1014H11.6792C9.83749 21.1014 8.34277 19.6062 8.34277 17.764V13.0649C8.34277 11.2227 9.83749 9.72754 11.6792 9.72754Z" fill="white"/>
<path d="M19.2502 15.4402L14.072 18.2347C13.903 18.3326 13.6895 18.1991 13.6895 18.0033V12.3876C13.6895 12.1918 13.8941 12.0672 14.072 12.1562L19.2502 14.9774C19.4281 15.0753 19.4281 15.3334 19.2502 15.4313V15.4402Z" fill="#0051DE"/>
</svg>
