<svg width="57" height="52" viewBox="0 0 57 52" fill="none" xmlns="http://www.w3.org/2000/svg">
  <g clip-path="url(#clip0_508_5443)">
    <path d="M8.22813 33.9736C8.08011 33.9736 7.93418 33.9385 7.80233 33.871L0.716189 30.209C0.497712 30.0962 0.33263 29.9012 0.257023 29.6667C0.181416 29.4321 0.201434 29.1771 0.312701 28.9573L8.6372 12.4607C8.69246 12.3512 8.76873 12.2537 8.86164 12.1738C8.95455 12.0939 9.06226 12.0332 9.17861 11.9951C9.29495 11.9571 9.41764 11.9425 9.53963 11.9521C9.66162 11.9617 9.78051 11.9954 9.8895 12.0513L16.6307 15.5024C16.8472 15.6129 17.0119 15.804 17.0897 16.0348C17.1676 16.2656 17.1523 16.5177 17.0472 16.7374L9.06672 33.441C9.01277 33.5533 8.93706 33.6537 8.844 33.7364C8.75094 33.819 8.64239 33.8822 8.5247 33.9223C8.42917 33.955 8.32907 33.9723 8.22813 33.9736ZM2.38871 28.9741L7.80326 31.7723L14.9787 16.7551L9.87462 14.1434L2.38871 28.9741Z" fill="black" />
    <path d="M17.8594 20.9934C17.6995 20.9934 17.5423 20.9519 17.403 20.8731L14.7013 19.3462C14.5949 19.2861 14.5013 19.2056 14.4259 19.1092C14.3505 19.0129 14.2948 18.9026 14.2619 18.7846C14.229 18.6666 14.2196 18.5433 14.2342 18.4217C14.2488 18.3001 14.2872 18.1825 14.3471 18.0758C14.4069 17.969 14.4872 17.8752 14.5832 17.7995C14.6793 17.7239 14.7892 17.668 14.9068 17.635C15.0244 17.602 15.1473 17.5925 15.2685 17.6072C15.3897 17.6219 15.5069 17.6603 15.6133 17.7204L17.8446 18.9805C18.7157 18.4507 20.6011 17.31 21.8079 16.6263C23.7779 15.507 25.165 15.6609 26.7576 17.1748C26.9319 17.3459 27.0322 17.579 27.0369 17.8237C27.0415 18.0684 26.9501 18.3051 26.7824 18.4828C26.6147 18.6605 26.384 18.7649 26.1403 18.7736C25.8965 18.7823 25.6591 18.6944 25.4792 18.5291C24.49 17.5889 23.975 17.5404 22.7227 18.2493C21.1719 19.1289 18.3745 20.8395 18.3457 20.861C18.1988 20.9492 18.0306 20.995 17.8594 20.9934Z" fill="black" />
    <path d="M42.3175 37.2223C41.6401 37.2398 40.9717 37.0628 40.3912 36.7121C39.5358 36.1394 35.7724 32.4364 35.0268 31.7005C34.8624 31.5249 34.7721 31.2924 34.7748 31.0516C34.7774 30.8107 34.8728 30.5802 35.041 30.4084C35.2092 30.2365 35.4371 30.1366 35.6771 30.1295C35.917 30.1224 36.1504 30.2087 36.3284 30.3704C38.0018 32.0279 40.8727 34.7935 41.4203 35.16C41.7733 35.3237 42.1636 35.3889 42.5504 35.3488C42.9371 35.3088 43.306 35.1649 43.6181 34.9325C43.7643 34.8053 43.8809 34.6474 43.9596 34.4701C44.0384 34.2927 44.0773 34.1002 44.0738 33.9061C44.0702 33.712 44.0243 33.521 43.9391 33.3467C43.8539 33.1724 43.7317 33.0189 43.581 32.8972C42.6308 31.8245 38.6833 28.0143 37.8168 27.1785C34.7934 26.0667 31.8615 24.7188 29.0479 23.1472L28.0699 23.7889C27.8503 24.8116 27.2645 25.7179 26.4234 26.3363C26.1282 26.5696 25.7855 26.735 25.4195 26.8207C25.0535 26.9065 24.6733 26.9105 24.3056 26.8325C23.8594 26.7767 23.4297 26.6281 23.0441 26.3962C22.6584 26.1642 22.3253 25.8541 22.0659 25.4856C21.5715 24.4258 21.516 23.2126 21.9116 22.1119C22.7046 18.9275 23.9913 18.1076 25.7717 16.9734L26.1631 16.7225C28.1248 15.4586 29.8084 14.7851 31.6567 15.62C32.8058 16.1395 36.8844 17.7242 38.0428 18.1738L41.9252 16.8969C42.1577 16.8259 42.4088 16.8492 42.6244 16.9617C42.8401 17.0741 43.0033 17.2669 43.0791 17.4987C43.1548 17.7304 43.1371 17.9827 43.0296 18.2015C42.9222 18.4203 42.7337 18.5881 42.5044 18.6691L38.3068 20.0496C38.1035 20.1161 37.8837 20.1108 37.6839 20.0346C37.4636 19.9488 32.2777 17.9472 30.8971 17.3222C30.0688 16.9491 29.1939 16.9874 27.1709 18.2913L26.7711 18.5478C25.1469 19.5823 24.3316 20.1027 23.718 22.5642C23.4038 23.8253 23.5488 24.3365 23.6631 24.523C23.81 24.7693 24.1503 24.8691 24.6923 25.0052C24.8087 25.0249 24.9279 25.0184 25.0414 24.9861C25.155 24.9538 25.2599 24.8967 25.3487 24.8187C25.6109 24.6205 25.8299 24.3705 25.9922 24.0842C26.1545 23.7978 26.2566 23.4812 26.2923 23.1537C26.3045 23.0131 26.3483 22.8771 26.4204 22.7559C26.4926 22.6347 26.5912 22.5316 26.7088 22.4542L28.4985 21.2799C28.6396 21.1878 28.8029 21.1359 28.971 21.1297C29.1392 21.1234 29.3058 21.1631 29.4533 21.2444C29.5165 21.2789 35.7845 24.718 38.5299 25.4418C38.6825 25.4827 38.8225 25.5612 38.9371 25.6703C39.1379 25.8634 43.8645 30.404 44.9746 31.6604C45.2822 31.9591 45.5261 32.3174 45.6915 32.7135C45.8569 33.1096 45.9404 33.5353 45.9369 33.9648C45.9335 34.3943 45.8431 34.8186 45.6713 35.2119C45.4994 35.6053 45.2498 35.9596 44.9374 36.2532C44.222 36.9043 43.2829 37.2517 42.3175 37.2223Z" fill="black" />
    <path d="M44.2786 33.2108C44.0656 33.2106 43.8591 33.1371 43.6936 33.0024C43.5282 32.8678 43.4139 32.6802 43.3697 32.4711C43.3256 32.262 43.3545 32.0441 43.4514 31.8537C43.5483 31.6634 43.7074 31.5122 43.9021 31.4255L47.1635 29.976C47.2756 29.9229 47.3971 29.8928 47.521 29.8876C47.6449 29.8823 47.7685 29.9019 47.8847 29.9453C48.0009 29.9887 48.1073 30.0549 48.1976 30.1402C48.2878 30.2254 48.3602 30.3279 48.4105 30.4416C48.4607 30.5553 48.4877 30.678 48.49 30.8023C48.4923 30.9267 48.4697 31.0502 48.4237 31.1657C48.3777 31.2812 48.3091 31.3863 48.222 31.4748C48.1349 31.5633 48.0311 31.6335 47.9165 31.6811L44.6542 33.1343C44.5357 33.1857 44.4078 33.2117 44.2786 33.2108Z" fill="black" />
    <path d="M48.5435 33.9736C48.3582 33.9735 48.1772 33.9179 48.0236 33.8139C47.87 33.7098 47.751 33.5621 47.6817 33.3897L40.6643 15.9231C40.6174 15.8066 40.5945 15.6818 40.5968 15.5562C40.5992 15.4306 40.6268 15.3068 40.678 15.1922C40.7292 15.0775 40.803 14.9744 40.8949 14.8891C40.9868 14.8038 41.095 14.738 41.2128 14.6956L48.7118 12.0037C48.9386 11.9223 49.1881 11.9324 49.4077 12.032C49.6272 12.1315 49.7997 12.3126 49.8888 12.5372L56.7685 29.8621C56.8135 29.9766 56.8355 30.0989 56.8331 30.222C56.8308 30.3451 56.8042 30.4666 56.7548 30.5793C56.7055 30.692 56.6344 30.7938 56.5456 30.8788C56.4568 30.9639 56.3522 31.0304 56.2377 31.0746L48.8763 33.9083C48.7703 33.9504 48.6575 33.9725 48.5435 33.9736ZM42.7478 16.1246L49.0613 31.8386L54.6897 29.6746L48.4933 14.0632L42.7478 16.1246ZM38.129 40.0514C37.3626 40.0744 36.6142 39.8161 36.0242 39.3248C34.7793 38.2148 31.5793 35.0062 31.4436 34.87C31.2742 34.6941 31.1805 34.4584 31.1827 34.2139C31.1848 33.9693 31.2825 33.7354 31.4549 33.5624C31.6273 33.3895 31.8605 33.2914 32.1042 33.2893C32.348 33.2872 32.5828 33.3812 32.7582 33.5511C32.7907 33.5837 36.0558 36.8577 37.2588 37.935C37.5082 38.0874 37.7906 38.1772 38.0819 38.1967C38.3732 38.2161 38.665 38.1648 38.9323 38.0469C39.3689 37.8975 39.7561 37.6307 40.0519 37.2756C40.3476 36.9205 40.5405 36.4907 40.6095 36.0331C40.6302 35.9124 40.6745 35.797 40.7397 35.6934C40.8049 35.5899 40.8898 35.5002 40.9896 35.4296C41.0893 35.3589 41.202 35.3087 41.3211 35.2818C41.4402 35.2548 41.5634 35.2516 41.6837 35.2725C41.804 35.2933 41.9191 35.3377 42.0223 35.4031C42.1255 35.4685 42.2149 35.5537 42.2853 35.6538C42.3557 35.7539 42.4058 35.8669 42.4326 35.9864C42.4595 36.1059 42.4627 36.2295 42.4419 36.3502C42.3155 37.1338 41.98 37.8685 41.4709 38.4761C40.9618 39.0837 40.2982 39.5417 39.5505 39.8014C39.094 39.964 38.6135 40.0485 38.129 40.0514Z" fill="black" />
    <path d="M33.8017 42.3123C33.0369 42.345 32.2895 42.0773 31.7183 41.5661L28.416 38.2529L29.7315 36.9331L33.0338 40.2462C33.2382 40.3613 33.4643 40.4321 33.6977 40.454C33.931 40.4758 34.1663 40.4483 34.3884 40.3731C34.8149 40.268 35.2054 40.0499 35.519 39.7416C35.8327 39.4333 36.0581 39.0461 36.1715 38.6204C36.2059 38.5017 36.2635 38.391 36.3409 38.2948C36.4183 38.1986 36.514 38.1188 36.6224 38.06C36.7308 38.0013 36.8498 37.9647 36.9725 37.9525C37.0951 37.9403 37.2189 37.9526 37.3367 37.9889C37.4546 38.0251 37.564 38.0845 37.6588 38.1635C37.7535 38.2426 37.8317 38.3398 37.8887 38.4494C37.9456 38.559 37.9803 38.6789 37.9907 38.8021C38.0011 38.9253 37.9869 39.0494 37.9491 39.167C37.6905 40.071 37.1464 40.8663 36.3987 41.4334C35.651 42.0006 34.7391 42.309 33.8017 42.3123Z" fill="black" />
    <path d="M30.2577 44.8036C29.4977 44.8198 28.7544 44.5783 28.1482 44.118C27.3107 43.4453 26.4693 42.7774 25.6241 42.1145C25.5259 42.0398 25.4434 41.9463 25.3815 41.8394C25.3197 41.7324 25.2796 41.6142 25.2637 41.4916C25.2477 41.369 25.2563 41.2444 25.2887 41.1252C25.3212 41.0059 25.377 40.8943 25.4529 40.7969C25.5287 40.6994 25.6232 40.6181 25.7306 40.5576C25.8381 40.4971 25.9565 40.4586 26.0789 40.4444C26.2013 40.4303 26.3254 40.4406 26.4438 40.475C26.5621 40.5093 26.6725 40.5669 26.7685 40.6445C26.7685 40.6445 27.9297 41.5539 29.3103 42.662C29.6045 42.8376 29.939 42.9337 30.2812 42.9407C30.6235 42.9477 30.9616 42.8655 31.2627 42.7021C31.5319 42.586 31.7596 42.3908 31.916 42.1422C32.0723 41.8935 32.1499 41.6032 32.1385 41.3095C32.131 41.0623 32.2216 40.8221 32.3906 40.642C32.5595 40.4618 32.7929 40.3563 33.0393 40.3488C33.2851 40.3444 33.5228 40.4366 33.7017 40.6056C33.8806 40.7747 33.9865 41.0072 33.9969 41.2535C34.0188 41.9033 33.8501 42.5451 33.5116 43.0995C33.1731 43.6538 32.6798 44.0962 32.0929 44.3717C31.5223 44.6551 30.8944 44.8029 30.2577 44.8036Z" fill="black" />
    <path d="M23.2908 44.3717C22.9886 44.3706 22.6895 44.3104 22.4103 44.1944C21.6522 43.8212 21.0273 43.2226 20.6207 42.4801C19.9609 42.6085 19.2771 42.5054 18.6841 42.1881C18.1867 41.861 17.759 41.4379 17.4261 40.9434C17.0932 40.4489 16.8616 39.8929 16.7448 39.3078C16.6958 39.0696 16.7415 38.8215 16.8721 38.6166C17.628 37.4339 18.7678 35.5955 18.9379 35.2121C19.091 34.9063 19.3082 34.6372 19.5745 34.4234C19.8409 34.2096 20.1502 34.0561 20.4812 33.9734C20.9315 33.855 21.4024 33.8391 21.8596 33.9269C22.3168 34.0147 22.7486 34.204 23.1234 34.4808C23.5388 34.7567 23.8724 35.1399 24.089 35.59C24.3057 36.0401 24.3973 36.5405 24.3543 37.0384C24.7965 37.0575 25.2295 37.1716 25.6241 37.3729C26.0186 37.5742 26.3655 37.858 26.6414 38.2053C26.9094 38.6254 27.0804 39.1003 27.142 39.5952C27.2036 40.0902 27.1542 40.5927 26.9975 41.066C26.5098 42.4315 25.5087 43.5511 24.2084 44.1851C23.918 44.3083 23.606 44.3717 23.2908 44.3717ZM22.1863 41.4606C22.4782 41.9559 22.9998 42.6666 23.4879 42.4623C24.2982 42.0389 24.9221 41.3275 25.2375 40.4672C25.2996 40.2768 25.3234 40.0759 25.3074 39.8763C25.2914 39.6766 25.2361 39.4821 25.1446 39.3041C25.0031 39.1651 24.8352 39.0561 24.6509 38.9837C24.4666 38.9113 24.2696 38.8768 24.0717 38.8825L22.1863 41.4606ZM18.6618 39.2686C18.8097 39.7869 19.1303 40.2386 19.5701 40.5483C19.7074 40.619 19.8577 40.6607 20.0117 40.6708C20.1657 40.6809 20.3201 40.6592 20.4654 40.6071L22.4503 37.1933C22.5292 36.9823 22.5343 36.7507 22.4647 36.5364C22.3951 36.3222 22.2549 36.1381 22.0673 36.0143C21.9245 35.9013 21.7598 35.8197 21.5836 35.7745C21.4075 35.7294 21.2239 35.7218 21.0446 35.7522C20.8864 35.7783 20.7419 35.8584 20.6356 35.9788C20.3901 36.5245 19.2094 38.4049 18.6618 39.2686Z" fill="black" />
    <path d="M16.1848 40.7259C15.9645 40.7265 15.7453 40.6951 15.534 40.6326C13.9415 40.1522 13.3176 38.0834 13.2516 37.8493C13.2183 37.7305 13.2088 37.6063 13.2236 37.4838C13.2384 37.3613 13.2773 37.243 13.3381 37.1357C14.1283 35.7586 15.0023 34.4315 15.9552 33.1622C16.4335 32.5379 17.1266 32.1148 17.8992 31.9756C18.6717 31.8364 19.4683 31.9911 20.1332 32.4095C21.0109 33.0204 21.6542 34.3496 20.5776 36.0864C20.5132 36.1905 20.429 36.2809 20.3298 36.3523C20.2306 36.4238 20.1183 36.475 19.9994 36.5029C19.8805 36.5308 19.7572 36.535 19.6367 36.5151C19.5162 36.4953 19.4007 36.4518 19.297 36.3872C19.1932 36.3226 19.1031 36.2381 19.0319 36.1386C18.9607 36.039 18.9097 35.9264 18.8818 35.8071C18.854 35.6878 18.8498 35.5641 18.8696 35.4432C18.8894 35.3223 18.9327 35.2065 18.9971 35.1023C19.2361 34.7152 19.4434 34.2013 19.0724 33.9429C18.8013 33.7944 18.486 33.7486 18.184 33.814C17.8821 33.8794 17.6137 34.0517 17.4278 34.2992C16.6111 35.388 15.8553 36.5215 15.164 37.6944C15.3676 38.1823 15.7144 38.741 16.0686 38.8464C16.3819 38.9397 16.8124 38.6169 17.0457 38.4173C17.2324 38.2555 17.4754 38.1748 17.7214 38.1928C17.9675 38.2108 18.1963 38.3261 18.3575 38.5134C18.5188 38.7007 18.5993 38.9445 18.5813 39.1913C18.5634 39.4382 18.4484 39.6677 18.2618 39.8295C17.7028 40.3742 16.9634 40.6933 16.1848 40.7259Z" fill="black" />
    <path d="M14.1446 38.5252C14.0424 38.5251 13.941 38.5081 13.8443 38.4749C13.6872 38.4217 9.98145 37.1224 9.98145 34.2104C9.98135 34.1125 9.9964 34.0153 10.0261 33.9221C10.3625 32.9933 10.8232 32.1147 11.3955 31.3104C11.8214 30.7998 12.4097 30.452 13.0613 30.3256C13.7129 30.1992 14.388 30.3019 14.973 30.6165C15.5236 30.8613 15.9628 31.3043 16.2037 31.8581C16.4447 32.4119 16.47 33.0362 16.2746 33.6078C15.6665 35.5722 15.0427 37.8173 15.0362 37.8406C14.9816 38.0367 14.8645 38.2095 14.7029 38.3326C14.5412 38.4557 14.3439 38.5224 14.1409 38.5224L14.1446 38.5252ZM11.8483 34.3549C11.9412 35.228 12.8319 35.8921 13.5459 36.2904C13.7886 35.4397 14.1483 34.202 14.5016 33.0575C14.5341 32.9848 14.5506 32.906 14.5503 32.8263C14.5499 32.7467 14.5326 32.668 14.4995 32.5956C14.4664 32.5232 14.4183 32.4587 14.3584 32.4065C14.2985 32.3542 14.2281 32.3154 14.1521 32.2926C13.96 32.1839 13.7401 32.1347 13.5202 32.1513C13.3003 32.1679 13.0902 32.2496 12.9165 32.3859C12.4855 32.9984 12.127 33.6592 11.8483 34.3549Z" fill="black" />
    <path d="M11.6743 33.534C11.4871 33.5338 11.3044 33.4769 11.15 33.3708L8.71138 31.6918C8.50783 31.552 8.36797 31.3369 8.32255 31.0936C8.27713 30.8504 8.32988 30.599 8.46919 30.3948C8.6085 30.1906 8.82297 30.0503 9.0654 30.0047C9.30784 29.9592 9.55839 30.0121 9.76193 30.1519L12.2005 31.8308C12.3648 31.9433 12.4888 32.1056 12.5543 32.294C12.6198 32.4823 12.6234 32.6868 12.5645 32.8774C12.5056 33.068 12.3874 33.2346 12.2272 33.3528C12.0669 33.4709 11.8732 33.5345 11.6743 33.534Z" fill="black" />
  </g>
  <defs>
    <clipPath id="clip0_508_5443">
      <rect width="56.0154" height="50.9231" fill="white" transform="translate(0.492188 0.501465)" />
    </clipPath>
  </defs>
</svg>