<svg width="25" height="19" viewBox="0 0 25 19" fill="none" xmlns="http://www.w3.org/2000/svg">
<g clip-path="url(#clip0_679_9254)">
<path d="M12.3821 0.5C15.6121 0.5 18.843 0.5 22.0729 0.502008C22.4161 0.502008 22.7582 0.523098 23.0891 0.646619C23.874 0.939857 24.4428 1.74024 24.4804 2.62598C24.4945 2.95436 24.5029 3.28375 24.5029 3.61214C24.5048 7.70743 24.5048 11.8037 24.5029 15.899C24.5029 16.38 24.4728 16.8591 24.2425 17.2909C23.8628 18.0049 23.2931 18.4126 22.5204 18.4739C22.2525 18.495 21.9818 18.499 21.7129 18.499C15.4325 18.5 9.15124 18.5 2.87087 18.499C2.34164 18.499 1.8359 18.4096 1.39878 18.0611C0.864843 17.6353 0.563092 17.071 0.528311 16.3559C0.51327 16.0446 0.50575 15.7313 0.50575 15.42C0.50293 11.2916 0.50293 7.16313 0.50293 3.0337C0.50293 2.47936 0.580012 1.9451 0.895864 1.48215C1.29162 0.903704 1.81804 0.570297 2.49298 0.52611C2.76935 0.508034 3.04666 0.501004 3.32397 0.501004C6.34336 0.5 9.36275 0.5 12.3821 0.5ZM22.0983 2.01239H2.88968C3.1463 2.27449 3.38601 2.5125 3.6182 2.75854C5.09217 4.31912 6.56615 5.88172 8.03824 7.44432C8.99895 8.46463 9.95685 9.48594 10.9138 10.5093C11.2532 10.8718 11.6404 11.1419 12.1208 11.2233C12.8898 11.3528 13.5356 11.1068 14.0874 10.5153C15.4372 9.06818 16.7975 7.63312 18.1558 6.19504C19.4446 4.83028 20.7353 3.46853 22.025 2.10478C22.0485 2.08067 22.0673 2.05155 22.0983 2.01239ZM2.95642 16.9886H22.1058C22.0767 16.9555 22.0617 16.9374 22.0457 16.9203C21.3454 16.1822 20.645 15.4461 19.9456 14.707C18.6606 13.3503 17.3765 11.9935 16.0934 10.6338C16.0323 10.5695 16.0003 10.5745 15.9439 10.6358C15.6422 10.9622 15.3376 11.2855 15.0321 11.6069C14.3506 12.3259 13.5318 12.7236 12.572 12.7467C11.5596 12.7708 10.7014 12.3581 9.97941 11.6159C9.66732 11.2956 9.36557 10.9632 9.06194 10.6338C9.00647 10.5735 8.97545 10.5665 8.91341 10.6338C7.95834 11.6471 6.9995 12.6563 6.04255 13.6686C5.24634 14.5102 4.45107 15.3517 3.65862 16.1983C3.41327 16.4604 3.18203 16.7355 2.95642 16.9916V16.9886ZM7.90757 9.46686C5.94948 7.36398 3.94251 5.20989 1.91862 3.03571V15.9291C1.92896 15.9372 1.9393 15.9452 1.94964 15.9532C3.94063 13.7861 5.93162 11.6179 7.90757 9.46585V9.46686ZM23.091 3.07487C23.0807 3.06583 23.0703 3.0568 23.06 3.04776C21.0492 5.19884 19.0385 7.35092 17.0212 9.50803C19.0479 11.6571 21.0643 13.7951 23.091 15.9442V3.07487Z" fill="#D23216"/>
</g>
<defs>
<clipPath id="clip0_679_9254">
<rect width="24" height="18" fill="white" transform="translate(0.50293 0.5)"/>
</clipPath>
</defs>
</svg>
