<svg width="31" height="31" viewBox="0 0 31 31" fill="none" xmlns="http://www.w3.org/2000/svg">
<path d="M15.5031 0C6.99587 0 0.0976562 6.89622 0.0976562 15.4098C0.0976562 23.9235 6.99587 30.8108 15.5031 30.8108C24.0103 30.8108 30.9085 23.9146 30.9085 15.4098C30.9085 6.9051 24.0103 0 15.5031 0Z" fill="#0051DE"/>
<path d="M15.5045 20.9111C18.5358 20.9111 21.0071 18.4495 21.0071 15.4102C21.0071 12.3708 18.5358 9.90918 15.5045 9.90918C12.4732 9.90918 10.002 12.3797 10.002 15.4102C10.002 18.4406 12.4643 20.9111 15.5045 20.9111ZM11.3354 15.4102C11.3354 13.1085 13.2022 11.2422 15.5045 11.2422C17.8069 11.2422 19.6737 13.1085 19.6737 15.4102C19.6737 17.7119 17.8069 19.5781 15.5045 19.5781C13.2022 19.5781 11.3354 17.7119 11.3354 15.4102Z" fill="white"/>
<path d="M20.9708 24.5458H9.99236C7.93001 24.5458 6.25879 22.8751 6.25879 20.8133V10.0069C6.25879 7.94515 7.93001 6.27441 9.99236 6.27441H20.9708C23.0332 6.27441 24.7044 7.95403 24.7044 10.0069V20.8133C24.7044 22.8751 23.0332 24.5458 20.9708 24.5458ZM9.99236 7.63411C8.68561 7.63411 7.61887 8.70053 7.61887 10.0069V20.8133C7.61887 22.1197 8.68561 23.1861 9.99236 23.1861H20.9708C22.2776 23.1861 23.3443 22.1197 23.3443 20.8133V10.0069C23.3443 8.70053 22.2776 7.63411 20.9708 7.63411H9.99236Z" fill="white"/>
<path d="M21.078 9.28809C20.5975 9.28809 20.2061 9.67945 20.2061 10.1598C20.2061 10.6401 20.5975 11.0314 21.078 11.0314C21.5584 11.0314 21.9499 10.6401 21.9499 10.1598C21.9499 9.67945 21.5584 9.28809 21.078 9.28809Z" fill="white"/>
</svg>
