<svg width="49" height="49" viewBox="0 0 49 49" fill="none" xmlns="http://www.w3.org/2000/svg">
<path d="M38.463 10.5948C35.7174 7.83312 32.2137 5.94866 28.3961 5.1802C24.5784 4.41175 20.6185 4.79389 17.0183 6.2782C13.418 7.76251 10.3394 10.2822 8.17256 13.5179C6.00572 16.7536 4.8482 20.5598 4.84668 24.454V35.0365C4.84668 36.2393 5.32451 37.3929 6.17505 38.2434C7.02559 39.094 8.17917 39.5718 9.38202 39.5718H12.4056C13.6084 39.5718 14.762 39.094 15.6125 38.2434C16.4631 37.3929 16.9409 36.2393 16.9409 35.0365V27.4776C16.9409 26.2747 16.4631 25.1211 15.6125 24.2706C14.762 23.4201 13.6084 22.9422 12.4056 22.9422H7.93827C8.22982 19.7901 9.41383 16.7863 11.3515 14.283C13.2892 11.7797 15.9003 9.88052 18.8788 8.80817C21.8573 7.73582 25.0797 7.53467 28.1684 8.22829C31.2572 8.92192 34.0842 10.4816 36.3181 12.7245C39.0486 15.4689 40.7281 19.0854 41.0632 22.9422H36.594C35.3912 22.9422 34.2376 23.4201 33.3871 24.2706C32.5365 25.1211 32.0587 26.2747 32.0587 27.4776V35.0365C32.0587 36.2393 32.5365 37.3929 33.3871 38.2434C34.2376 39.094 35.3912 39.5718 36.594 39.5718H41.1294C41.1294 40.7746 40.6515 41.9282 39.801 42.7788C38.9505 43.6293 37.7969 44.1071 36.594 44.1071H26.0116C25.6106 44.1071 25.2261 44.2664 24.9426 44.5499C24.6591 44.8334 24.4998 45.218 24.4998 45.6189C24.4998 46.0199 24.6591 46.4044 24.9426 46.6879C25.2261 46.9714 25.6106 47.1307 26.0116 47.1307H36.594C38.5988 47.1307 40.5214 46.3343 41.939 44.9167C43.3566 43.4992 44.1529 41.5765 44.1529 39.5718V24.454C44.1628 21.8832 43.6652 19.3357 42.6889 16.9575C41.7125 14.5792 40.2764 12.4171 38.463 10.5948ZM12.4056 25.9658C12.8065 25.9658 13.191 26.1251 13.4746 26.4086C13.7581 26.6921 13.9174 27.0766 13.9174 27.4776V35.0365C13.9174 35.4374 13.7581 35.8219 13.4746 36.1055C13.191 36.389 12.8065 36.5482 12.4056 36.5482H9.38202C8.98107 36.5482 8.59654 36.389 8.31303 36.1055C8.02951 35.8219 7.87024 35.4374 7.87024 35.0365V25.9658H12.4056ZM36.594 36.5482C36.1931 36.5482 35.8086 36.389 35.525 36.1055C35.2415 35.8219 35.0823 35.4374 35.0823 35.0365V27.4776C35.0823 27.0766 35.2415 26.6921 35.525 26.4086C35.8086 26.1251 36.1931 25.9658 36.594 25.9658H41.1294V36.5482H36.594Z" fill="black"/>
</svg>
