<svg width="32" height="31" viewBox="0 0 32 31" fill="none" xmlns="http://www.w3.org/2000/svg">
    <path d="M31.6106 15.4054C31.6106 6.89728 24.7133 0 16.2052 0C7.69708 0 0.799805 6.89728 0.799805 15.4054C0.799805 23.9135 7.69708 30.8108 16.2052 30.8108C24.7133 30.8108 31.6106 23.9135 31.6106 15.4054Z" fill="#0051DE" />
    <path d="M25.1495 10.7872C24.5355 11.0364 23.868 11.2055 23.1827 11.2856C23.9125 10.8584 24.4821 10.1909 24.7758 9.38997C24.7936 9.33657 24.7401 9.29207 24.6957 9.31877C24.0104 9.70146 23.2539 9.98625 22.4529 10.1375C21.7676 9.41667 20.7976 8.97168 19.7207 8.97168C17.656 8.97168 15.9739 10.627 15.9739 12.6562C15.9739 12.9499 16.0095 13.2257 16.0718 13.4927C12.9658 13.3414 10.2158 11.8819 8.37358 9.66586C8.36468 9.65696 8.34688 9.65696 8.33798 9.66586C8.02649 10.1998 7.84849 10.8228 7.84849 11.4903C7.84849 12.7452 8.48037 13.8487 9.45044 14.5162C9.46824 14.534 9.45934 14.5607 9.43264 14.5607C8.86306 14.534 8.32018 14.3738 7.84849 14.1246C7.83959 14.1157 7.82179 14.1246 7.82179 14.1424C7.83069 14.3026 7.88409 15.0235 8.07099 15.4952C8.54267 16.6432 9.55724 17.5243 10.821 17.7735C10.5006 17.8536 10.1713 17.907 9.83313 17.907C9.60174 17.907 9.37924 17.8803 9.15675 17.8447C9.13895 17.8447 9.13005 17.8536 9.13005 17.8714C9.61064 19.2953 10.9545 20.3455 12.5564 20.3989C12.5742 20.3989 12.5831 20.4256 12.5653 20.4434C11.2927 21.4135 9.69963 21.9831 7.96419 21.9831C7.6616 21.9831 7.36791 21.9653 7.07422 21.9297C8.72957 22.9709 10.6964 23.585 12.8145 23.585C15.7247 23.585 18.0832 22.5793 19.8275 21.0575C21.5897 19.5178 22.7377 17.4442 23.2094 15.3261C23.3785 14.5785 23.4675 13.8309 23.4675 13.1011C23.4675 12.941 23.4675 12.7808 23.4586 12.6206C24.135 12.14 24.7313 11.5437 25.2118 10.8762C25.2474 10.8317 25.194 10.7694 25.1406 10.7961L25.1495 10.7872Z" fill="white" />
  </svg>